<svg width="249" height="98" viewBox="0 0 249 98" fill="none" xmlns="http://www.w3.org/2000/svg">
<path d="M240.327 19.0366C240.332 18.8837 240.46 18.6863 240.492 18.51C240.629 17.7716 240.738 17.5074 240.884 16.8433C241.093 15.8585 241.479 12.8926 242.148 13.0133C242.148 13.0133 242.148 13.0133 242.148 13.0133C242.154 13.0145 242.161 13.016 242.167 13.0177C242.292 13.0507 242.386 13.3246 242.523 13.387C242.66 13.4493 243.59 13.5862 243.58 13.9471C243.558 14.4689 243.112 15.6537 243.078 15.9287C243.054 16.1164 243.101 16.3599 243.077 16.6008C243 17.3773 242.874 17.7707 242.996 18.4993C242.832 18.7578 242.669 19.0167 242.506 19.2763C242.507 19.647 242.266 20.1729 242.243 20.3948C242.224 20.5767 242.304 20.6965 242.281 20.8856C242.257 21.0977 242.107 21.4078 242.069 21.7949C242.006 22.4295 242.241 22.5758 242.222 22.9583C242.208 23.2349 242.098 23.6066 242.042 23.9803C242.019 24.1372 242.005 24.3005 242.013 24.4562C242.033 24.5228 242.053 24.5894 242.072 24.6559C242.14 24.6184 242.208 24.5808 242.276 24.5432C242.274 24.8005 242.133 24.8938 242.101 25.1266C242.065 25.4006 242.169 25.5555 242.145 25.74C242.126 25.8911 242.003 26.084 241.985 26.2808C241.958 26.5676 242.106 26.5225 242.113 26.6796C242.115 26.7422 242.051 27.8864 242.044 27.9505C241.988 28.438 241.791 28.4562 241.726 28.8422C241.544 29.9127 241.559 31.037 241.49 32.0399C241.459 32.4878 241.388 32.9501 241.301 33.3893C240.9 32.6282 240.318 34.1231 241.161 33.6447C241.01 34.0619 241.114 34.4012 241.08 34.7877C241.076 34.8362 241.069 34.8947 241.057 34.9545C240.996 35.255 240.864 35.4515 240.812 35.8845C240.722 36.6528 240.915 37.532 240.34 37.6814C240.319 38.5945 240.016 39.347 240.454 39.7367C240.452 39.973 240.084 40.5286 240.009 40.7832C239.939 41.0245 239.544 42.8928 239.491 43.1999C239.439 43.5073 239.353 44.0459 239.357 44.3118C239.361 44.6455 239.827 44.9483 239.156 45.4418C239.156 45.4477 239.155 45.4535 239.155 45.4593C239.107 46.1233 239.055 46.3638 238.894 46.9779C238.865 47.09 238.776 47.0898 238.766 47.1563C238.745 47.2933 238.774 47.5363 238.744 47.7821C238.694 48.1865 238.475 48.3867 238.76 48.3862C238.765 48.6589 238.768 48.9316 238.772 49.2045C238.703 49.2887 238.634 49.3729 238.565 49.4569C238.6 49.6082 238.634 49.7597 238.669 49.9112C238.295 49.6773 238.363 50.7132 238.649 50.4295C238.477 50.929 238.304 51.4273 238.128 51.9244C237.686 51.7703 237.868 53.0375 238.134 52.9843C238.122 53.0428 238.111 53.1013 238.1 53.1598C237.881 53.6496 237.89 54.1392 237.684 54.747C237.478 55.3542 237.445 55.2865 237.198 55.4331C237.18 55.5818 237.162 55.7306 237.144 55.8793C237.193 55.9841 237.222 56.0718 237.237 56.1473L237.24 56.1269C237.277 56.6987 236.871 56.7958 236.407 57.2782C236.251 57.4245 236.076 57.6266 235.8 57.898C235.67 57.8881 235.527 57.9034 235.373 57.9284C235.018 57.9917 234.577 58.0788 234.133 58.0747L234.082 58.0671C233.73 58.0278 233.385 57.924 233.114 57.8018C233.025 57.7607 232.984 57.8202 232.862 57.7622C232.839 57.7509 232.814 57.7369 232.788 57.7206L232.756 57.6952C232.509 57.5278 232.11 57.1137 231.99 57.2897C231.854 57.0886 231.718 56.8875 231.582 56.6864C231.408 56.5958 231.235 56.5051 231.062 56.4144C231.017 56.47 230.971 56.5257 230.926 56.5813C230.788 56.1467 230.265 55.8305 230.074 55.5942C230.036 55.547 230.09 55.4629 229.966 55.3237C229.822 55.1606 229.495 54.9251 229.318 54.7364C229.171 54.7563 229.024 54.7762 228.877 54.7961C228.487 54.5466 228.55 54.221 228.357 54.0305C228.323 53.9963 227.63 53.4431 227.59 53.4172C227.259 53.2036 227.185 53.4637 226.353 52.6972C226.205 52.5605 226.136 52.3906 225.998 52.2711C225.756 52.0598 224.89 51.5861 224.717 51.6742C224.562 51.2523 223.704 50.6524 223.51 50.4055C223.452 50.3307 223.528 50.208 223.329 50.0017C223.168 49.8343 222.639 49.5396 222.426 49.3367C222.201 49.1209 222.193 48.9578 222.092 48.8618C221.996 48.7712 221.841 48.7673 221.704 48.6516C221.277 48.2892 220.988 47.8442 220.651 47.5576C220.164 47.1429 219.546 46.999 219.054 46.7522C218.964 46.6526 218.904 46.5216 218.797 46.4316C218.367 46.0671 217.922 45.6837 217.473 45.2924C216.514 44.4456 215.619 43.51 214.826 42.6437C214.272 42.0448 213.181 40.32 213.076 41.1541C212.798 41.0267 211.601 39.3657 211.341 39.0841C211.08 38.8004 210.788 38.6599 210.579 38.4417C209.95 37.7879 209.568 37.2639 208.723 36.5611C208.506 36.3816 208.19 36.2657 208.075 36.1516C207.934 36.0123 207.868 35.7634 207.688 35.583C207.252 35.1408 206.375 34.4289 205.939 34.073C205.861 34.0076 205.905 33.8936 205.805 33.774C205.43 33.3115 204.874 33.009 204.788 33.3914C204.325 32.8639 203.637 32.8939 203.522 32.9688C203.509 32.9723 203.499 32.9762 203.489 32.9802C203.321 32.9893 202.854 33.5245 202.622 34.3981C202.375 35.246 202.282 36.1915 202.293 36.8108C202.317 37.6314 202.481 37.6141 202.275 38.8244C202.231 39.0938 202.178 39.3636 202.129 39.6943C202.015 40.4706 201.695 41.1869 202.06 41.7941C201.952 42.6692 202.013 43.3732 201.685 44.0255C201.76 44.104 201.835 44.1825 201.911 44.261C201.911 44.3691 201.911 44.4786 201.911 44.5877C201.837 44.6204 201.763 44.653 201.69 44.6856C201.656 45.4623 201.925 46.468 201.885 47.1395C201.854 47.6826 201.769 48.6377 201.593 49.6155C201.41 50.6148 201.206 51.6212 201.076 52.1497C200.942 52.6899 201.092 52.7429 200.727 53.0083C200.73 53.1341 200.734 53.2599 200.737 53.3857C200.795 53.473 200.853 53.5604 200.91 53.6478C200.805 54.3512 200.565 55.1671 200.457 55.8356C200.263 57.0538 200.143 58.9144 199.8 60.1128C199.714 60.4132 199.503 60.7698 199.45 61.0693C199.373 61.5052 199.59 61.6545 199.493 62.2083C199.324 63.1633 198.709 64.8819 198.551 65.7829C198.504 66.0507 198.566 66.1926 198.539 66.3786C198.495 66.6765 198.448 66.9528 198.405 67.2233L198.402 67.2403C198.293 67.8169 198.045 68.4896 197.454 69.0567C197.23 69.1766 197.039 69.2298 196.885 69.2536L196.905 69.2438C196.272 69.3101 196.205 69.0382 195.919 68.8607C195.62 68.71 195.099 68.158 195.107 67.9416C195.095 67.7988 195.257 67.6418 195.228 67.4823C195.555 67.4397 195.696 67.4106 195.963 67.3807L195.984 67.3705C196.091 67.3712 196.198 67.3848 196.345 67.3284C196.434 67.2126 196.508 67.0438 196.553 66.8303L196.55 66.8449C196.771 65.7301 196.985 64.6141 197.192 63.4968C197.299 63.3833 197.406 63.2697 197.513 63.1559C197.513 63.1559 197.513 63.156 197.513 63.156C197.712 62.6276 197.543 62.3559 197.55 62.0524C197.626 59.1499 198.912 53.6494 199.402 50.5254C199.442 50.2791 199.494 49.8268 199.552 49.3304C199.65 48.515 199.698 47.5328 199.8 47.2514C199.843 47.1346 199.974 47.107 199.986 46.9804C199.968 45.8444 199.912 44.6953 199.85 43.5461C200.088 41.1813 199.898 38.7203 200.138 36.2549C200.233 35.3529 200.366 34.4344 200.659 33.5046C200.966 32.6071 201.432 31.4327 202.78 30.919C204.738 30.4297 205.85 31.4662 206.882 32.1045C207.909 32.8398 208.794 33.6403 209.661 34.4643C211.377 36.1091 212.956 37.8341 214.534 39.5223C215.368 40.4182 216.507 41.4661 217.307 42.3259C217.642 42.6845 217.648 42.9793 218.226 43.2949C218.194 43.3409 218.161 43.3869 218.129 43.4329C218.344 43.5842 218.541 43.6965 218.729 43.8042C218.952 43.9315 219.179 44.0715 219.446 44.2865C219.87 44.6274 220.976 45.5446 221.33 45.8694C221.514 46.0376 221.376 46.0581 221.554 46.2068C221.86 46.4609 222.604 46.8959 223.024 47.2483C223.404 47.5675 223.969 48.1979 224.273 48.43C225.367 49.2665 226.629 50.0926 227.722 51.0711C228.024 51.3417 228.336 51.7801 228.435 51.8587C228.63 52.0119 228.771 51.9585 228.91 52.0524C229.612 52.53 230.521 53.4964 231.152 54.0334C232.045 54.7937 232.971 55.5622 233.9 56.3314L233.85 56.292C234.044 56.4336 234.227 56.5158 234.396 56.5481L234.276 56.5302C234.476 56.5461 234.636 56.521 234.788 56.4595C234.959 56.3893 235.101 56.2923 235.234 56.1538C235.322 56.0594 235.372 55.9661 235.407 55.7958L235.413 55.7669C235.447 55.6076 235.481 55.4488 235.515 55.2907C235.875 53.642 236.362 50.8818 236.712 49.3604C236.788 49.0324 236.915 49.1443 236.961 48.8656C237.012 48.5565 236.942 48.3735 236.958 48.2279C237.032 47.5242 237.17 46.2292 237.316 45.1932C237.385 44.7343 237.457 44.3335 237.529 44.0511C237.574 43.8732 237.705 43.7583 237.72 43.65C237.728 43.5952 237.67 43.4603 237.687 43.2872C237.838 41.7584 238.037 40.6569 238.265 39.1701C238.488 37.7054 238.668 36.113 238.845 34.5042C239.024 32.9769 239.207 31.4423 239.429 29.9868C239.529 29.3339 239.807 28.9126 239.817 28.8202C239.838 28.6174 239.705 28.4692 239.72 28.0551C239.768 26.7446 240.121 25.0377 240.227 23.7511C240.233 23.6796 240.239 23.6155 240.243 23.5527C240.29 22.9057 240.221 21.9973 240.268 21.3592C240.304 20.8494 240.552 19.6688 240.504 19.4331C240.474 19.2897 240.322 19.2027 240.327 19.0366ZM240.63 36.3297C240.383 36.2072 240.477 37.1783 240.661 36.842C240.702 36.7662 240.694 36.3614 240.63 36.3297ZM217.317 44.5825C217.274 44.6439 217.232 44.7054 217.189 44.767C217.307 44.8303 217.424 44.8918 217.541 44.9513C217.516 44.8709 217.491 44.7903 217.466 44.7093C217.417 44.6675 217.367 44.6252 217.317 44.5825Z" fill="black"/>
<path d="M143.882 40.3063C143.696 40.2704 143.464 40.1014 143.254 40.0356C142.364 39.7578 142.05 39.5954 141.281 39.3687C141.266 39.3644 141.25 39.3601 141.235 39.3558L141.107 39.3192C141.118 39.3225 141.125 39.3264 141.196 39.3452C141.251 39.3516 141.241 39.3817 141.564 39.3832C141.657 39.3755 141.786 39.3787 142.04 39.27C142.275 39.189 142.748 38.7683 142.785 38.2448C142.811 38.0011 142.766 37.8059 142.718 37.6711C142.671 37.5418 142.63 37.4742 142.59 37.4104C142.511 37.2895 142.453 37.2319 142.409 37.1871C142.24 37.0309 142.21 37.0311 142.171 37.0039C142.139 36.9843 142.123 36.9761 142.11 36.9695C142.086 36.9573 142.078 36.9539 142.075 36.9521C142.068 36.9493 142.07 36.9509 142.076 36.954C142.092 36.9616 142.102 36.9671 142.123 36.9768C142.16 36.9944 142.203 37.014 142.245 37.033C142.332 37.0724 142.432 37.1168 142.53 37.1596C142.735 37.2493 142.965 37.3478 143.206 37.4523C143.69 37.6615 144.22 37.8939 144.706 38.1285C145.674 38.5962 146.472 39.0753 146.339 39.3807C146.339 39.3807 146.339 39.3807 146.339 39.3807C146.336 39.3868 146.334 39.393 146.331 39.3993C146.267 39.512 145.924 39.5225 145.822 39.638C145.724 39.7549 145.397 40.6373 144.956 40.5119C144.321 40.3249 142.954 39.4963 142.626 39.3705C142.401 39.2848 142.094 39.2493 141.806 39.1445C141.681 39.0993 141.569 39.0568 141.46 39.0142C141.406 38.9933 141.35 38.9709 141.301 38.9509C141.275 38.9407 141.242 38.9271 141.219 38.9176C141.203 38.9107 141.184 38.9026 141.167 38.8948C141.156 38.8888 141.162 38.8965 141.071 38.8453C141.032 38.8077 141.035 38.8728 140.807 38.6028C140.776 38.5584 140.74 38.5049 140.702 38.4064C140.662 38.2984 140.619 38.1195 140.67 37.9039C140.717 37.6877 140.871 37.4948 141.001 37.405C141.133 37.3103 141.236 37.2811 141.309 37.2624C141.585 37.2124 141.605 37.2502 141.657 37.251C141.793 37.2788 141.777 37.2817 141.804 37.289L141.718 37.2643C142.32 37.392 142.769 37.5063 143.461 37.5225C143.768 37.737 144.085 37.9563 144.391 38.1734C144.856 38.2502 145.488 38.6063 145.76 38.6781C145.984 38.7373 146.142 38.6835 146.375 38.7481C146.638 38.8208 147.005 39.0392 147.481 39.1645C148.262 39.3699 148.471 39.1681 148.943 39.2733C149.433 39.3824 150.143 39.7308 150.78 39.8174C150.865 39.8125 150.949 39.8073 151.034 39.802C150.995 39.7262 150.957 39.6503 150.919 39.5743C151.236 39.6327 151.333 39.7931 151.616 39.8731C151.946 39.9663 152.15 39.8944 152.373 39.9538C152.558 40.0033 152.778 40.1618 153.019 40.2163C153.362 40.2938 153.327 40.139 153.517 40.1582C153.597 40.1738 154.963 40.3965 155.031 40.3975C155.406 40.4619 155.535 40.5648 155.699 40.6473C155.793 40.6885 155.902 40.7256 156.06 40.7483C157.393 40.9399 158.783 40.8854 160.024 40.8791C160.578 40.8767 161.155 40.9048 161.706 40.9441C160.823 41.4258 162.758 41.8369 162.041 41.0539C162.656 41.1695 163.092 40.9584 163.675 40.9842C164.018 40.999 164.267 41.0839 164.714 41.0832L164.701 41.0837C164.746 41.0831 164.793 41.0815 164.842 41.0789C165.799 41.0293 166.809 40.6381 167.133 41.1615C168.242 40.9641 169.236 41.0337 169.569 40.4954C169.849 40.4278 170.624 40.6037 170.952 40.5878C171.208 40.5823 172.862 40.3765 173.635 40.2343C173.795 40.2067 173.917 40.1839 173.982 40.1704C174.358 40.093 175.013 39.9363 175.314 39.809C175.695 39.6494 175.817 39.0938 176.679 39.4429C177.465 39.1407 177.75 39.0579 178.507 38.8474C178.644 38.8086 178.69 38.8844 178.768 38.8545C178.927 38.7926 179.173 38.6254 179.451 38.5011C179.907 38.2968 180.243 38.3465 180.078 38.1121C180.359 37.9357 180.637 37.7553 180.912 37.571C181.039 37.5703 181.166 37.5687 181.294 37.5664C181.425 37.4353 181.555 37.3034 181.684 37.1707C181.684 37.266 181.728 37.3076 181.792 37.3133L181.754 37.334C181.979 37.3743 182.238 36.8796 181.945 36.896C182.165 36.7669 182.369 36.5806 182.544 36.3324L182.535 36.3533C182.622 36.2355 182.678 36.1323 182.707 36.0267C182.875 36.0423 182.934 35.9381 182.88 35.804C182.83 35.6712 182.657 35.5399 182.5 35.4996C182.366 35.448 182.252 35.4395 182.22 35.5083C182.176 35.456 182.132 35.404 182.087 35.3526C181.779 34.8214 181.315 34.5034 180.795 33.9867C180.262 33.476 180.332 33.4917 180.262 33.1844C180.106 33.0971 179.948 33.0138 179.788 32.9345C179.61 32.94 179.479 32.9281 179.376 32.8996C178.838 32.764 179.032 32.0908 177.613 31.9281C177.299 31.4499 176.212 31.2169 175.374 31.1424C175.272 31.1323 175.174 31.1236 175.081 31.1156C174.981 31.1071 174.964 31.1763 174.83 31.1708C174.503 31.1525 173.702 30.9253 173.694 31.1595C173.423 31.0501 173.149 30.9454 172.871 30.8456C172.633 30.8596 172.396 30.8771 172.16 30.8981C172.154 30.9697 172.149 31.0413 172.144 31.1129C171.729 30.8443 171.047 30.8735 170.664 30.826L170.649 30.8254C170.622 30.8214 170.596 30.817 170.572 30.8121C170.499 30.7969 170.488 30.6968 170.26 30.6606C169.993 30.6173 169.492 30.6325 169.173 30.5978C169.047 30.7057 168.922 30.8142 168.798 30.9232C168.232 30.9809 168.029 30.6958 167.693 30.6796C167.632 30.6734 166.533 30.7336 166.474 30.7463C166.166 30.7938 166.117 30.9086 165.757 30.9955C165.553 31.0452 165.249 31.0859 164.742 31.1095C164.492 31.1212 164.282 31.0546 164.056 31.0729C163.656 31.1015 162.482 31.4327 162.413 31.6246C162.122 31.5315 161.578 31.5795 161.097 31.6428C160.738 31.6902 160.411 31.7424 160.245 31.741C160.127 31.7398 160.078 31.6027 159.72 31.6302C159.43 31.6519 158.713 31.8883 158.349 31.9338C157.962 31.981 157.804 31.8884 157.63 31.9115C157.466 31.9336 157.334 32.0564 157.114 32.0977C157.057 32.1081 157.001 32.1176 156.945 32.1262C156.327 32.222 155.738 32.2161 155.243 32.3271C154.462 32.5021 153.844 32.9528 153.232 33.2451C153.164 33.2552 153.094 33.258 153.024 33.2612C152.927 33.265 152.828 33.2697 152.731 33.296C151.414 33.6518 150.003 34.1133 148.643 34.6386L148.631 34.6435C147.888 34.9184 147.163 35.2166 146.477 35.5249C145.943 35.76 144.9 36.1481 144.335 36.5041C143.95 36.7444 143.793 36.9541 144.153 37.0429C143.908 37.2779 141.794 38.4735 141.467 38.8151C141.254 38.9992 141.103 39.1976 140.96 39.3811L140.971 39.3708C140.884 39.4869 140.802 39.5974 140.708 39.6969C140 40.4739 139.464 41.0258 138.936 42.204C138.869 42.3603 138.828 42.5368 138.795 42.6947C138.773 42.8283 138.754 42.9545 138.72 43.0362C138.637 43.2366 138.43 43.4158 138.34 43.694C138.103 44.349 138.013 45.6673 138.039 46.36C138.039 46.3938 138.031 46.4222 138.019 46.4492L138.019 46.4602C137.985 46.5363 137.918 46.6004 137.898 46.7397C137.789 47.4832 137.939 48.2982 138.285 48.0926C138.221 49.0301 138.642 49.801 138.977 50.5283C139.191 50.9966 139.493 51.5591 139.901 52.0997L139.891 52.0869C140.881 53.4146 142.441 54.5844 143.453 55.0103C143.99 55.245 144.233 55.2675 144.598 55.409L144.581 55.4013C144.837 55.4941 145.151 55.6412 145.693 55.9056C145.989 56.0491 146.285 56.1972 146.658 56.3536C147.525 56.7187 148.326 57.2232 149.115 56.998C149.929 57.2356 150.638 57.3089 151.275 57.5312C151.44 57.5884 151.602 57.6558 151.759 57.7383C151.863 57.6725 151.966 57.6065 152.068 57.5401C152.201 57.5518 152.334 57.5631 152.467 57.5738C152.502 57.6504 152.537 57.7269 152.571 57.8034C153.528 57.9141 154.762 57.691 155.57 57.7245C156.43 57.7657 158.153 57.8475 159.634 57.8704L159.621 57.8708C160.48 57.8773 161.256 57.878 161.733 57.8882C162.426 57.9022 162.453 57.7428 162.869 58.0382C163.022 58.0058 163.175 57.9731 163.328 57.9401C163.42 57.8632 163.511 57.7862 163.603 57.7091C164.486 57.6428 165.543 57.6606 166.384 57.5748C166.999 57.5126 167.734 57.4014 168.491 57.2804L168.481 57.2817C169.617 57.089 170.806 56.8848 171.738 56.8265C172.128 56.8025 172.632 56.8748 173.009 56.8163C173.558 56.731 173.655 56.4731 174.35 56.3598C175.051 56.2456 176.121 56.1675 177.114 56.0725C177.821 56.0055 178.489 55.9337 178.958 55.8432C179.293 55.7785 179.436 55.6628 179.666 55.6126C180.634 55.4012 181.436 55.2657 182.344 54.9603C183.387 55.0048 183.355 55.3124 183.72 55.5506C183.997 55.7302 184.817 56.1115 184.956 56.287C185.054 56.4106 184.818 56.6375 184.947 56.7694C183.763 57.1158 183.231 57.0754 182.213 57.04C180.619 57.3352 179.023 57.6214 177.426 57.9012C177.213 57.9388 176.999 57.9762 176.785 58.0132C176.605 57.9584 176.426 57.9033 176.247 57.8479C176.247 57.8477 176.247 57.8475 176.247 57.8473C175.534 57.8669 175.273 58.1267 174.904 58.235C173.361 58.6876 171.12 59.0655 168.752 59.3559L168.742 59.3572C165.665 59.7104 162.372 59.8076 160.097 59.8558C159.988 59.8584 159.849 59.8639 159.687 59.8709C158.541 59.919 156.294 59.9563 155.774 59.8093C155.62 59.7681 155.582 59.6373 155.417 59.6248C153.962 59.6391 152.503 59.6025 151.043 59.5075C151.023 59.5062 151.003 59.5048 150.983 59.5035C148.533 59.0476 146.002 58.5463 143.624 57.5395L143.614 57.5351C143.056 57.2904 142.51 57.0141 141.986 56.7024C140.548 55.85 139.239 54.7381 138.189 53.4152L138.181 53.4055C136.627 51.4146 135.999 48.9033 135.9 46.5387C135.808 44.9409 136.055 43.2484 136.761 41.7331C137.436 40.2954 138.368 38.9792 139.49 37.8721L139.5 37.8621C140.511 36.8877 141.63 36.0371 142.811 35.3089C143.009 35.1867 143.215 35.0614 143.428 34.9353C144.683 34.1864 146.178 33.3857 147.447 32.9257C147.614 32.8643 147.761 32.8273 147.9 32.7968L147.887 32.8018C148.259 32.7164 148.575 32.6732 149.118 32.3488C149.146 32.398 149.174 32.4472 149.202 32.4965C149.875 32.1755 150.285 31.8973 151.082 31.6328C151.387 31.5324 151.924 31.3669 152.481 31.2179C153.138 31.041 153.82 30.8745 154.15 30.8072C154.464 30.743 154.372 30.8722 154.662 30.8036C155.087 30.7018 155.912 30.4088 156.582 30.2492C156.692 30.2229 156.796 30.2003 156.893 30.1821C157.518 30.0629 158.592 29.998 159.069 29.9021C159.626 29.7893 160.197 29.6658 160.779 29.5439C162.008 29.2884 163.292 29.0668 164.567 28.9914C164.916 28.9706 165.336 29.0032 165.624 29.024C165.766 29.0341 165.876 29.0412 165.93 29.0367C166.249 29.0097 166.338 28.8738 166.553 28.8466C167.648 28.7033 169.363 28.8576 170.432 28.9155C170.535 28.9204 170.638 28.9256 170.741 28.9311L170.72 28.9302C172.373 28.9857 174.074 29.177 175.741 29.5556C177.32 29.9117 178.869 30.4711 180.273 31.2362C180.503 31.3613 180.728 31.4934 180.948 31.6323C181.896 32.2217 183.053 33.1671 183.968 34.3067L183.976 34.3168C184.595 34.967 184.803 36.3813 184.355 37.165L184.344 37.1887C183.973 37.9719 183.317 38.6134 182.69 38.9404L182.645 38.9653C182.545 39.0119 182.448 39.0561 182.354 39.0978C181.95 39.2756 181.992 39.0939 181.661 39.254C181.293 39.4296 181.131 39.6089 180.96 39.6948C179.789 40.3167 177.048 41.3867 175.806 41.5886C175.572 41.6324 175.376 41.5663 175.239 41.6018C175.169 41.6195 175.031 41.7343 174.813 41.7952C174.542 41.8711 174.279 41.9391 174.023 42.001C172.479 42.3736 171.189 42.5666 169.536 42.7663C168.035 42.945 166.434 43.1029 164.797 43.1928L164.787 43.1933C162.405 43.3 159.947 43.2714 157.649 43.0412C156.804 42.9569 156.249 42.6726 156.131 42.663C155.927 42.6452 155.771 42.7228 155.456 42.7452C155.365 42.7504 155.26 42.7502 155.134 42.7395C153.279 42.5712 151.069 41.7616 149.45 41.3816C148.651 41.1911 147.518 41.0553 146.735 40.8661C146.11 40.7152 144.68 40.2105 144.386 40.2116C144.205 40.2109 144.089 40.3459 143.882 40.3063ZM165.422 41.1735C165.326 41.442 166.49 41.1469 166.038 41.038C165.937 41.0143 165.447 41.105 165.422 41.1735ZM149.88 33.736C149.916 33.802 149.952 33.8679 149.987 33.9339C150.121 33.8519 150.256 33.7707 150.392 33.6903C150.295 33.677 150.198 33.6642 150.101 33.6517C150.027 33.6796 149.954 33.7077 149.88 33.736Z" fill="black"/>
<path d="M101.849 86.4002C101.823 86.5029 101.674 86.5979 101.619 86.7084C101.389 87.1706 101.249 87.3179 101.024 87.7288C100.905 87.9475 100.735 88.3363 100.538 88.7322L100.525 88.7605C100.284 89.2555 99.8044 89.8022 99.2836 90.0123C98.766 90.2288 98.3917 90.1306 98.3565 89.9239C98.3565 89.9239 98.3565 89.9239 98.3565 89.9239C98.3551 89.9174 98.354 89.9108 98.3531 89.904C98.3411 89.778 98.5239 89.5812 98.4969 89.4323C98.4692 89.2863 98.1601 88.4032 98.2022 88.3188C98.2555 88.2428 98.5401 88.1264 98.7087 87.896L98.7007 87.9132C98.7636 87.8199 98.8108 87.745 98.8276 87.7008C98.8742 87.578 98.8619 87.3956 98.9164 87.2362C99.0918 86.7222 99.2642 86.4891 99.2504 85.9493C99.4415 85.8211 99.6326 85.6928 99.8237 85.5646C99.8754 85.3091 100.18 85.0226 100.234 84.8778C100.279 84.759 100.221 84.6518 100.271 84.5293C100.326 84.3917 100.514 84.2262 100.609 83.9735C100.766 83.5595 100.567 83.385 100.646 83.1298C100.727 82.8651 101.027 82.5302 101.088 82.1736C101.081 82.1221 101.073 82.0706 101.066 82.0191C100.995 82.0224 100.925 82.0256 100.855 82.0289C100.9 81.8556 101.049 81.8385 101.117 81.6911C101.197 81.5177 101.125 81.379 101.178 81.2618C101.221 81.1658 101.369 81.0751 101.419 80.9479C101.492 80.7626 101.345 80.7449 101.364 80.6363C101.372 80.5932 101.622 79.8393 101.64 79.7982C101.772 79.4861 101.961 79.5377 102.086 79.2976C102.433 78.631 102.603 77.8643 102.831 77.2064C102.933 76.9127 103.074 76.622 103.228 76.3523C103.483 76.9978 104.272 76.1705 103.401 76.2239C103.641 75.9546 103.549 75.6472 103.713 75.3638C103.82 75.1806 103.977 75.0909 104.097 74.8148C104.308 74.3248 104.266 73.6671 104.833 73.7508C104.998 73.1387 105.402 72.7237 105.048 72.3197C105.086 72.16 105.52 71.8992 105.629 71.7495C105.733 71.6079 106.386 70.459 106.48 70.2653C106.574 70.0716 106.734 69.7306 106.768 69.5476C106.812 69.318 106.415 68.9678 107.119 68.8368C107.267 68.3868 107.35 68.2399 107.591 67.8671C107.634 67.7996 107.718 67.827 107.737 67.7846C107.775 67.6973 107.782 67.5226 107.844 67.3635C107.946 67.102 108.179 67.0305 107.909 66.9449C107.941 66.7568 107.972 66.5687 108.004 66.3806C108.08 66.3434 108.156 66.3061 108.232 66.2689C108.218 66.1546 108.204 66.0402 108.19 65.9259C108.515 66.1972 108.577 65.4638 108.272 65.5755C108.494 65.2821 108.716 64.9889 108.939 64.6955C109.342 64.9289 109.306 63.9979 109.047 63.9603C109.064 63.9229 109.081 63.8856 109.098 63.8483C109.356 63.5701 109.398 63.2278 109.65 62.8614C109.903 62.495 109.928 62.5508 110.176 62.5155C110.207 62.4164 110.237 62.3173 110.268 62.2183C109.952 61.4877 110.839 61.9848 110.803 60.9575C111.259 60.8359 111.377 60.0918 111.471 59.605C111.482 59.5484 111.417 59.5187 111.427 59.4413C111.453 59.2526 111.726 58.8627 111.509 58.7842C111.635 58.6633 111.761 58.5424 111.888 58.4215C111.903 58.2838 111.918 58.146 111.933 58.0083C111.867 57.9799 111.801 57.9514 111.736 57.923C112.067 57.7788 112.15 57.3583 112.287 57.1934C112.314 57.1607 112.408 57.1926 112.485 57.0869C112.574 56.9635 112.66 56.6976 112.76 56.5476C112.688 56.4401 112.615 56.3325 112.543 56.225C112.617 55.9104 112.927 55.9253 113.023 55.7638C113.04 55.7346 113.269 55.1658 113.277 55.133C113.341 54.866 113.085 54.8363 113.449 54.1427C113.514 54.0192 113.637 53.9507 113.691 53.837C113.787 53.6361 113.881 52.9453 113.738 52.8248C114.052 52.6687 114.26 51.9718 114.405 51.8036C114.449 51.753 114.585 51.7974 114.692 51.6293C114.78 51.4931 114.842 51.0705 114.941 50.8928C115.047 50.7045 115.187 50.6826 115.234 50.5978C115.278 50.5178 115.223 50.4019 115.274 50.2885C115.434 49.9355 115.718 49.6774 115.844 49.3985C115.847 49.3923 115.85 49.386 115.852 49.3798C116.024 48.9806 115.923 48.5158 115.956 48.1314C116.01 48.0548 116.103 47.9969 116.143 47.909C116.633 46.8214 117.224 45.6118 117.764 44.5421C118.014 44.0455 118.927 42.9391 118.185 43.0143C118.159 42.7919 118.965 41.6138 119.077 41.3712C119.188 41.1287 119.168 40.8881 119.251 40.6956C119.502 40.1146 119.759 39.7406 119.978 38.995C120.034 38.8022 119.994 38.5515 120.043 38.4443C120.103 38.3154 120.286 38.2295 120.368 38.0647C120.563 37.6716 120.853 36.9066 121.044 36.5313C121.079 36.4629 121.197 36.4855 121.275 36.3998C121.579 36.0663 121.761 35.623 121.385 35.5495C121.801 35.1339 121.829 34.5919 122.023 34.1225C122.436 33.1304 123.307 31.3762 123.542 30.457C123.69 29.8774 123.531 29.8234 124.014 29.0875C124.122 28.9241 124.239 28.766 124.368 28.5676C124.672 28.1028 125.159 27.7679 124.987 27.235C125.322 26.7174 125.455 26.2461 125.93 25.9621C125.881 25.8825 125.833 25.8028 125.785 25.7232C125.813 25.6542 125.841 25.5851 125.87 25.5161C125.946 25.5243 126.022 25.5325 126.098 25.5408C126.333 25.0596 126.333 24.3181 126.518 23.9049C126.829 23.2125 127.727 21.472 128.108 20.854C128.31 20.5258 128.176 20.4437 128.558 20.3737C128.572 20.2866 128.586 20.1994 128.601 20.1122C128.558 20.0349 128.515 19.9575 128.473 19.8801C128.668 19.4308 129.004 18.9434 129.192 18.5161C129.534 17.7371 129.875 16.4906 130.337 15.7608C130.453 15.5779 130.694 15.3918 130.778 15.1993C130.9 14.9193 130.71 14.7539 130.863 14.3978C131.126 13.7843 131.886 12.7604 132.122 12.1747C132.192 12.0007 132.146 11.8845 132.19 11.7623C132.329 11.3716 132.47 11.0438 132.568 10.6746C132.549 10.67 132.535 10.638 132.509 10.5876C132.765 10.3478 133.044 10.2746 133.334 10.1142C133.555 9.98274 134 9.48389 134.164 9.34481C134.286 9.25573 134.509 9.41347 134.641 9.30418C134.915 10.1121 134.854 10.5089 134.404 11.319C134.388 11.3667 134.369 11.4163 134.347 11.4655C133.96 12.3583 133.573 13.2526 133.186 14.1471C133.072 14.1967 132.958 14.2462 132.845 14.2958C132.845 14.2957 132.844 14.2956 132.844 14.2956C132.6 14.6089 132.731 14.8458 132.691 15.0557C132.313 17.066 130.391 20.5 129.455 22.4828C129.254 22.9101 128.735 24.3607 128.479 24.6019C128.413 24.6643 128.285 24.6333 128.244 24.7127C127.992 25.4732 127.739 26.2336 127.487 26.9939C126.639 28.4125 126.105 30.0301 125.465 31.5539C123.733 35.6767 122.037 39.7664 120.231 43.7768C119.882 44.5517 119.535 45.5775 119.142 46.3134C118.978 46.6206 118.73 46.6692 118.687 47.149C118.634 47.1308 118.581 47.1126 118.528 47.0944C118.429 47.4858 118.442 47.7699 118.274 48.1835C118.132 48.5317 117.738 49.4448 117.584 49.74C117.505 49.8933 117.435 49.7924 117.371 49.9395C117.359 49.9672 117.347 49.999 117.335 50.0342C117.238 50.3195 117.139 50.8257 117.003 51.1348C116.864 51.4493 116.52 51.9307 116.429 52.1796C116.101 53.0753 115.845 54.0956 115.392 55.0042C115.266 55.255 114.996 55.5298 114.964 55.6116C114.902 55.7716 115.002 55.8715 114.971 55.9837C114.813 56.553 114.301 57.3237 114.064 57.8454C113.29 59.5455 112.541 61.3783 111.766 63.0692C111.276 64.1374 110.506 65.9321 109.976 66.8838C109.862 67.089 109.755 66.9736 109.676 67.1531C109.588 67.3522 109.629 67.4995 109.595 67.5958C109.36 68.2623 108.819 69.7238 108.458 70.2915C108.389 70.3996 108.249 70.4378 108.218 70.5073C108.203 70.5424 108.238 70.6529 108.196 70.7663C107.829 71.7674 107.473 72.4585 107.025 73.4009C106.169 75.206 105.36 77.3793 104.437 79.2649C104.236 79.6758 103.904 79.8715 103.88 79.9312C103.827 80.0619 103.927 80.2054 103.845 80.4816C103.571 81.3992 102.904 82.5029 102.605 83.3589C102.458 83.7819 102.383 84.4197 102.242 84.8383C102.13 85.1727 101.725 85.899 101.738 86.0752C101.746 86.1822 101.877 86.2884 101.849 86.4002ZM104.342 74.5729C104.554 74.7356 104.623 74.0476 104.395 74.2162C104.344 74.2541 104.286 74.5308 104.342 74.5729ZM117.204 46.6325C117.133 46.608 117.063 46.5835 116.993 46.559C116.986 46.6504 116.979 46.7417 116.973 46.8331C117.033 46.8068 117.094 46.7805 117.154 46.7542C117.171 46.7136 117.187 46.673 117.204 46.6325Z" fill="black"/>
<path d="M92.1001 41.7275C92.0899 41.6201 92.1976 41.478 92.2116 41.3534C92.2708 40.8321 92.3512 40.6429 92.4202 40.1723C92.4569 39.9214 92.4807 39.4887 92.525 39.0416L92.526 39.0269C92.5572 38.7982 92.5561 38.6716 92.5814 38.5394C92.6088 38.4077 92.6186 38.2304 92.7677 38.074C92.7677 38.074 92.7677 38.0739 92.7677 38.0739C92.7724 38.0692 92.7772 38.0646 92.7822 38.0599C92.8747 37.9683 93.0684 37.9709 93.1978 37.9024C93.3253 37.8369 94.0505 37.2004 94.3096 37.5159C94.6071 37.8582 94.6545 38.7502 94.5337 39.1657C94.5078 39.2712 94.4894 39.3625 94.4891 39.4118C94.4886 39.5466 94.5639 39.7181 94.5683 39.8909C94.5824 40.4492 94.5006 40.735 94.6977 41.2507C94.5617 41.4423 94.4255 41.633 94.289 41.8237C94.3268 42.0884 94.1365 42.4705 94.1333 42.6292C94.1308 42.7592 94.2215 42.8424 94.2156 42.9782C94.2095 43.1299 94.0873 43.3545 94.0811 43.6311C94.0703 44.0851 94.3153 44.1854 94.3251 44.4591C94.3277 44.5358 94.3173 44.6212 94.3016 44.7144L94.3027 44.7003C94.2636 44.9567 94.1851 45.2599 94.2288 45.5302C94.2528 45.5778 94.2768 45.6255 94.3008 45.6734C94.3661 45.6458 94.4313 45.6182 94.4965 45.5906C94.5109 45.7764 94.376 45.8444 94.3593 46.0121C94.3393 46.2095 94.4517 46.3213 94.4388 46.4544C94.4282 46.5636 94.3168 46.7021 94.3091 46.8436C94.2972 47.0503 94.4422 47.0191 94.4573 47.1328C94.4641 47.178 94.4536 48.0043 94.4484 48.0506C94.4137 48.4022 94.2178 48.4098 94.1673 48.6864C94.0274 49.4531 94.0734 50.2645 94.0246 50.9865C94.0148 51.1335 93.9963 51.2823 93.9714 51.4304L93.9741 51.412C93.9467 51.5894 93.91 51.7657 93.8674 51.9364C93.4527 51.3642 92.9056 52.4098 93.7337 52.114C93.5706 52.451 93.7368 52.7344 93.6458 53.0643C93.5865 53.2773 93.4552 53.4088 93.4031 53.7176C93.3118 54.2645 93.4938 54.9223 92.9213 54.9709C92.8897 55.6285 92.5738 56.1351 92.9984 56.4698C92.9912 56.6413 92.6127 56.9975 92.5313 57.1711C92.4818 57.2785 92.277 57.8653 92.1169 58.3183C92.0307 58.564 91.9575 58.7705 91.9347 58.8458C91.87 59.0613 91.7564 59.438 91.7441 59.6318C91.7286 59.8733 92.164 60.1853 91.4729 60.4159C91.3692 60.9004 91.2967 61.0635 91.0815 61.474C91.0422 61.5483 90.9564 61.528 90.9402 61.5735C90.9069 61.6672 90.9105 61.849 90.8559 62.0192C90.766 62.2992 90.5328 62.3885 90.8077 62.4593C90.7821 62.6574 90.7546 62.8558 90.7251 63.0543C90.649 63.0973 90.5729 63.1398 90.4966 63.1821C90.5118 63.3007 90.5263 63.4196 90.5401 63.5388C90.2137 63.2678 90.1448 64.0321 90.4534 63.9088C90.2238 64.2225 89.989 64.5312 89.7492 64.8338C89.7066 64.8069 89.6684 64.7943 89.6345 64.7931C89.3561 64.7867 89.3485 65.5603 89.5747 65.6096C89.5537 65.6481 89.5326 65.6866 89.5113 65.7251C89.22 66.0032 89.1334 66.3596 88.8179 66.7163C88.5011 67.0698 88.4839 67.0064 88.2294 67.0085C88.1804 67.106 88.1306 67.203 88.08 67.2999C88.2328 68.1051 87.4784 67.4425 87.245 68.4812C86.7662 68.5009 86.4334 69.2006 86.1625 69.65C86.1316 69.7022 86.183 69.7516 86.1445 69.8245C86.1194 69.8715 86.0722 69.9268 86.0194 69.9849C85.8615 70.1552 85.6604 70.3366 85.7847 70.4517C85.6092 70.5246 85.4329 70.593 85.2564 70.6563C85.1745 70.7813 85.0898 70.9053 85.0021 71.0282C85.0473 71.084 85.0924 71.1398 85.1376 71.1956C84.7555 71.1893 84.4406 71.5306 84.2162 71.6073C84.172 71.6222 84.1095 71.5456 83.9783 71.5978C83.8253 71.6588 83.5823 71.8399 83.3985 71.9067C83.387 72.039 83.3731 72.1717 83.3571 72.3047C83.0702 72.5243 82.829 72.3167 82.637 72.3821C82.6042 72.3982 81.9979 72.6788 81.9648 72.6933C81.7065 72.8396 81.8744 73.0627 81.0282 73.2679C80.9555 73.2844 80.8844 73.2813 80.8153 73.2773C80.7397 73.2735 80.6671 73.2683 80.5954 73.2845C80.3573 73.3481 79.6374 73.6691 79.5906 73.848C79.2485 73.6779 78.4168 73.8029 78.1671 73.7193C78.0931 73.6962 78.0814 73.5553 77.8597 73.51C77.6812 73.4757 77.1996 73.5333 76.9726 73.4699C76.7329 73.405 76.6739 73.2673 76.5705 73.2352C76.4729 73.2044 76.3574 73.2756 76.2214 73.2381C76.0255 73.183 75.8501 73.0923 75.6895 72.9986C75.5053 72.8887 75.3437 72.7792 75.1806 72.7133C74.7433 72.536 74.2443 72.6253 73.8214 72.5596C73.7389 72.4985 73.6783 72.3993 73.5851 72.3508C72.7567 71.9195 71.9074 71.353 71.1528 70.7385L71.1317 70.7223C70.8458 70.4765 70.5707 70.2269 70.3109 69.98C69.8714 69.5795 69.1002 68.2895 68.9263 69.0224C68.6898 68.9648 67.8435 67.6996 67.6701 67.4802C67.5665 67.3596 67.4476 67.2769 67.3372 67.1972L67.3296 67.1882C67.2451 67.1262 67.1659 67.0665 67.104 66.9928C66.6783 66.4833 66.4519 66.0686 65.8821 65.4817C65.7349 65.33 65.4901 65.2294 65.4178 65.1269C65.3308 65.0034 65.3443 64.7939 65.2392 64.6296C65.043 64.3266 64.6847 63.8379 64.4375 63.4434C64.3716 63.3407 64.3096 63.2397 64.2617 63.1542C64.2228 63.0842 64.3067 62.9981 64.277 62.8821C64.1618 62.4306 63.8938 62.0136 63.6205 62.2827C63.5046 61.6855 63.0705 61.3317 62.7953 60.8783C62.2077 59.9234 61.3272 58.0847 60.7599 57.2768C60.6899 57.1786 60.6282 57.1025 60.5723 57.0373L60.5648 57.0218C60.3369 56.7499 60.2017 56.6689 60.0021 55.962C59.9474 55.7675 59.9036 55.5691 59.838 55.3332C59.6841 54.7798 59.7552 54.1811 59.2398 53.9375C59.0741 53.3232 58.8123 52.89 58.9225 52.3363C58.8306 52.3159 58.7387 52.2953 58.6468 52.2747C58.6149 52.2045 58.5831 52.1343 58.5513 52.064C58.6091 52.0135 58.6669 51.9629 58.7248 51.9124C58.5282 51.3978 57.9838 50.8657 57.8098 50.4311C57.7821 50.362 57.7511 50.2821 57.7177 50.1935C57.3991 49.3533 56.8698 47.7226 56.7144 47.0652C56.6224 46.6798 56.469 46.7155 56.689 46.3912C56.6369 46.3171 56.5849 46.243 56.5329 46.1688C56.4476 46.1424 56.3624 46.1159 56.2772 46.0893C56.0961 45.6186 55.9894 45.0203 55.8224 44.5703C55.68 44.1872 55.4667 43.7279 55.263 43.2576C55.0325 42.7205 54.8132 42.174 54.7207 41.7128C54.6774 41.4956 54.7221 41.1889 54.6485 40.9874C54.5416 40.694 54.2895 40.7032 54.1522 40.3314C53.9162 39.6904 53.7526 38.3984 53.5159 37.7974C53.4457 37.6189 53.3313 37.5647 53.2779 37.4432C53.0987 37.0375 52.9695 36.681 52.7682 36.3227C52.7053 36.2 52.6411 36.0672 52.5772 35.9188C52.6475 35.0309 53.0322 35.1018 53.3332 34.9185C53.455 34.8511 53.6707 34.7354 53.8835 34.6922C54.0962 34.6446 54.2956 34.6632 54.3901 34.6969C54.52 34.7497 54.6448 34.8965 54.7932 34.9445C54.8388 35.1565 54.6909 35.1826 54.6003 35.6391C54.6033 35.6474 54.6063 35.6558 54.6095 35.6643C54.9587 36.6193 55.3072 37.5722 55.6557 38.5251C55.6081 38.6412 55.5605 38.7574 55.5129 38.8735C55.5127 38.8735 55.5126 38.8736 55.5124 38.8737C55.5536 39.2776 55.813 39.3627 55.9305 39.5466C56.3952 40.2737 56.8384 41.3655 57.248 42.5467C57.8301 44.211 58.3784 46.0507 58.827 47.2823C58.9782 47.7019 59.5752 48.9443 59.6624 49.4075C59.6692 49.4442 59.6728 49.476 59.6726 49.5022C59.6717 49.5945 59.5609 49.6651 59.59 49.7514C59.967 50.474 60.3508 51.1923 60.7413 51.9059C61.1663 53.3508 61.9068 54.7108 62.5987 56.0562L62.594 56.0464C62.6747 56.1985 62.755 56.3503 62.8344 56.502C63.8804 58.4995 65.0307 60.4263 66.2594 62.2878C67.0652 63.5245 67.9812 64.6993 68.9393 65.8413L68.9318 65.8325C69.3893 66.3651 69.8656 66.8795 70.3599 67.3748C70.9435 67.9643 71.7896 68.5857 72.3905 69.1334L72.3671 69.1154C72.3721 69.1198 72.3771 69.1242 72.3821 69.1286C72.6337 69.3466 72.6299 69.6011 73.0825 69.7174C73.0555 69.7666 73.0285 69.8158 73.0016 69.865C73.363 70.0211 73.637 70.0415 74.0139 70.2413C74.3289 70.4168 75.1836 70.8269 75.4701 70.9627C75.6173 71.0362 75.5207 71.1092 75.6639 71.167C75.7993 71.2208 76.0363 71.2654 76.2783 71.3086C76.4578 71.3362 76.647 71.3619 76.7931 71.4001C77.0845 71.4819 77.5733 71.687 77.813 71.6886C78.6185 71.7117 79.447 71.4769 80.2616 71.2697C80.3192 71.2552 80.3762 71.2412 80.4332 71.2276C80.6848 71.1694 81.0448 71.1875 81.121 71.1548C81.2688 71.0922 81.2655 70.9519 81.357 70.8974C81.8227 70.6276 82.6301 70.3865 83.0769 70.0961C83.6725 69.7206 84.2332 69.2573 84.7414 68.7332L84.732 68.7429C85.4827 67.9515 86.1541 67.0802 86.7512 66.2032C87.1402 65.6372 87.625 64.8029 88.0317 64.0091C88.2948 63.4903 88.5375 62.988 88.7374 62.6111C88.8459 62.4057 88.9557 62.5174 89.0293 62.3362C89.1105 62.135 89.0623 61.99 89.0916 61.893C89.3026 61.2229 89.6978 59.7321 89.9694 59.1222C90.0228 59.0068 90.1566 58.9492 90.1767 58.8762C90.1871 58.8394 90.1363 58.735 90.1605 58.6173C90.2151 58.3504 90.2692 58.1032 90.3239 57.8659C90.484 57.1693 90.6593 56.5606 90.8461 55.8008C91.2026 54.3489 91.4367 52.6928 91.656 51.0847L91.658 51.0714C91.7428 50.5101 91.8287 49.9547 91.9217 49.4148C92.0001 48.9595 92.2604 48.6724 92.2663 48.6074C92.2793 48.4648 92.1416 48.3559 92.1385 48.0649C92.1309 47.0986 92.4131 45.8289 92.4021 44.9133C92.4011 44.8072 92.392 44.6912 92.3784 44.5704L92.3795 44.5552C92.3415 44.1555 92.2586 43.7014 92.2533 43.3577C92.2481 42.9992 92.3865 42.1634 92.3143 41.9996C92.2708 41.9004 92.1121 41.8434 92.1001 41.7275ZM93.2203 54.0232C92.9771 53.9125 93.0635 54.6216 93.2478 54.3964C93.2896 54.3455 93.2837 54.0518 93.2203 54.0232ZM72.3307 71.0968C72.2956 71.1625 72.2606 71.2282 72.2256 71.294C72.3199 71.3184 72.4144 71.342 72.5087 71.3646C72.4885 71.2994 72.4689 71.2342 72.4497 71.1689C72.4099 71.145 72.3703 71.121 72.3307 71.0968Z" fill="black"/>
<path d="M8.66653 38.305C8.55437 38.3525 8.36763 38.3003 8.22892 38.3312C7.65018 38.4589 7.42022 38.4501 6.89131 38.5512C6.10669 38.6991 3.85097 39.449 3.67954 38.797C3.67954 38.797 3.67953 38.797 3.67953 38.797C3.67776 38.7906 3.67595 38.7841 3.67417 38.7776C3.63973 38.6535 3.80455 38.4621 3.79158 38.3146C3.78434 38.1656 3.50882 37.2659 3.77352 37.1383C4.15716 36.9602 5.18857 36.9297 5.39988 36.862C5.54232 36.8159 5.70292 36.6841 5.8865 36.6192C6.4812 36.4092 6.81264 36.3859 7.30156 36.0176C7.5516 36.0786 7.80179 36.1399 8.05145 36.2018C8.32184 36.0732 8.79959 36.1184 8.9687 36.067C9.11272 36.0234 9.16952 35.9095 9.31991 35.8678C9.48793 35.8207 9.76596 35.8601 10.0724 35.7724C10.5749 35.631 10.6041 35.3665 10.936 35.271C10.9833 35.2581 11.0325 35.2482 11.0826 35.2408C11.3907 35.1959 11.8204 35.2233 12.1561 35.0905C12.2016 35.0551 12.2473 35.0195 12.2928 34.984C12.247 34.9278 12.2011 34.8716 12.1553 34.8154C12.3512 34.7541 12.4582 34.8671 12.643 34.8393C12.8605 34.8065 12.9512 34.6678 13.0972 34.6443C13.2169 34.625 13.3949 34.6947 13.549 34.6627C13.7735 34.6165 13.7008 34.4854 13.8179 34.439C13.8648 34.421 14.7476 34.1916 14.7979 34.1815C15.1168 34.1218 15.2164 34.2395 15.4191 34.2596C15.4606 34.2636 15.5065 34.2636 15.5593 34.2573C16.4298 34.1534 17.2925 33.8572 18.0871 33.6794C18.4416 33.5999 18.8177 33.5572 19.1799 33.5383C18.6863 34.1063 19.9808 34.3166 19.4114 33.6131C19.6443 33.6441 19.8265 33.58 20.0102 33.5158C20.1577 33.4656 20.3057 33.4161 20.4779 33.412C20.7339 33.4066 20.9195 33.4945 21.2804 33.4602C21.9171 33.3977 22.6206 33.0661 22.8207 33.6138C23.5738 33.4951 24.2187 33.7169 24.5146 33.2428C24.5577 33.2383 24.6149 33.2495 24.6797 33.2706C24.9142 33.3455 25.2501 33.5549 25.4195 33.6017C25.6295 33.6386 27.1985 34.0007 27.4473 34.083C27.7025 34.1436 28.1454 34.2618 28.37 34.2815C28.5717 34.2984 28.8028 34.0828 29.0313 34.2289C29.1245 34.2874 29.2168 34.4022 29.2956 34.6077C29.8704 34.7737 30.0642 34.8826 30.5207 35.1996C30.6029 35.2583 30.5698 35.3405 30.6202 35.3688C30.7236 35.4268 30.932 35.4732 31.1166 35.5821C31.4208 35.7621 31.4718 36.0319 31.6047 35.7794C31.8222 35.8768 32.0374 35.9826 32.2493 36.0958C32.2787 36.1904 32.3062 36.2847 32.3324 36.3791C32.4648 36.415 32.5976 36.454 32.7299 36.4955C32.57 36.5793 32.6169 36.6994 32.7193 36.7864L32.7281 36.795C32.8763 36.9241 33.1444 37.015 33.1224 36.7893C33.3992 37.2079 33.6318 37.6627 33.7921 38.1385C33.3755 38.2834 34.1668 39.1263 34.3643 38.9979C34.3812 39.0549 34.3971 39.1122 34.4119 39.1697C34.4195 39.4776 34.4706 39.7517 34.4974 40.054C34.5153 40.26 34.5243 40.4799 34.4896 40.7228C34.3987 41.2947 34.3423 41.2357 34.1194 41.386C34.1202 41.5155 34.1177 41.6451 34.112 41.7748C34.5671 42.553 33.6452 42.2395 33.7243 43.4255C33.7276 43.4199 33.7278 43.4236 33.728 43.4273C33.2724 43.6554 33.1302 44.5195 32.9428 45.0934C32.9221 45.1598 32.9845 45.1946 32.9598 45.2857C32.901 45.5113 32.5243 45.9506 32.727 46.0561C32.5636 46.1899 32.3982 46.3182 32.2309 46.4415C32.2174 46.478 32.2037 46.5144 32.1898 46.5509C32.1476 46.6661 32.103 46.7831 32.0572 46.9001C32.1156 46.9418 32.1741 46.9835 32.2325 47.0252C31.8467 47.141 31.6135 47.5945 31.4081 47.751C31.3675 47.7818 31.2845 47.7276 31.1655 47.8279C31.0265 47.945 30.8291 48.2165 30.6607 48.3534C30.6854 48.4888 30.7081 48.6253 30.7291 48.7626C30.5737 48.9851 30.3793 49.0056 30.2176 49.0399C30.1457 49.0526 30.0783 49.0708 30.0233 49.1143C29.9935 49.1403 29.485 49.6531 29.4595 49.683C29.2584 49.9342 29.4968 50.0607 28.7671 50.6367C28.6366 50.7385 28.4799 50.7613 28.3648 50.8555C28.1635 51.0232 27.6748 51.677 27.736 51.8552C27.3469 51.8851 26.7268 52.4815 26.4839 52.5796C26.4109 52.6092 26.3121 52.5057 26.1067 52.6194C25.9407 52.7117 25.6124 53.0888 25.4041 53.2103C25.3155 53.2622 25.2393 53.2854 25.1736 53.2984C25.0763 53.3181 24.996 53.3175 24.9277 53.3562C24.8355 53.407 24.7858 53.5528 24.6629 53.627C24.2561 53.8699 23.8195 53.9339 23.4998 54.106C23.0421 54.351 22.7745 54.815 22.4466 55.1285C22.3433 55.1612 22.2187 55.1564 22.1191 55.207C20.8777 55.8355 19.4499 56.4777 18.1721 57.0234C17.5769 57.28 15.9661 57.609 16.6276 58.0139C16.474 58.2135 14.8794 58.6655 14.5938 58.7877C14.3044 58.9144 14.1353 59.1174 13.8998 59.2221C13.8831 59.2295 13.8668 59.2367 13.8509 59.2436L13.964 57.2697C14.518 57.5842 14.9214 57.8692 15.7187 58.1029C15.9322 58.1647 16.2002 58.1241 16.3217 58.1738C16.4651 58.233 16.5772 58.4193 16.7656 58.4992C17.2158 58.6915 18.1027 58.9521 18.5508 59.1229C18.6324 59.1546 18.6247 59.2753 18.7326 59.3491C19.1525 59.6371 19.6829 59.7922 19.7031 59.4068C20.2386 59.7999 20.8565 59.7907 21.4232 59.959C22.622 60.3074 24.7829 61.1348 25.9037 61.4989C26.0016 61.5288 26.0865 61.5521 26.1628 61.5715C26.6005 61.672 26.735 61.6214 27.4494 62.0741C27.6348 62.1904 27.8141 62.3149 28.0419 62.4522C28.5719 62.7729 28.9922 63.2713 29.5694 63.0941C30.1802 63.4327 30.7281 63.5619 31.1062 64.0435C31.1906 63.9934 31.2754 63.9434 31.3599 63.8933C31.4415 63.9218 31.5233 63.9504 31.6056 63.9792C31.6054 64.057 31.6049 64.1347 31.6046 64.2125C32.1792 64.4485 33.0288 64.4546 33.524 64.657C33.905 64.8115 34.5486 65.1036 35.2025 65.4312C35.9427 65.7971 36.7122 66.1782 37.1063 66.3956C37.4919 66.6085 37.5721 66.4718 37.6855 66.8632C37.7841 66.8786 37.8848 66.8947 37.9837 66.9099C38.0662 66.867 38.1498 66.8245 38.2326 66.7817C38.7555 66.9857 39.3397 67.3298 39.8428 67.5234C40.7587 67.8749 42.2133 68.2321 43.0902 68.7256C43.3078 68.8481 43.544 69.1011 43.7689 69.1919C44.0027 69.2865 44.1531 69.2191 44.3731 69.2324C44.4671 69.2388 44.5712 69.2585 44.6913 69.3075C45.4125 69.5987 46.6529 70.4512 47.3263 70.7846C47.5261 70.8802 47.658 70.8483 47.7949 70.9088C48.3666 71.1616 48.8041 71.3904 49.397 71.5205C49.8664 71.9989 49.6938 72.2442 49.7509 72.6022C49.7883 72.8697 49.9938 73.541 49.9776 73.7513C49.9639 73.8982 49.7263 73.9874 49.7241 74.155C48.9603 73.9419 48.7139 73.6777 48.2337 73.2056C47.1474 72.6913 46.1697 72.1386 45.1322 71.7004C45.0725 71.582 45.0104 71.4629 44.9494 71.3447C44.9495 71.3445 44.9496 71.3444 44.9496 71.3442C44.586 71.0798 44.3212 71.2026 44.0888 71.1573C43.9327 71.1247 43.7877 71.0932 43.6164 71.0477C41.2976 70.4301 37.5636 68.714 35.377 67.7282C35.1786 67.6404 34.7892 67.4927 34.3769 67.3276C33.7599 67.0744 33.0931 66.8094 32.9153 66.6494C32.8412 66.5811 32.8632 66.4506 32.7707 66.4074C31.8963 66.139 31.0145 65.8922 30.1233 65.6422C28.5654 64.8717 26.8296 64.319 25.2024 63.5898C25.0582 63.5262 24.9071 63.4614 24.7609 63.3999C21.0171 61.8466 16.8104 61.2656 12.8902 59.1286L11.1007 58.1499L12.9965 57.2742C13.8386 56.903 14.7106 56.4983 15.5639 56.1051C16.4519 55.6957 17.5307 55.0724 18.4171 54.7092C18.7873 54.5573 19.028 54.6707 19.4301 54.2993C19.4599 54.3469 19.4896 54.3946 19.5194 54.4422C19.9 54.1782 20.1044 53.9341 20.5553 53.6915C20.9365 53.4884 21.9408 52.9591 22.2817 52.7981C22.4581 52.7156 22.4464 52.8405 22.6056 52.7537C22.8796 52.6038 23.3929 52.1532 23.7287 51.9437C23.8386 51.8758 23.9736 51.8061 24.0906 51.7454C24.3858 51.5833 24.7007 51.4179 24.8532 51.2926C25.6864 50.6115 26.4841 49.7501 27.3676 49.0373C27.6124 48.8412 28.0027 48.6693 28.0728 48.5993C28.2095 48.4629 28.1616 48.3273 28.2441 48.2269C28.3995 48.0379 28.6119 47.8371 28.8399 47.6338C29.208 47.3112 29.6094 46.9566 29.8617 46.6579C30.1649 46.3006 30.4558 45.9189 30.7347 45.5209C31.3166 44.6977 31.777 43.7963 32.0803 42.868L32.0858 42.8522C32.2566 42.3575 32.3742 41.8607 32.435 41.3717C32.4764 41.0421 32.4919 40.648 32.4569 40.2332C32.4088 39.4271 31.9488 38.6393 31.4474 38.0957L31.4588 38.1067C31.3825 38.0244 31.31 37.9472 31.2418 37.8748C31.0733 37.6983 31.2158 37.6311 31.0559 37.4984C30.8769 37.3528 30.7185 37.3573 30.6291 37.3012C30.1368 36.9756 29.1167 36.4924 28.3813 36.2516C28.187 36.1829 28.015 36.1201 27.8812 36.0621C27.7552 36.0072 27.6873 35.8729 27.6069 35.8529C27.5663 35.8426 27.4564 35.8943 27.3277 35.8723C26.3096 35.7042 25.5383 35.5797 24.5686 35.5025C24.4505 35.4935 24.3324 35.4854 24.2111 35.4785C22.9845 35.4078 21.6375 35.5092 20.2958 35.7055C19.1968 35.8658 18.0946 36.0372 17.0356 36.1742C16.5165 36.2413 16.1247 36.0822 16.0522 36.0968C15.9519 36.1169 15.8843 36.1905 15.7685 36.2654C15.7002 36.3092 15.6153 36.3534 15.4976 36.3876C14.4331 36.6965 12.9432 36.782 11.9203 37.0205C11.7563 37.0588 11.5746 37.1161 11.3869 37.18C11.0773 37.3025 10.669 37.497 10.354 37.6001C9.97523 37.7227 9.03918 37.8813 8.88767 38.0072C8.79387 38.0834 8.78737 38.2529 8.66653 38.305ZM21.6748 33.5551C21.6181 33.8173 22.3892 33.5552 22.0869 33.4331C22.0181 33.4049 21.6891 33.4859 21.6748 33.5551ZM20.2562 55.6373C20.2954 55.7007 20.3346 55.7641 20.3739 55.8275C20.4504 55.755 20.5265 55.6827 20.6022 55.6104C20.532 55.5956 20.4617 55.5807 20.3914 55.5659C20.3464 55.5897 20.3012 55.6136 20.2562 55.6373ZM2.82135 40.8076C2.78597 40.7595 2.85246 40.6528 2.83621 40.5891C2.77169 40.3296 2.79672 40.1937 2.75445 39.9505C2.68774 39.5781 2.20845 38.5635 2.85309 38.3597C2.85311 38.3597 2.85312 38.3597 2.85314 38.3597C2.85942 38.3576 2.8658 38.3555 2.87228 38.3535C2.99527 38.3153 3.15703 38.3547 3.29941 38.3212C3.44188 38.2877 4.32849 37.974 4.42172 38.0844C4.55227 38.2525 4.47354 38.7706 4.5144 38.8576C4.54366 38.9208 4.65256 38.9756 4.69679 39.0586C4.83735 39.3201 4.82569 39.48 5.13137 39.6577C5.04834 39.7936 4.96595 39.9314 4.88416 40.071C4.98304 40.1855 4.89663 40.4326 4.93128 40.5069C4.95997 40.5685 5.06444 40.5751 5.09174 40.6414C5.12232 40.7139 5.06592 40.8724 5.12549 40.9987C5.22498 41.2125 5.47803 41.1724 5.55484 41.2986C5.63618 41.4347 5.57685 41.6862 5.72273 41.8391C5.75669 41.8527 5.79067 41.8663 5.82466 41.88C5.87859 41.8436 5.93254 41.8072 5.9865 41.7708C6.04504 41.852 5.93655 41.9328 5.96303 42.0178C5.99327 42.1154 6.12524 42.1244 6.14687 42.1897C6.16444 42.243 6.09648 42.347 6.12602 42.4148C6.16865 42.5139 6.29484 42.4462 6.33859 42.4927C6.35652 42.5135 6.56629 42.8878 6.57514 42.9103C6.63913 43.081 6.46128 43.1587 6.49259 43.3031C6.57802 43.6972 6.86142 44.045 7.03617 44.3751C7.11468 44.5239 7.16073 44.6941 7.18498 44.8613C6.63248 44.774 6.45358 45.4439 7.11725 44.9903C7.07224 45.2 7.3124 45.2568 7.33563 45.4348C7.35054 45.5502 7.27419 45.6592 7.32875 45.8108C7.42626 46.0798 7.81717 46.2813 7.32124 46.5364C7.52157 46.8234 7.42639 47.1651 7.9267 47.1236C7.98281 47.1962 7.77985 47.5004 7.77394 47.6054C7.76846 47.7046 7.87236 48.4173 7.90264 48.5291C7.933 48.6411 7.99045 48.8349 8.06246 48.914C8.15199 49.0132 8.65784 48.932 8.16878 49.3283C8.29541 49.5525 8.30854 49.6437 8.3196 49.8897C8.3216 49.9342 8.24014 49.9669 8.24809 49.9906C8.26462 50.0393 8.35407 50.1012 8.39097 50.1853C8.45158 50.3236 8.30433 50.4637 8.56582 50.3574C8.64274 50.4371 8.71959 50.5165 8.79635 50.5957C8.75608 50.6463 8.71581 50.6968 8.67552 50.7473C8.74872 50.7786 8.8219 50.8098 8.89506 50.841C8.48902 50.9133 8.8364 51.1883 9.01916 50.9988C9.00136 51.2088 8.984 51.4203 8.96571 51.629C8.5182 51.7523 9.05048 52.0456 9.2773 51.9299C9.2841 51.9511 9.29088 51.9722 9.29766 51.9934C9.24345 52.2171 9.3952 52.3511 9.39212 52.5997C9.39019 52.8517 9.34008 52.8444 9.16127 52.9809C9.19063 53.0296 9.21993 53.0781 9.24917 53.1264C9.89471 53.211 8.92134 53.4907 9.50523 53.818C9.20663 54.0815 9.51786 54.3998 9.70491 54.6057C9.7267 54.6298 9.79441 54.6075 9.82789 54.6379C9.90893 54.7127 9.90437 54.9858 10.1191 54.9029C10.084 55.0069 10.0485 55.1101 10.0128 55.2124C10.0747 55.2649 10.1368 55.3184 10.1998 55.3746C10.2677 55.3513 10.3356 55.328 10.4036 55.3048C10.2186 55.5218 10.3791 55.704 10.358 55.8248C10.3539 55.8496 10.2606 55.8827 10.2578 55.9593C10.2538 56.048 10.3299 56.1822 10.3306 56.2816C10.4463 56.2816 10.562 56.2814 10.6775 56.281C10.7858 56.4164 10.5343 56.577 10.5444 56.6779C10.5475 56.6995 10.6684 56.9948 10.6814 57.0143C10.7754 57.1409 10.9968 57.0248 11.0787 57.4372C11.0943 57.5143 11.0327 57.5996 11.0507 57.6645C11.0797 57.771 11.382 58.0679 11.5584 58.0319C11.5339 58.0614 11.5172 58.0932 11.5064 58.1262C11.4443 58.322 11.5956 58.5849 11.5746 58.6951C11.5669 58.7341 11.4343 58.7873 11.4396 58.8974C11.4438 58.9867 11.623 59.1595 11.64 59.2688C11.6575 59.385 11.5573 59.4626 11.566 59.5144C11.5743 59.5633 11.6803 59.5749 11.7013 59.6383C11.7651 59.8365 11.6785 60.0652 11.7288 60.222C11.8013 60.4488 12.1401 60.5556 12.3246 60.7031C12.323 60.7559 12.2805 60.8217 12.2967 60.8709C12.495 61.4806 12.6789 62.1821 12.8292 62.8103C12.8992 63.1019 12.7725 63.9303 13.3215 63.5325C13.4625 63.5937 13.4602 64.392 13.5032 64.529C13.5461 64.6659 13.6931 64.7356 13.7313 64.8417C13.8468 65.1617 13.8456 65.4156 14.0763 65.7741C14.1362 65.8666 14.3037 65.93 14.3229 65.9904C14.3456 66.0633 14.2465 66.1843 14.2707 66.2805C14.3295 66.5095 14.5143 66.9102 14.5664 67.1313C14.5756 67.1718 14.4698 67.2237 14.4546 67.2914C14.3947 67.5554 14.4907 67.7949 14.8287 67.6296C14.7247 67.9773 14.9967 68.1716 15.0974 68.4256C15.1992 68.6837 15.3127 69.0537 15.438 69.4153C15.5731 69.7954 15.7258 70.1746 15.8907 70.3921C16.0911 70.6561 16.2457 70.5915 16.2681 71.0782C16.2732 71.1862 16.2676 71.2976 16.2745 71.4285C16.2902 71.7352 16.0921 72.0948 16.5192 72.1771C16.5406 72.5168 16.6946 72.737 16.4791 73.0746C16.5608 73.0749 16.6424 73.0753 16.724 73.0756C16.7397 73.1125 16.7553 73.1494 16.7709 73.1862C16.7068 73.2232 16.6427 73.2602 16.5786 73.2972C16.6596 73.5732 17.0672 73.81 17.1497 74.0381C17.288 74.4205 17.547 75.4424 17.5918 75.8382C17.6154 76.0483 17.7654 76.0033 17.5067 76.2268C17.5439 76.2618 17.581 76.2967 17.6182 76.3316C17.6941 76.3335 17.77 76.3354 17.8459 76.3372C17.9418 76.5819 17.9508 76.9121 18.0414 77.1457C18.2064 77.5714 18.6331 78.1411 18.6803 78.6141C18.6919 78.7328 18.6087 78.9192 18.6511 79.0235C18.7125 79.1754 18.9512 79.1252 19.0309 79.3171C19.1676 79.6479 19.1511 80.3711 19.2954 80.6784C19.3063 80.7016 19.3208 80.7196 19.3371 80.7345L19.3312 80.72C19.3735 80.7477 19.4313 80.7504 19.4521 80.7776C19.5671 80.9251 19.6489 81.0381 19.8081 80.9955C19.7264 81.2281 19.5819 81.4854 19.4912 81.7795C19.4108 82.0006 19.4457 82.5819 19.4469 82.7856C19.4384 82.9291 19.2665 83.063 19.2636 83.2232C18.6452 83.1366 18.442 82.8004 18.2972 82.3446C18.0163 82.0499 17.8278 81.7206 17.6901 81.4012L17.6843 81.3869C17.5815 81.138 17.4789 80.889 17.3766 80.6399C17.4367 80.5634 17.4967 80.487 17.5568 80.4106C17.557 80.4105 17.5571 80.4105 17.5573 80.4104C17.5716 80.1817 17.3386 80.1783 17.2522 80.0916C16.4234 79.2622 16.008 77.1551 15.6429 76.0309C15.5635 75.7887 15.1674 75.0523 15.2342 74.8409C15.2516 74.7861 15.3683 74.7293 15.3568 74.6822C15.1349 74.3062 14.9136 73.9297 14.693 73.5527C14.5761 72.6536 14.108 71.8519 13.7774 71.0236C13.6576 70.7237 13.5381 70.4241 13.4192 70.1247C12.6639 68.1789 11.9221 66.2536 11.2821 64.3056C11.1395 63.8708 10.8598 63.3529 10.774 62.9089C10.738 62.7237 10.9092 62.5829 10.6835 62.4005C10.7355 62.38 10.7876 62.3595 10.8397 62.339C10.7066 62.1581 10.5419 62.0696 10.4521 61.8463C10.3767 61.6583 10.1961 61.1543 10.1588 60.9782C10.139 60.887 10.249 60.886 10.2207 60.8043C10.1714 60.6648 9.93283 60.4119 9.86711 60.2185C9.80757 60.0433 9.82123 59.7093 9.75902 59.5802C9.64325 59.339 9.49391 59.0961 9.35889 58.8438C9.23748 58.6151 9.12426 58.3675 9.062 58.108C9.02616 57.9577 9.09629 57.7402 9.07669 57.6935C9.03961 57.6075 8.9054 57.621 8.86932 57.5666C8.69172 57.3052 8.68352 56.7896 8.58877 56.4885C8.28911 55.5344 7.89387 54.5443 7.59596 53.589C7.40689 52.983 7.04848 51.998 6.9546 51.4134C6.93445 51.2875 7.08173 51.273 7.04773 51.1728C7.00997 51.0616 6.89724 51.0324 6.87208 50.9828C6.69863 50.6433 6.33607 49.8818 6.31511 49.5108C6.31123 49.44 6.40223 49.3567 6.38875 49.3183C6.38212 49.2988 6.29414 49.2795 6.26584 49.2207C6.01569 48.7013 5.92371 48.2911 5.76821 47.7517C5.46976 46.7186 4.93268 45.5854 4.6423 44.4913C4.57887 44.2526 4.73707 44.024 4.72364 43.9915C4.69461 43.9202 4.53644 43.9219 4.45157 43.7878C4.17301 43.348 4.10161 42.6406 3.87356 42.2043C3.76384 41.9972 3.47196 41.7316 3.35873 41.5298C3.26436 41.3572 3.19328 40.916 3.08687 40.8632C3.02214 40.8301 2.86052 40.8596 2.82135 40.8076ZM7.26545 46.0142C7.00858 46.0659 7.32698 46.3314 7.41627 46.1608C7.43635 46.1223 7.33209 46.0007 7.26545 46.0142ZM12.1431 61.83C12.2123 61.8029 12.2815 61.7759 12.3507 61.7488C12.3065 61.715 12.2623 61.6811 12.2181 61.6472C12.1843 61.6862 12.1505 61.7253 12.1167 61.7644C12.1255 61.7863 12.1343 61.8081 12.1431 61.83ZM0.696888 33.9091C0.677914 33.9083 0.768857 33.8727 0.771759 33.8644C0.784904 33.8293 0.846488 33.7996 0.875552 33.7628C0.918741 33.7082 0.762425 33.6294 1.41099 33.4393C1.41101 33.4393 1.41102 33.4393 1.41104 33.4393C1.4174 33.4375 1.42383 33.4356 1.43035 33.4337C1.55402 33.3979 1.69177 33.3682 1.83193 33.3287C1.97215 33.2892 2.87428 33.0237 2.92908 33.0227C3.00183 33.0232 2.78456 33.1392 2.79795 33.1469C2.80717 33.1522 2.89185 33.1372 2.90916 33.1423C2.96496 33.1587 2.9096 33.1921 3.14043 33.1541C3.02618 33.1993 2.91193 33.2446 2.79768 33.2899C2.8563 33.2882 2.70772 33.3551 2.71878 33.3612C2.72787 33.3663 2.82195 33.3432 2.82843 33.3493C2.83623 33.356 2.73971 33.3981 2.75922 33.4087C2.79074 33.4263 3.03429 33.3597 3.06939 33.3655C3.10573 33.3715 2.98105 33.434 3.07205 33.4286C3.09942 33.4233 3.12679 33.4179 3.15416 33.4126C3.21391 33.3932 3.27367 33.3737 3.33343 33.3543C3.36438 33.356 3.2421 33.3964 3.24252 33.4061C3.24295 33.4176 3.36165 33.3887 3.36321 33.3961C3.36439 33.4021 3.27282 33.4376 3.28094 33.4435C3.2923 33.4522 3.42716 33.4101 3.45428 33.4086C3.46484 33.4081 3.55259 33.4304 3.55439 33.4325C3.56529 33.4499 3.3802 33.5059 3.3684 33.5258C3.33641 33.5806 3.49896 33.5797 3.56698 33.6018C3.5974 33.6117 3.59191 33.6329 3.56728 33.6589C3.08438 33.7708 2.73236 33.9393 3.46896 33.6991C3.36885 33.7492 3.57346 33.7041 3.54487 33.7322C3.52619 33.7504 3.42553 33.7888 3.43315 33.8048C3.44733 33.833 3.7498 33.7798 3.22288 33.9435C3.32647 33.9511 3.1433 34.0377 3.61437 33.9134C3.64557 33.9141 3.37396 34.0188 3.33911 34.04C3.30629 34.06 3.20211 34.1703 3.19861 34.1843C3.19512 34.1984 3.19365 34.2217 3.23762 34.2198C3.29208 34.2176 3.77939 34.0845 3.2193 34.2732C3.27287 34.2861 3.2594 34.3002 3.20074 34.344C3.19013 34.3519 3.10614 34.3771 3.10682 34.3797C3.10838 34.385 3.17322 34.3759 3.18359 34.3832C3.20059 34.3952 3.02618 34.456 3.29607 34.375C3.34443 34.3721 3.39279 34.3691 3.44115 34.3661C3.39002 34.385 3.33889 34.404 3.28777 34.4229C3.34626 34.4117 3.40475 34.4006 3.46324 34.3894C3.07005 34.4976 3.31234 34.4688 3.53316 34.3904C3.45808 34.4341 3.38299 34.4779 3.30791 34.5216C2.86237 34.6491 3.26946 34.5805 3.51011 34.5058C3.51043 34.5082 3.51074 34.5106 3.51106 34.513C3.39874 34.5676 3.50081 34.5577 3.42862 34.6054C3.35645 34.6531 3.31247 34.6635 3.1101 34.7308C3.12349 34.7331 3.13689 34.7354 3.15029 34.7378C3.71991 34.6036 2.74744 34.8828 3.19274 34.8084C2.84513 34.9282 3.04218 34.9146 3.15695 34.9103C3.17028 34.9098 3.2387 34.8898 3.26102 34.8878C3.31475 34.8831 3.23445 34.935 3.45485 34.8695C3.39365 34.8972 3.33245 34.9249 3.27125 34.9526C3.31353 34.9483 3.35582 34.9439 3.3981 34.9395C3.46698 34.9193 3.53585 34.8991 3.60472 34.8789C3.37431 34.9625 3.47137 34.9594 3.41861 34.9874C3.40791 34.993 3.31303 35.0213 3.2892 35.0361C3.26088 35.0534 3.29354 35.0607 3.26676 35.0793C3.37315 35.0523 3.47953 35.0253 3.58592 34.9984C3.64821 34.9994 3.37221 35.087 3.35368 35.1038C3.35048 35.1067 3.38047 35.1351 3.38694 35.1352C3.43838 35.1366 3.67381 35.0629 3.63591 35.1215C3.62901 35.1319 3.54896 35.1622 3.54773 35.1702C3.54543 35.1843 3.74213 35.1673 3.91463 35.12C3.70423 35.198 3.80384 35.2126 3.74524 35.2426C3.72721 35.2518 3.59062 35.2927 3.56472 35.3122C3.54359 35.3281 3.65988 35.319 3.64486 35.3357C3.62842 35.3536 3.51473 35.3915 3.50818 35.3993C3.50212 35.4066 3.59628 35.3841 3.59777 35.3912C3.60087 35.4138 3.45727 35.4771 3.45953 35.495C3.45956 35.4953 3.45962 35.4956 3.45971 35.4958C3.46838 35.5198 3.74493 35.4622 3.87162 35.4473C3.85531 35.4577 3.79782 35.48 3.79886 35.4856C3.80974 35.5547 3.78114 35.6447 3.74189 35.7287C3.72395 35.7677 3.37365 35.954 3.98982 35.7512C4.10195 35.73 3.87405 35.8819 3.87464 35.8979C3.87527 35.9139 3.9903 35.893 3.99537 35.9043C4.01059 35.9382 3.93749 35.9867 4.04725 36.0012C4.0759 36.0049 4.21157 35.9781 4.21196 35.9851C4.21212 35.9937 4.08679 36.0397 4.08167 36.0523C4.0705 36.0822 4.12591 36.1155 4.11068 36.1454C4.10761 36.151 3.99581 36.1854 3.96252 36.2018C3.83244 36.2658 3.85217 36.2891 4.20916 36.1794C4.01467 36.2696 4.20855 36.2436 4.22823 36.2686C4.26901 36.3218 4.21738 36.4556 4.38327 36.4637C4.48792 36.4688 4.64841 36.4209 4.52392 36.5101C4.49632 36.5298 4.45797 36.5527 4.4251 36.5765C4.34771 36.6324 4.05901 36.7475 4.42365 36.666C4.34082 36.7272 4.41456 36.735 4.11595 36.8499C4.19021 36.8314 4.26448 36.8129 4.33874 36.7943C4.34178 36.798 4.34482 36.8016 4.34785 36.8052C4.27824 36.827 4.20862 36.8488 4.13901 36.8707C4.12891 36.906 4.4277 36.8596 4.43301 36.8855C4.44219 36.9289 4.3624 37.0708 4.27972 37.1387C4.23582 37.1747 4.38607 37.1319 4.08149 37.2344C4.10432 37.2329 4.12716 37.2314 4.14999 37.2299C4.21835 37.2131 4.2867 37.1963 4.35505 37.1795C4.36577 37.2061 4.27047 37.2693 4.27918 37.2951C4.29526 37.342 4.50188 37.3589 4.39389 37.4424C4.36663 37.4633 4.23186 37.5191 4.23687 37.5303C4.24402 37.5467 4.47616 37.4832 4.48681 37.5036C4.50476 37.5388 4.25684 37.6869 4.28768 37.7161C4.29669 37.7249 4.38405 37.7046 4.39534 37.7091C4.44362 37.7279 4.44392 37.7549 4.58521 37.745C4.37306 37.8411 4.08664 37.9221 3.80126 38.0162C3.58588 38.0872 3.08835 38.2574 2.89877 38.3164C2.76558 38.3578 2.59094 38.3999 2.44453 38.4462C2.31592 38.4433 2.44084 38.3896 2.6392 38.2986C2.61451 38.2449 2.58982 38.1912 2.56513 38.1376C2.64406 38.1089 2.72299 38.0802 2.80191 38.0516C2.80209 38.0515 2.80227 38.0515 2.80244 38.0514C2.88894 38.0027 2.67916 38.0542 2.62874 38.0564C2.14603 38.0771 2.43422 37.755 2.44909 37.6177C2.45215 37.5882 2.31864 37.5341 2.44395 37.4777C2.4766 37.4631 2.60022 37.4255 2.60416 37.4189C2.51737 37.396 2.43057 37.373 2.34378 37.3501C2.50962 37.202 2.32275 37.1539 2.26602 37.0703C2.11245 36.8442 1.94227 36.6256 1.89999 36.3713C1.89202 36.3221 1.78146 36.289 1.82776 36.225C1.84692 36.1983 2.04369 36.1319 1.8878 36.1499C1.94138 36.1339 1.99495 36.1179 2.04853 36.102C1.97724 36.0987 1.851 36.1202 1.83128 36.099C1.81488 36.081 1.79064 36.0278 1.80571 36.0032C1.81314 35.9906 1.91445 35.9648 1.91131 35.956C1.9106 35.9542 1.90798 35.9528 1.90388 35.9516C1.87269 35.9425 1.75626 35.9464 1.75077 35.9277C1.74514 35.9085 1.85115 35.8423 1.83009 35.8324C1.75515 35.7967 1.567 35.7889 1.59628 35.7188C1.60467 35.6994 1.72877 35.6412 1.72371 35.6373C1.71335 35.63 1.58624 35.6641 1.56812 35.6624C1.47652 35.6538 1.61166 35.5589 1.60824 35.5252C1.59711 35.4152 1.50962 35.3208 1.50239 35.2101C1.49774 35.1403 1.44357 35.0377 1.52081 34.9493C1.53749 34.9302 1.67685 34.8932 1.67364 34.8822C1.67004 34.8701 1.57466 34.8908 1.56544 34.8874C1.50102 34.8635 1.3811 34.8043 1.46574 34.7392C1.48201 34.7268 1.5889 34.6899 1.58727 34.6858C1.58664 34.6836 1.51125 34.7004 1.50172 34.6959C1.41738 34.6561 1.44782 34.6001 1.45612 34.5344C1.47148 34.4088 1.296 34.3199 1.33614 34.1809C1.34485 34.1506 1.55413 34.0703 1.55092 34.0673C1.54428 34.0607 1.3986 34.0979 1.3583 34.0924C1.22567 34.0737 1.35863 33.9571 1.27155 33.9278C1.22863 33.9134 1.03553 33.9327 0.987834 33.9201C0.949713 33.91 1.00797 33.8426 0.925049 33.8575C0.874943 33.8664 0.718266 33.9097 0.696888 33.9091ZM3.31803 33.8579C3.06765 33.9275 3.28562 33.9035 3.41545 33.8505C3.44468 33.8386 3.38302 33.8399 3.31803 33.8579ZM3.38832 35.7026C3.45944 35.6814 3.53057 35.6602 3.6017 35.639C3.57065 35.6429 3.5396 35.6468 3.50855 35.6506C3.46653 35.6659 3.4245 35.6811 3.38248 35.6964C3.38442 35.6985 3.38637 35.7005 3.38832 35.7026Z" fill="black"/>
</svg>
