<?xml version="1.0" encoding="UTF-8"?>
<svg id="_Слой_1" data-name="Слой_1" xmlns="http://www.w3.org/2000/svg" version="1.1" viewBox="0 0 283.46 283.46">
  <!-- Generator: Adobe Illustrator 29.3.0, SVG Export Plug-In . SVG Version: 2.1.0 Build 146)  -->
  <defs>
    <style>
      .st0 {
        fill: #0f0f0f;
      }
    </style>
  </defs>
  <path class="st0" d="M97.18,107.2c-.13.62-.23,1.23-.28,1.82,1.24-1.86,1.89-4.74,2.75-7.25-1.25,1.57-2.1,3.69-2.47,5.43Z"/>
  <path class="st0" d="M228.34,96.24l-13.89-3.17-1.37-7.8c2.38,3.36,7.74.06,8.83-2.79.44-1.18.29-2.13.57-3.1.18-.62,1-1.35,1.32-2.05,1.51-3.33,1.74-5.2-1.08-7.81-1.06-.98-3.1-1.67-3.09-3.37.02-1.51,5.35-4.78,6.37-7.4,2.63-6.69-1.93-12.55-6.19-17.2-3.32-3.63-5.84-5.9-10.84-6.89-2.3-.46-6.31-.46-8.35-1.43-.4-.18-1.85-2.58-2.82-3.29-2.51-1.84-6.13-2.24-9.18-2.16-2.13.07-5.24,1.02-7.26.56-1.65-.37-4.6-4-6.26-5.12-4.58-3.1-11.82-4.85-17.26-3.91-2.08.36-4.22,1.65-6.18,1.77-3.62.25-6.47-1.87-10.37-1.5-4.51.44-7.14,3.19-9.58,6.69-8.27-.88-15.99-1.98-22.41,4.41-3.03,3.01-3.3,6.68-5.33,9.04-1.69,1.97-7.87,4.24-8.35,6.32-.62,2.69,2.18,4.01,1.74,5.39-.21.65-3.16,1.41-4.01,1.83-5.93,2.91-7.71,7.5-5.36,13.74,1.33,3.54,3.58,4.88,2.91,9.17-.34,2.15-2.12,4.42-2.34,6.83-.44,4.64,2.95,11.11,4.1,15.7.72,2.91-1.04,7.12,1.38,8.86.25.17.99-.21,1.21,0,.43.44-.42,2,0,2.44.16.18.77.04.93-.13.26-.26.49-.55.7-.87.06-.59.15-1.19.28-1.82.37-1.74,1.22-3.86,2.47-5.43,1.18-3.41,2.78-6.12,6.83-4.65,1.84.67,3.13,2.43,4.77,3.18,2.16.98,3.87.19,5.04,2.92,1.34,3.13.85,7.35,2.81,10.01.92,1.24,1.59,1.97,2.51.37,1.33-2.32,2.45-7.14,2.01-9.77-.23-1.32-2.02-2.93-.23-3.73.96-.44,10.28-.24,12.08-.18.72.03,1.39.29,2.11.33,3.3.17,7.27-.99,8.84,2.77,2,4.77.8,11.42,5.24,14.94,4.55,3.63,16.96,3.74,22.38,2.23,4.95-1.38,7.09-5.11,9.08-9.57,1.19-2.67,3.33-13.17,7.8-9.92,1.32.96,2.82,9.3,3.66,11.61,2.01,5.48,3.87,7.14,9.72,8.02,2.66.4,5.33.45,8.02.39-.29,5.66-2.65,10.62-4.13,15.89-1.27,4.54-1.88,9.2-3.44,13.69-2.28,6.6-8.38,21.3-13.69,25.44-11.13,8.68-32.69-1.84-43.45-7.59-12.54-6.71-19.63-9.58-24.77-23.82-1.15-3.17-1.62-6.87-2.74-9.81-1.85-4.83-5.14.18-8.96-.81-5.12-1.32-12.75-15.45-13.15-20.47-.26-3.21.03-7.12,1.72-9.92,3.59-5.93,8.6-.91,9.62,3.78-4.7,1.08-9.07,3.79-8.6,9.2.2,2.18,1.55,3.95,3.84,4.12,1.6.12,3.81-1.1,5.05-.79,1.46.36,3.11,4.85,5.19,2.47,3.03-3.48-4.48-4.7-4.86-6.81-.35-2,1.56-2.08,2.42-2.96,1.3-1.33.7-3.37-.13-4.8-.6-1.03-5.16-6.55-6.02-7.13-2.71-1.8-4.98-.68-6.6,1.35-.86,2.51-1.51,5.39-2.75,7.25-1.01,10.05,7.35,16.68,8.73,26.27.29,2.04.05,3.57.02,5.45-.07,4.36-.27,8.4-1.22,12.68-3.58-.28-4.59.68-5.94,3.69-.98,2.18-1.6,4.61-2.64,6.82-1.4,2.98-3.78,5.63-3.94,9.07-3.59-1.42-4.07,2.08-5.68,4.25-10.49,14.15-21.61,27.94-31.29,42.67v44.48h126.22c-2.05-10.27-3.1-21.68-8.87-30.64-.13-.2-.51-.27-.61-.44-.66-1.34-.24-3.25,0-4.68.95.62.44,3.42,2.14,2.55.23-4.34,1.31-8.75,1.52-13.1.24-4.83-.36-7.09-4.15-10.22l-.71.47c-.27.66-1.96,4.86-2.19,5.01-.6.39-1.37-.51-1.47-1.14-.12-.89,2.15-5.03,2.56-6.49.68-2.54.38-5.18.89-7.36.8-3.46,5.01-5.91,5.9-11.53.35-2.22-.56-4.96,2.53-5.58,0,0-.17-.61-.32-.74-.41-.36-1.78-.62-2.41-.73,6.45.88,12.95-.06,17.57-4.93,7.68-8.08,12.31-25.83,15.2-36.46,1.59-5.82,4.47-11.44,4.23-17.63,2.83-.62,5.69-.61,8.06-2.48,3.95-3.13,4.06-11.78,5.75-16.27.37-1,1.08-1.29,1.36-1.99.24-.59.68-3.45.21-3.78ZM120.62,110.34c-.44.06-.46-.83-.52-1.15-.26-1.55-.3-2.85-.78-4.42-.32-1.03-1.17-1.85-1.14-2.98,2.28,2.25,2.59,5.51,2.43,8.56ZM121.84,110.34l-.68-5.58-1.15-2.38c4,.05,2.23,5.38,1.83,7.95ZM111,107.59c.86.92,1.39,2.34.97,3.59-.12.39-2.21,1.37-2.62,2.09-.72,1.28-.49,2.93.61,3.92,1.74,1.59,5.06,1.42,4.25,4.46-1.92.17-2.37-2.57-4.18-2.99-2.23-.51-5.64,1.8-7.43-.3-1.19-1.4-1.09-3.14-.13-4.64,2.17-3.41,7.22-2.21,8.54-6.12ZM86.85,220.69l-.15-.6c1.63-.34,3.05.12,4.59.61.07.54-.7.3-1.03.27-1.12-.12-2.39-.9-3.41-.27ZM94.45,223.8c-1.68-.77-3.53-1.12-5.24-1.81-.46-.18-.82.18-.66-.68,4.52,1.09,9.3,2.62,12.52,6.11l-6.62-3.62ZM159.44,175.29c4.56,1.67,9.21,3.25,14.06,3.83.05.57-.99.3-1.33.27-4-.43-10.12-2.58-13.94-4.1-6.15-2.42-12.51-5.88-17.73-9.92l18.95,9.92ZM131.93,219.78l-3.22-1.82-.14-1.85c1.13-.5,3.7,3.32,3.36,3.66ZM170.91,210.62c.56.54,1.22.95,1.07,1.83l-2.44.3,1.37-2.13ZM172.12,213.35c2.44.44.15,7.12.16,8.88-.8.09-.48-.02-.62-.45-.7-2.23.04-6.1-2.75-7.2-.66-.9,2.59-1.33,3.2-1.22ZM170.75,195.17c-2.57,3.65-1.21,7.41-3.2,11.48-5.84,11.94-15.87,2.43-21.41-3.99-6.3-7.31-14.09-17.1-19.65-24.98-.76-1.06-1.58-2.13-2.24-3.26-.78-1.29-1.68-4.03-2.38-4.9-.23-.29-.88-.25-.94-.19-.79.78,3.72,7.47,4.47,8.53,5.54,7.83,13.15,17.28,19.38,24.63,3.61,4.26,8.27,8.97,13.67,10.79,2.98,1,6.12,1.14,9.25,1.3-3.32,3.84-2.82,9.41-5.05,13.75-.45-.46-.94-.89-1.36-1.38-4.19-4.83-8.91-12.1-12.79-17.47-10.89-15.06-21.43-30.73-35.2-43.35-3.14-2.89-6.84-5.18-9.45-8.62,2.81-5.9,2.98-12.7,3.01-19.16,2.67-.76,1.68-2.98,1.54-5.08,1.99,1.53,4.14,1.93,6.56,1.21,1.58-.47,2.8-2.27,3.99,0,1.19,2.26,1.74,6.82,2.68,9.55,3.8,10.99,9.51,16.22,18.74,22.68,5.79,4.06,13.19,8.81,19.48,12.15,3.29,1.74,8.15,3.22,11,5.2,4.32,2.99-2.52,10.4,1.31,8.19,3.29-1.91-.88,2.17-1.4,2.92ZM174.38,189.02c-.19.41-1.66,2.54-2.1,2.03-.14-1.62.87-3.24,1.72-4.55.23-.36.36-1.12.87-.95.79.27-.24,2.94-.49,3.47ZM146.15,100.55c-2.39-2.25-8.76-1.44-11.94-1.51-1.51-.04-2.72-.06-4.23-.04-.24,0-1.47-.15-1.41-.59h15.74c2.01.34,3.51,2.61,3.51,4.59-.93-.51-.92-1.75-1.68-2.45ZM146.06,94.66c2.72-1.09,6.19-1.79,9.11-1.75l-9.78,2.44c-.16-.86.21-.5.67-.69ZM174.65,118.98c-4.2,1.54-12.12,1.33-16.56.5-1.51-.29-2.99-1.09-4.46-1.51l.14-.61c5.68,2.14,16.57,3.58,21.96.56.56-.32,1.15-.95,1.73-1.33.46-.29.33-.75.91,0-.99,1.15-2.33,1.86-3.73,2.38ZM178.24,113.39c-1.11-.44.58-4.07,1.68-3.05.2.19-.22,1.05-.33,1.34-.14.31-.92,1.88-1.34,1.7ZM179.01,115.53c.27-1.9,1.86-3.59,2.7-5.4.41-.89.5-1.74.82-2.56.2-.49-.03-.75.75-.61-1.1,2.92-2.05,6.32-4.27,8.56ZM184.2,102.7c-1.04.26-.23-1.42-.29-2.29-.38-5.13-9.51-6.07-13.46-6.28.99,1.29,2.98,1.02,4.3,1.36,2,.5,6.88,1.58,7.7,3.61.39.95.34,5.72-.36,6.21-.32.23-1.07.05-1.87.57-1.19.8-2.81,3.82-3,5.24-.44,3.11,1.39,3.82-1.66,5.69-4.71,2.89-14.98,1.85-20.14.16-1.98-.64-3.48-1.21-4.48-3.16-1.33-2.57-2.55-11.85-1.8-14.56.34-1.23,2.11-3.18,3.21-3.82,5.87-3.45,20.54-2.32,26.9-.15,4,1.36,5.88,2.75,4.96,7.42ZM186.95,95.51c-11.57-2.32-21.82-5.79-34.04-3.48-9.91,2.22-20.09,2.62-30.14,3.94l2.75-2.91c1.15-1.75,2.07-3.44,1.88-5.6,4.66-1.82,11.07-8.36,7.99-13.52-2.07-.44-4.4,4.01-5.75,4.6-.37.15-.6-.09-.45-.45.22-.55,2.34-3.07,2.9-3.52,3.39-2.75,5.67-2.29,8.16-7.13,1.65-3.21,2.01-6.12-2.67-4.81-3.68,1.03-5.75,5.93-9.62,7.04.34-.83,1.27-1.1,1.84-1.68,2.34-2.4,3.78-5.9,7.32-6.75.61-.14,4.32-.26,4.29-.9-1.39-2.05-2.6-2.4-5.05-1.69-1.93.56-3.51,2.85-5.63,1.83v-.87c1.85-.37,3.83-2.29,5.68-2.46,2.23-.2,4.43,1.26,6.98.89,3.06-.44,5.69-.18,8.5-.67,1.77-.3,3.5-.65,4.35-2.37,1.38,2,4.08,2.69,6.4,2.43.55-.07.99-.55,1.5-.52.45.02,1.02.45,1.61.51,1.69.15,4.38-.49,6.19-.79,2.04-.34,3.67-2.04,4.02-4.08.84.42.75,1.74,1.38,2.43.28.3,2.54,1.76,2.99,1.9,3.03.92,4.76.07,6.78-2.19,1.24,2.23,4.26.64,5.44.95.59.14.62.86.91,1.1,1.95,1.59,3.18-.3,4.02-.24.26.02.28.84.78,1.09,2.21,1.11,5.32-3.85,8.25-2.6l-5.19,2.6c7.14,6.89,7,16.58,9.31,25.53.54,2.1,1.77,4.13,1.53,6.11-.72-.7-1.76-1.55-2.71-1.89-.36-.12-.82-.2-.8.22.02.32,1.63,1.34,1.95,1.71.99,1.12,1.38,3.1,2.92,2.86l.31,1.08c-2.37.09-4.78-.14-7.14.04-7.39.58-11.97,3.81-19.76,2.26ZM202.84,99.94l.58.48c-.37,2.14-1.6,2.66-3.64,2.12-2.32-.62-1.81-2.92-.92-2.29.79,2.06,3.44,1.85,3.99-.31ZM212.32,119.21c-5.46-.27-12.3.48-15.23-5.1-2.27-4.31-4.28-12.93-.21-16.6.47.45-.53,1.04-.82,1.61-.85,1.64-.87,2.75-.95,4.56-.02.47-.48.7.25,1.15l1.53-3.06c.57-.13,1.9,2.45,4.5,2.07,2.58-.37,3.78-2.75,2.98-5.12,5.5-.18,3.38,6.65-.77,6.75-1.96.04-3.75-1.23-5.65-.8,1.98,1.81,6.58,2.6,8.72.77.75-.63,1.87-3.17,2.5-3.33,1.39.09,1.41,1.81,3.15.89v16.21ZM211.31,99.73c-2.76-2.84-6.52-3.37-10.3-2.54,1.54-2.15,5.98-2.16,8.33-1.76,1.39.24,2.64,1.23,3.89,1.76l-.52-1.54-3.45-.9,4.23.35c.34,2.1-.39,4.07-.87,6.07-.97.16-.9-1.01-1.32-1.44ZM223.18,108.21c-.52,2.51-2.02,8.24-4.28,9.48-.9.49-4.29,1.47-5.16,1.17-.4-.1-.44-.38-.5-.73-.38-2.01,0-6.27,0-8.57,0-.73-.35-1.42-.34-2.13,0-1.64.51-3.4.46-5.06,2.69-.34,5.36-1.18,8.06-1.42.75-.06,1.49-.27,2.22.05.84.58-.23,6.1-.46,7.21ZM225.46,103.3l-.7-3.74c-1.54-4.82-6.89-1.36-10.3-1.46l.13-2.77c.4-.57,3.14-.03,3.91.1,4.93.87,7.74,2.18,6.96,7.87Z"/>
  <path class="st0" d="M197.04,146.72s.22.64.4.76.82.15.82.15c1,.41,2.32-2.27,2.82-.81.33.98-2.57,2.42-3.44,2.79-.62.26-1.35.03-1.83.32-.23.14-.22.74-.47.78-.8.14-1.29-.94-2.1-1.27-2.56-1.02-3.45.23-5.43.73-2.53.64-5.31-1.19-8.35-1.01-2.72.16-5.17,2.06-7.06,2.11-1.45.04-2.8-1.11-3.99-1.19-.82-.05-2.8,1.35-3.16.14s3.24-2.68,4.18-2.85c1.01-.19-.13,1.18.1,1.48,4.67-.43,8.55-3.38,13-4.57,3.41-.91,4.6.24,7.28-.03,1.43-.14,2.33-1.33,3.42-1.5,2.15-.33,3.89,1.93,3.8,3.96ZM189.09,148.25c-3.33,1.42-6.74-1.89-10.09-.16,3.01-.29,6.01,1.51,8.87.92.22-.05,1.26-.4,1.22-.76Z"/>
  <path class="st0" d="M196.2,120.96c.35.36,1.78.61,2.46,1.68,3.12,4.91.66,10.38-4.42,11.6-.86.21-1.66-.53-1.52-1.4l.03-.18c-1.93.99-4.44,1.62-6.11-.16-.39-.97,2.23.14,2.6.17,2.63.2,6.75-4.14,6.85-6.6.09-2.06-1.14-6.18-1.66-8.39-.69-2.94-3.13-13.49-4.48-15.39-.4-.57-1.27-.61-1.18-1.42,1.69-.16,2.14.69,2.68,2.06l4.73,18.04ZM196.12,132.34c.6.14.72-.31,1.04-.64,2.58-2.67,2.58-6.97-.28-9.45-.02,1.07.14,2.13.17,3.22.02.61-.08,1.15-.24,1.58-.23.61-.65,1.2-.65,1.36,0,.49-1.09,1.08-.65,2.08h0c.76.23,1.08,1.12.65,1.78l-.03.05Z"/>
  <path class="st0" d="M181.14,159.56c-.07.56.65.26.98.22,1.41-.19,3.18-.82,4.59-.76,1.16.05,4.56.79,3.9,2.36-1.97.11-3.67-.91-5.65-.94-2.5-.03-5.07,1.33-7.49.63l.44-1.23,5.36-1.81-7.64-.92c-.08-.41.12-.75.51-.88.92-.29,6.88,1.07,8.51,1.18,3.36.23,7.2.53,9.62-2.14.29,2.37-3.6,3.25-5.36,3.37-.75.05-1.37-.29-2.04-.23-1.95.18-3.82.82-5.74,1.14Z"/>
  <path class="st0" d="M178.19,124.81c-2.55,2.48-.98,6.82,2.65,6.93-.98-3.13,7.28-4.37,7.9-2.24s-2.72,1.06-4.01,1.39c-.53.14-1.43.95-2.15,1.21-4.17,1.51-7.57-1.48-6.42-5.82.5-1.9,3.3-4.51,5.29-2.96-.95.75-2.32.57-3.25,1.48Z"/>
  <path class="st0" d="M121.84,110.34l-.68-5.58-1.15-2.38c4,.05,2.23,5.38,1.83,7.95Z"/>
  <path class="st0" d="M120.62,110.34c-.44.06-.46-.83-.52-1.15-.26-1.55-.3-2.85-.78-4.42-.32-1.03-1.17-1.85-1.14-2.98,2.28,2.25,2.59,5.51,2.43,8.56Z"/>
  <path class="st0" d="M156.39,86.49c1.7-.64,5.53-2.37,7.16-2.14.87.13.89.82,2.31,0l.23.77c-2.41,2.87-6.68,2.75-9.62,4.04-.41.18-.77.29-.24.68,3.33-1.05,6.25-1.35,9.3-3.23.58-.36,2.65-2.4,3.08-1.96l-.38,1.01-4.51,2.96c3.54-.11,6.58-3.2,10.08-1.22l.76-1.13c1.38.62,2.39-.02,3.53,1.28.97,1.11.74,1.82.91,3.07.27,2.07,2.28.5,1.22-1.77-.16-.34-.85-.02-.6-.83,1.26-.2,1.56.31,1.76,1.45.56,3.25-1.85,3.25-4.29,2.76-.54-.11-.91-.67-1.28-.71-.56-.07-1.31.39-2.1.12-.62-.21-1.16-2.23-2.03-1.64l1.22,1.23-.46.47-16.45-1.59-.51-.41c-.07-.41,0-.63.3-.92.69-.65,4.32-1.37,5.5-1.83.73-.29,2.37-.94,2.6-1.68-3,.33-5.75,1.58-8.41,2.9-.71.35-3.71,2.48-4.27,1.99.22-1.88,4.6-2.62,5.19-3.67-.64.24-1.43.31-2.25.66-2.52,1.05-5.05,3.35-7.44,4.18-.23.08-1.08.62-1.01-.1.09-.96,9-5.62,10.54-5.95.66.49.48.63.15,1.21ZM178.08,91.38l-.06-1.93-1.46-1.74c.3.98.52,2.03.83,3,.16.52-.12.8.69.66ZM169.83,90.16c-2.35-.99-5.15-1.22-7.64-.92l6.61,1.18,1.03-.27Z"/>
  <path class="st0" d="M195.82,91.69c1.66-1.3,2.15-3.19,4.5-3.59,2.6-.44,3.87.49,6.19,1.15-.03-.57-1.42-.72-1.53-1.07-.6-1.86,3.25.34,3.68.6,1.25.75,2.36,1.43,2.44,3.07l-13.56,2.26-.5-.72c.92-1.31,2.1-1.72,3.37-2.45.4-.23.77.05.6-.76-1.65-.15-4.11,2.82-4.8,3.01-3.16.9-.69-6.04.37-6.06,1.35-.02-1.28,3.88-.76,4.58ZM204.67,91.08c-1.53-.02-3.59.23-4.58,1.52,1.26-.34,2.57-.58,3.84-.91.51-.13.9.31.74-.62Z"/>
  <path class="st0" d="M165.25,95.05l2.45,1.37c1.21,1.78,2.97,3.24,4.26,4.91.52.67,1.45,1.59.47,2.28-2.66-2.79-5.51-7.72-9.93-7.02,1.21,3.04-1.3,5.8-4.43,5.52-2.56-.23-2.79-2.56-3.41-2.74-1.17-.35-2.15,2.04-4.16,1.74s0-3.03.8-3.8c3.57-3.48,13.01-4.13,17.64-3.03,1.06.25,4.94,1.59,3.14,2.88-1.91.61-4.34-2.81-6.83-2.09ZM161.88,98.11c-.95.77-.77,1.41-2.18,1.63s-1.81-.64-2.68-.9c-1.46-.43-.71,1.32.36,1.78,2,.86,4.45-.21,4.5-2.52Z"/>
  <path class="st0" d="M170.44,103.3c-.66.09-.95-.6-1.51-.78-1.54-.49-2.3.61-3.6,1.02-3.2,1.02-5.74,1.51-9.04.31-.34-.12-1.9-.84-1.74-1.31.24-.74.71-.19,1.01-.1,3.6,1.03,4.68,1.68,8.53.47,2-.63,5.59-3.25,6.35.39Z"/>
  <path class="st0" d="M203.76,107.28c2.75.28,3.65-1.65,5.19-3.36.14,1.49-.51,2.82-1.78,3.56-.85.5-3.34,1.45-3.41-.2Z"/>
</svg>