<?xml version="1.0" encoding="UTF-8"?>
<svg xmlns="http://www.w3.org/2000/svg" version="1.1" viewBox="0 0 2599.92 586.05">
  <defs>
    <style>
      .cls-1 {
        fill: #fff;
      }
    </style>
  </defs>
  <!-- Generator: Adobe Illustrator 28.6.0, SVG Export Plug-In . SVG Version: 1.2.0 Build 709)  -->
  <g>
    <g id="Logo">
      <path class="cls-1" d="M641.55,138.65h-113.19V25.46h113.19v113.19ZM1149.43,553.01l98.05-98.05V149.06h-130.25v273.1h-251.66l180.98-180.98v-92.12h-86.07s-6.13,0-6.13,0l-130.27,130.27h.1l-273.11,273.1h184.24l381.92.58h32.2ZM939.62,149.06H162.08L32.3,279.33h365.8v273.68h130.27v-273.68h280.99l130.25-130.27ZM32.3,553.01h184.22l171.17-171.15v-92.12h-92.12L32.3,553.01ZM1488.96,384.4h-50.76v-28.02h41.19v-9.94h-41.19v-25.5h50.76v-10.18h-61.54v83.81h61.54v-10.18ZM1457.84,495.67c0,26.94-11.26,43.82-35.68,43.82-20.95,0-34.36-15.33-35.56-40.11h-19.28v38.19h-10.78v-83.81h10.78v35.68h19.4c2.04-23.35,15.21-37.59,35.44-37.59,24.42,0,35.68,16.88,35.68,43.82ZM1447.3,495.67c0-21.07-7.18-34.24-25.14-34.24-15.56,0-25.14,13.17-25.14,34.24s9.58,34.24,25.14,34.24c17.96,0,25.14-13.05,25.14-34.24ZM1414.25,186.21v65.37h10.78v-83.81h-9.7l-48.01,66.33v-66.33h-10.78v83.81h10.78l46.93-65.37ZM1379.41,394.58h10.77v-73.87h28.85v-9.94h-68.48v9.94h28.85v73.87ZM1450.16,213.39h46.93v38.19h10.78v-83.81h-10.78v35.68h-46.93v-35.68h-10.77v83.81h10.77v-38.19ZM1895.01,251.58h-10.89l32.69-83.81h11.97l34,83.81h-11.02l-8.5-21.19h-39.99l-8.26,21.19ZM1907.22,220.22h31.97l-16.28-40.59-15.68,40.59ZM2045.97,272.42h10.18l1.2-20.83v-10.18h-17.72v-73.63h-10.78v73.87h-46.93v-73.87h-10.78v83.81h76.03l-1.2,20.83ZM1507.27,394.58l22.99-35.15,22.99,35.15h12.33l-29.09-44.3,28.73-39.51h-12.33l-22.63,31.01-22.75-31.01h-12.21l28.73,39.51-29.09,44.3h12.33ZM1721.19,251.58h-10.78v-83.81h10.78l27.3.12c24.66.12,28.85,18.68,28.85,26.1,0,8.5-5.51,26.1-28.85,26.1h-27.3v31.49ZM1721.19,210.64c6.35-.24,22.51.12,25.5.12,14.97,0,20.11-8.38,20.11-16.76s-4.67-16.4-18.32-16.64c-.24,0-16.04,0-27.3-.12v33.4ZM1615.12,209.68c0-26.94,16.04-43.82,41.67-43.82s41.66,16.88,41.66,43.82-16.04,43.82-41.66,43.82-41.67-16.88-41.67-43.82ZM1625.66,209.68c0,21.07,11.97,34.24,31.13,34.24s31.13-13.17,31.13-34.24-11.97-34.24-31.13-34.24-31.13,13.17-31.13,34.24ZM1519.83,208.12c0-20.23,12.45-32.57,37.47-34.12v-6.23h10.78v6.23c25.02,1.56,37.47,13.89,37.47,34.12s-12.45,32.57-37.47,34.12v9.34h-10.78v-9.34c-25.02-1.56-37.47-13.89-37.47-34.12ZM1568.08,232.55c17.84-1.2,26.7-9.34,26.7-24.42s-8.86-23.23-26.7-24.42v48.85ZM1530.61,208.12c0,15.09,8.86,23.23,26.7,24.42v-48.85c-17.84,1.2-26.7,9.34-26.7,24.42ZM1642.43,394.58v-83.81h-10.78v35.68h-46.93v-35.68h-10.78v83.81h10.78v-38.19h46.93v38.19h10.78ZM2302.75,203.45h-46.93v-35.68h-10.78v83.81h10.78v-38.19h46.93v38.19h10.78v-83.81h-10.78v35.68ZM2233.09,209.68c0,26.94-16.04,43.82-41.66,43.82s-41.67-16.88-41.67-43.82,16.04-43.82,41.67-43.82,41.66,16.88,41.66,43.82ZM2222.55,209.68c0-21.07-11.97-34.24-31.13-34.24s-31.13,13.17-31.13,34.24,11.97,34.24,31.13,34.24,31.13-13.17,31.13-34.24ZM2006.7,377.1v-66.33h-10.78v83.81h10.78l46.93-65.37v65.37h10.78v-83.81h-9.7l-48.01,66.33ZM2089.54,377.1v-66.33h-10.77v83.81h10.77l46.93-65.37v65.37h10.78v-83.81h-9.7l-48.01,66.33ZM2127.02,186.21v65.37h10.78v-83.81h-9.7l-48.01,66.33v-66.33h-10.77v83.81h10.77l46.93-65.37ZM1469.79,537.58h10.78v-73.87h49.33v-9.94h-60.1v83.81ZM2477.65,224.88c0,7.78-4.19,26.46-28.85,26.58l-27.3.12h-10.77v-83.81h10.77v31.49h27.3c23.35,0,28.85,17.48,28.85,25.62ZM2467.84,224.65c0-7.66-6.11-16.04-19.04-16.04-5.87,0-21.19.36-27.3.12v33.4c10.9-.12,26.94-.12,27.3-.12,14.13-.24,19.04-8.62,19.04-17.36ZM2575.1,177.95v-10.18h-61.54v83.81h61.54v-10.18h-50.76v-28.02h41.19v-9.94h-41.19v-25.5h50.76ZM2488.43,251.58h10.78v-83.81h-10.78v83.81ZM2385.59,203.45h-46.93v-35.68h-10.78v83.81h10.78v-38.19h46.93v38.19h10.78v-83.81h-10.78v35.68ZM1690.08,537.58h10.78v-83.81h-10.78v83.81ZM1679.3,510.88c0,7.78-4.19,26.46-28.85,26.58l-27.3.12h-10.77v-83.81h10.77v31.49h27.3c23.35,0,28.85,17.48,28.85,25.62ZM1669.48,510.64c0-7.66-6.11-16.04-19.04-16.04-5.87,0-21.19.36-27.3.12v33.4c10.9-.12,26.94-.12,27.3-.12,14.13-.24,19.04-8.62,19.04-17.36ZM1928.65,394.58h10.77v-73.87h49.33v-9.94h-60.1v83.81ZM1737.72,352.67c0,26.94-16.04,43.82-41.67,43.82s-41.66-16.88-41.66-43.82,16.04-43.82,41.66-43.82,41.67,16.88,41.67,43.82ZM1727.18,352.67c0-21.07-11.97-34.24-31.13-34.24s-31.13,13.17-31.13,34.24,11.97,34.24,31.13,34.24,31.13-13.17,31.13-34.24ZM1604,479.99c0,8.5-5.51,26.1-28.85,26.1h-27.3v31.49h-10.78v-83.81h10.78l27.3.12c24.66.12,28.85,18.68,28.85,26.1ZM1593.47,479.99c0-8.02-4.67-16.4-18.32-16.64-.24,0-16.04,0-27.3-.12v33.4c6.35-.24,22.51.12,25.5.12,14.97,0,20.11-8.38,20.11-16.76ZM1762.97,363.09c-1.8,20-2.87,21.19-15.68,21.19v10.42c8.74,0,22.39,1.44,25.14-22.99l4.43-50.88h33.76v73.87h10.78v-83.81h-53.88l-4.55,52.2ZM1916.69,352.67c0,26.94-16.04,43.82-41.66,43.82s-41.67-16.88-41.67-43.82,16.04-43.82,41.67-43.82,41.66,16.88,41.66,43.82ZM1906.15,352.67c0-21.07-11.97-34.24-31.13-34.24s-31.13,13.17-31.13,34.24,11.97,34.24,31.13,34.24,31.13-13.17,31.13-34.24ZM1864.97,188.01v63.58h10.77v-83.81h-12.09l-32.92,72.67-32.93-72.67h-12.09v83.81h10.78v-63.58l28.85,63.58h10.78l28.85-63.58Z"/>
    </g>
  </g>
</svg>