<svg width="253" height="98" viewBox="0 0 253 98" fill="none" xmlns="http://www.w3.org/2000/svg">
<path d="M213.146 47.0909C213.18 47.0418 213.299 47.0723 213.355 47.0344C213.596 46.8715 213.713 46.8625 213.929 46.7281C214.269 46.5353 214.894 45.6967 215.344 46.1749C215.344 46.1749 215.344 46.1749 215.344 46.1749C215.35 46.1787 215.355 46.1825 215.361 46.1862C215.481 46.2412 215.535 46.4005 215.639 46.5032C215.742 46.6068 216.478 47.1955 216.4 47.3653C216.285 47.6079 215.723 47.8181 215.646 47.9006C215.586 47.9661 215.576 48.0916 215.507 48.173C215.283 48.4359 215.108 48.5 215.024 48.8661C214.851 48.8483 214.68 48.8277 214.515 48.8009C214.43 48.9393 214.138 48.9569 214.074 49.015C214.018 49.0656 214.04 49.1701 213.977 49.2217C213.905 49.2813 213.733 49.2764 213.613 49.3805C213.413 49.5523 213.505 49.7948 213.398 49.9066C213.286 50.0237 212.981 50.0626 212.86 50.2477C212.853 50.2851 212.847 50.3225 212.84 50.3601C212.89 50.4025 212.94 50.445 212.99 50.4873C212.917 50.5693 212.809 50.4862 212.725 50.5376C212.625 50.5981 212.639 50.7337 212.57 50.7764C212.513 50.8121 212.394 50.7714 212.327 50.82C212.231 50.8897 212.327 50.9962 212.286 51.0527C212.273 51.0739 211.891 51.3974 211.875 51.4075C211.704 51.5158 211.59 51.3587 211.44 51.4273C211.018 51.6215 210.699 51.9809 210.361 52.234C210.213 52.3454 210.036 52.4286 209.854 52.491C209.882 51.9145 209.12 51.8849 209.702 52.4523C209.469 52.4514 209.443 52.7013 209.252 52.7609C209.129 52.7989 209.001 52.744 208.838 52.8307C208.558 52.9805 208.386 53.4072 208.056 52.9551C207.754 53.2139 207.389 53.1674 207.477 53.6656C207.403 53.7341 207.053 53.5796 206.937 53.591C206.816 53.6085 206.075 53.808 205.948 53.8571C205.828 53.9036 205.612 53.9929 205.538 54.0729C205.439 54.1751 205.559 54.6748 205.1 54.2322C204.863 54.389 204.764 54.4142 204.492 54.4573C204.445 54.4641 204.405 54.3857 204.381 54.3962C204.33 54.4181 204.269 54.5149 204.181 54.5614C204.035 54.6379 203.876 54.5052 204.003 54.7572C203.921 54.8434 203.838 54.9299 203.754 55.0164C203.697 54.9814 203.64 54.9464 203.583 54.9114C203.552 54.989 203.519 55.0668 203.487 55.1446C203.392 54.7426 203.106 55.1218 203.318 55.2871C203.094 55.2888 202.867 55.2908 202.639 55.2928C202.493 54.8523 202.184 55.4194 202.316 55.6377C202.293 55.6466 202.27 55.6555 202.246 55.6644C201.994 55.6328 201.864 55.7931 201.592 55.8115C201.322 55.8289 201.328 55.7781 201.177 55.6082C201.124 55.6418 201.072 55.6754 201.019 55.709C200.931 56.3699 200.608 55.4106 200.271 56.019C199.98 55.7369 199.648 56.0682 199.414 56.2737C199.387 56.2976 199.412 56.3646 199.377 56.4009C199.289 56.4901 199.004 56.4972 199.092 56.7098C198.981 56.6797 198.87 56.6496 198.758 56.6195C198.7 56.6852 198.641 56.751 198.582 56.8169C198.607 56.8842 198.632 56.9516 198.657 57.0189C198.426 56.8424 198.224 57.015 198.088 57.0016C198.061 56.9988 198.022 56.9073 197.941 56.9076C197.847 56.9072 197.695 56.9924 197.591 56.9963C197.59 57.113 197.589 57.2298 197.587 57.3466C197.433 57.4641 197.275 57.2126 197.165 57.2275C197.145 57.2302 196.811 57.3686 196.794 57.3809C196.658 57.4797 196.784 57.6978 196.321 57.8004C196.238 57.8188 196.147 57.7594 196.078 57.7795C195.955 57.8149 195.646 58.1234 195.673 58.3029C195.452 58.1412 195.074 58.3633 194.932 58.3419C194.89 58.3351 194.837 58.2024 194.715 58.2107C194.664 58.214 194.588 58.2636 194.509 58.3142C194.432 58.3632 194.354 58.4129 194.294 58.4225C194.165 58.4427 194.084 58.343 194.027 58.3527C193.973 58.3619 193.955 58.4693 193.885 58.4915C193.665 58.5592 193.421 58.4742 193.249 58.526C193 58.6011 192.877 58.9405 192.702 59.129C192.643 59.128 192.573 59.0857 192.518 59.1025C191.828 59.31 191.081 59.4845 190.369 59.6339C190.043 59.703 189.166 59.5555 189.554 60.1173C189.479 60.2584 188.594 60.2424 188.446 60.2798C188.295 60.3191 188.208 60.4646 188.091 60.4994C187.741 60.6034 187.447 60.5986 187.037 60.8158C186.931 60.8723 186.847 61.0381 186.78 61.0546C186.699 61.0742 186.578 60.9689 186.473 60.9884C186.217 61.0379 185.751 61.2067 185.507 61.2462C185.463 61.2533 185.418 61.1441 185.346 61.1249C185.068 61.0497 184.803 61.1304 184.941 61.4803C184.567 61.3573 184.322 61.6184 184.034 61.7018C183.428 61.8783 182.285 62.0591 181.763 62.336C181.44 62.5096 181.494 62.6699 180.955 62.6394C180.833 62.6328 180.711 62.6149 180.566 62.6066C180.223 62.5874 179.89 62.3402 179.708 62.7576C179.327 62.7362 179.059 62.8583 178.742 62.5945C178.727 62.6753 178.709 62.7566 178.692 62.8378C178.647 62.8483 178.603 62.8586 178.559 62.8689C178.531 62.7998 178.504 62.7308 178.477 62.6617C178.152 62.703 177.827 63.0668 177.552 63.1127C177.097 63.1919 175.935 63.2616 175.494 63.2242C175.258 63.2057 175.268 63.3618 175.095 63.0619C175.048 63.091 175.002 63.1201 174.956 63.149C174.934 63.2229 174.913 63.2968 174.892 63.3706C174.597 63.4138 174.236 63.35 173.967 63.3833C173.448 63.4489 172.725 63.7185 172.189 63.6346C172.055 63.6136 171.896 63.4807 171.765 63.492C171.578 63.5078 171.548 63.7512 171.32 63.77C170.905 63.8048 170.157 63.5549 169.77 63.5791C169.664 63.5866 169.599 63.6766 169.521 63.6864C169.203 63.7282 168.909 63.7164 168.585 63.8407C168.248 63.5936 168.283 63.2944 168.213 62.9886C168.138 62.7566 167.955 62.2088 167.983 62.0105C167.994 61.8713 168.059 61.6989 168.062 61.5445C168.373 61.4564 168.535 61.598 168.823 61.8254C169.383 61.8355 169.961 61.818 170.528 61.7861C170.587 61.8675 170.64 61.949 170.695 62.0304C170.695 62.0306 170.695 62.0308 170.695 62.0309C170.915 62.1173 171.003 61.896 171.124 61.8398C172.214 61.3187 174.5 61.4232 175.759 61.2714C176.034 61.2417 176.888 60.9854 177.102 61.0848C177.157 61.1112 177.192 61.236 177.246 61.2324C177.684 61.0772 178.135 60.9152 178.57 60.7525C179.544 60.7682 180.489 60.3985 181.407 60.1584C183.937 59.4983 186.386 58.7408 188.869 58.0464C189.336 57.9164 189.91 57.6439 190.403 57.5591C190.606 57.5244 190.741 57.6999 190.949 57.4744C190.968 57.527 190.987 57.5796 191.006 57.6322C191.207 57.4998 191.31 57.3345 191.556 57.2442C191.764 57.1686 192.324 56.9832 192.507 56.9469C192.605 56.9269 192.602 57.0377 192.69 57.0089C192.841 56.959 193.122 56.7168 193.335 56.6479C193.491 56.5975 193.76 56.5931 193.933 56.5579C193.974 56.5496 194.009 56.5398 194.036 56.5274C194.558 56.2911 195.065 55.9331 195.635 55.7889C195.797 55.7478 196.042 55.8067 196.09 55.7863C196.182 55.746 196.167 55.6118 196.225 55.5738C196.525 55.3797 197.051 55.3603 197.383 55.2479C198.421 54.8987 199.469 54.4475 200.492 54.0748C201.129 53.8443 202.178 53.3954 202.791 53.2444C202.927 53.2107 202.949 53.3579 203.055 53.313C203.173 53.2633 203.198 53.1468 203.249 53.1165C203.595 52.911 204.399 52.4526 204.778 52.3899C204.852 52.3778 204.944 52.4601 204.986 52.4405C205.007 52.4311 205.022 52.3396 205.084 52.3029C205.625 51.9802 206.041 51.8351 206.6 51.5952C207.666 51.1371 208.787 50.3978 209.87 49.8692C210.101 49.7572 210.372 49.8574 210.404 49.836C210.473 49.7904 210.443 49.6338 210.565 49.5189C210.966 49.1403 211.678 48.8836 212.061 48.5368C212.255 48.3636 212.431 48.0109 212.605 47.835C212.743 47.6969 213.155 47.4852 213.178 47.3609C213.19 47.2882 213.11 47.1445 213.146 47.0909ZM208.611 52.8057C208.527 52.5573 208.28 52.9236 208.472 52.983C208.516 52.9963 208.633 52.87 208.611 52.8057ZM191.48 58.949C191.505 59.0189 191.531 59.0888 191.556 59.1587C191.595 59.1143 191.634 59.0699 191.673 59.0254C191.633 58.9912 191.593 58.957 191.552 58.9227C191.528 58.9315 191.504 58.9403 191.48 58.949ZM30.6314 34.6547C30.8134 34.9148 30.9725 35.3551 31.1698 35.6804C31.9943 37.0392 32.2521 37.5697 32.9991 38.8022C34.0845 40.6374 37.7467 45.7971 37.2093 46.177C37.2093 46.177 37.2093 46.177 37.2093 46.177C37.2038 46.1808 37.198 46.1842 37.1917 46.187C37.073 46.2422 36.6485 45.8772 36.4834 45.8941C36.3183 45.9112 35.5776 46.4951 35.0987 45.8922C34.4023 45.0091 33.1083 42.6445 32.7765 42.1548C32.5436 41.8153 32.1995 41.4471 31.9014 41.0174C30.9467 39.6394 30.5211 38.8564 29.5187 37.7021C29.2987 37.1227 29.082 36.5446 28.8675 35.9662C28.4032 35.326 27.9142 34.2167 27.6605 33.8148C27.4537 33.4878 27.245 33.3297 27.0323 32.9849C26.7916 32.5956 26.5208 31.9404 26.0772 31.2207C25.3586 30.0524 25.0173 29.9643 24.5791 29.2725C24.1229 28.5508 23.5852 27.3332 22.9718 26.4182C22.879 26.3093 22.7879 26.2032 22.6985 26.0999C22.6903 26.2142 22.6831 26.33 22.6767 26.4473C22.3864 25.9875 22.3819 25.7141 22.1382 25.2674C21.8607 24.7573 21.5966 24.5272 21.4138 24.1883C21.2514 23.8868 21.1312 23.4567 20.9238 23.0757C20.9071 23.0452 20.8843 23.0037 20.875 22.9889L19.5316 20.367L22.2632 21.4314C22.7061 21.5757 22.6086 21.4036 22.9597 21.5088C23.0221 21.5246 25.446 22.3328 25.5231 22.357C26.4658 22.6928 26.5838 22.9402 27.3023 23.2152C29.4947 24.0474 31.7566 24.668 33.8209 25.3089C34.7026 25.5815 35.7309 25.9404 36.5726 26.2543C35.012 26.2544 38.0104 27.6619 37.0834 26.5362C38.059 26.9772 38.8656 27.0231 39.785 27.3614C40.3929 27.5844 40.7883 27.8264 41.7004 28.1183C43.2161 28.6027 45.1017 28.879 45.3619 29.5388C47.1996 30.0159 48.8082 30.7194 49.5862 30.448C50.065 30.5638 51.2083 31.2142 51.7446 31.4164C52.2363 31.6075 56.1137 32.8908 56.7372 33.0745C57.3665 33.2649 58.484 33.5939 59.0401 33.7075C59.7414 33.8518 60.3475 33.4992 61.3862 34.4027C62.7948 34.7456 63.3132 34.9056 64.5943 35.3254C64.8259 35.4011 64.8297 35.4929 64.9671 35.5302C65.2503 35.6068 65.7501 35.6746 66.2616 35.8032C67.1027 36.0147 67.5386 36.3201 67.5163 36.0229C68.0864 36.1248 68.6498 36.2238 69.2099 36.3208C69.389 36.4237 69.5684 36.5265 69.7482 36.6292C70.0579 36.6481 70.368 36.6669 70.6787 36.6854C70.228 36.9916 72.3778 37.2913 71.7565 36.8916C72.8222 37.2492 73.8566 37.5945 74.9152 37.9412C74.6521 38.3556 77.2734 38.5693 77.1191 38.2714C77.2415 38.3011 77.364 38.3308 77.4866 38.3604C78.5321 38.7362 79.5455 38.8709 80.848 39.2541C82.1522 39.6365 82.013 39.6496 82.3681 39.9482C82.6807 40.0058 82.9936 40.063 83.3067 40.1199C85.0604 39.9062 84.5635 40.8401 87.4512 40.99C88.2693 41.5375 90.5195 41.7982 92.0059 41.9703C92.1789 41.9905 92.1954 41.9211 92.4266 41.9432C92.9917 41.999 94.3924 42.3539 94.3858 42.1182C94.8638 42.2744 95.3434 42.4296 95.8239 42.5836C96.2336 42.6148 96.643 42.645 97.0522 42.6743C97.0625 42.6032 97.0729 42.5322 97.0833 42.4611C97.8504 42.8447 99.1363 42.9671 99.7545 43.1276C99.8779 43.1599 99.889 43.2622 100.275 43.3524C100.725 43.4585 101.579 43.5647 102.116 43.6789C102.343 43.6032 102.57 43.5271 102.797 43.4507C103.773 43.5387 104.067 43.8734 104.638 43.979C104.742 43.9998 106.621 44.2411 106.722 44.2464C107.558 44.3067 107.341 44.039 109.737 44.3865C110.163 44.4474 110.498 44.5726 110.884 44.6203C111.566 44.708 113.624 44.7289 113.812 44.5652C114.623 44.8745 116.839 44.9772 117.477 45.0879C117.673 45.1229 117.708 45.2694 118.316 45.3443C118.809 45.4062 120.083 45.3756 120.7 45.4286C121.357 45.4865 121.58 45.617 121.878 45.6403C122.161 45.662 122.426 45.5777 122.81 45.5946C124.009 45.6488 125.077 45.8343 126.009 45.854C127.392 45.8834 128.596 45.5971 129.715 45.455C129.836 45.4614 129.956 45.4757 130.076 45.4894C130.234 45.5072 130.394 45.5241 130.56 45.5209C134.223 45.456 138.334 45.2133 142.023 44.8787C143.708 44.743 148.002 44.5668 146.784 44.0723C147.352 43.8939 151.673 43.521 152.483 43.3819C153.296 43.2543 153.929 43.0301 154.561 42.9204C156.474 42.5856 157.856 42.4217 160.163 41.8728C160.761 41.73 161.379 41.4668 161.736 41.3969C162.166 41.313 162.655 41.35 163.212 41.2442C164.54 40.9932 166.995 40.4206 168.267 40.1579C168.499 40.1106 168.606 40.2066 168.945 40.1678C170.264 40.0177 171.703 39.668 171.363 39.3639C173.065 39.1844 174.53 38.6321 176.056 38.2422C179.261 37.4361 185.144 35.9625 187.871 35.0272C189.612 34.4349 189.495 34.2975 192.127 33.6884C192.71 33.5524 193.292 33.4277 193.991 33.2618C195.619 32.8764 197.238 32.7125 198.338 31.9878C200.192 31.5241 201.559 31.0265 203.01 30.9045C203.146 30.7816 203.281 30.6587 203.416 30.5359C203.636 30.4642 203.856 30.3927 204.075 30.3213C204.166 30.3691 204.256 30.4169 204.346 30.4647C205.885 29.9972 207.847 29.0469 209.149 28.6208C211.392 27.8969 217.126 26.0713 219.276 25.411C220.351 25.0883 220.432 24.8932 221.165 24.9737C221.407 24.8641 221.644 24.7559 221.876 24.6491C222.006 24.528 222.115 24.4143 222.26 24.2875C223.753 23.7497 225.377 23.2739 226.788 22.7482C227.681 22.4154 228.859 21.9439 229.927 21.4999L232.487 20.5195L231.24 22.9456C230.353 24.7786 229.359 26.6915 228.489 28.0982C228.138 28.6649 227.601 29.3264 227.285 29.8869C226.816 30.7158 226.915 31.0295 226.312 32.0827C225.286 33.8825 223.056 37.0564 222.035 38.7302C221.73 39.2328 221.666 39.503 221.459 39.8521C220.596 41.3027 219.843 42.4646 219.071 43.8968C217.922 45.2257 217.757 44.9285 217.208 45.211C216.791 45.429 215.663 46.1606 215.397 46.1971C215.212 46.2215 215.325 45.7366 215.1 45.7945C216.154 44.0191 216.743 43.3682 217.84 42.0813C219.518 39.4817 221.149 36.8432 222.732 34.1792C222.946 33.984 223.165 33.7809 223.381 33.5803C223.381 33.5804 223.382 33.5805 223.382 33.5806C224.07 32.6087 224.137 32.0633 224.421 31.4797C225.605 29.0237 227.51 25.5853 229.378 22.0038L230.686 23.4432C225.93 25.2469 220.695 26.9624 217.139 28.1571C215.704 28.6464 211.285 30.2509 210.266 30.4381C210.004 30.487 209.893 30.3873 209.622 30.4704C207.325 31.3054 204.989 32.1353 202.626 32.9548C197.715 34.2805 192.72 35.9348 187.785 37.3375C174.457 41.1118 161.043 44.3461 147.47 46.1794C144.855 46.5325 141.517 47.0079 138.927 47.162C137.859 47.2254 137.377 47.0572 135.968 47.306C135.95 47.2512 135.931 47.1963 135.913 47.1415C134.68 47.2869 133.909 47.4567 132.5 47.5248C131.969 47.55 131.047 47.5842 130.112 47.601C128.975 47.6228 127.781 47.6171 127.208 47.6C126.667 47.5842 126.87 47.482 126.364 47.4755C125.499 47.4668 123.689 47.5616 122.491 47.5059C121.398 47.4603 119.637 47.2361 118.804 47.1942C115.834 47.0534 112.606 46.9219 109.474 46.4956C108.602 46.3776 107.514 46.1004 107.243 46.0683C106.715 46.0067 106.54 46.1157 106.183 46.0844C104.36 45.926 101.588 45.3502 99.824 45.0527C94.0962 44.0992 88.0508 42.9613 82.4167 41.6781C78.8487 40.8778 72.969 39.4757 69.7201 38.5261C69.0238 38.3242 69.2469 38.233 68.6601 38.0804C68.0119 37.9114 67.6322 37.912 67.3214 37.8382C65.1784 37.3365 60.511 36.1557 58.5507 35.4879C58.1747 35.3611 57.9308 35.1738 57.7041 35.1092C57.5895 35.0764 57.3091 35.0762 56.9491 34.9806C53.7706 34.135 51.4508 33.3962 48.3852 32.4287C42.4746 30.5641 35.5849 28.4664 29.4759 26.2467C28.7849 25.9963 28.2606 25.7477 27.8866 25.5543C27.4601 25.3422 27.1957 25.1893 27.1007 25.1567C26.6634 25.0056 26.4397 25.086 25.5308 24.7983C24.3498 24.4293 22.8357 23.8766 21.5235 23.3666L22.7127 22.0323C23.5725 23.6956 24.5038 25.4267 25.3072 26.7558C26.0233 27.9432 27.132 29.4705 27.8622 30.6167C28.4384 31.5293 29.7031 33.7578 30.0246 34.1153C30.2197 34.3361 30.4324 34.3716 30.6314 34.6547ZM42.5861 28.5352C42.3186 28.7231 44.3201 29.1355 43.6353 28.7705C43.479 28.6879 42.6523 28.4858 42.5861 28.5352ZM135.477 45.7682C135.454 45.6953 135.431 45.6223 135.408 45.5494C135.146 45.5965 134.884 45.6427 134.623 45.6882C134.773 45.7245 134.924 45.7606 135.075 45.7964C135.209 45.7872 135.343 45.7778 135.477 45.7682ZM41.6883 55.9524C41.5163 55.7607 41.3699 55.4127 41.1891 55.1691C40.4326 54.1467 40.2028 53.7298 39.5451 52.7857C38.5583 51.3978 35.5254 47.3427 36.0925 46.9546C36.0925 46.9546 36.0925 46.9546 36.0925 46.9545C36.098 46.9508 36.1038 46.9473 36.1099 46.9442C36.2255 46.8851 36.5851 47.1549 36.7409 47.1234C36.8968 47.0918 37.6392 46.5137 38.031 46.9791C38.5883 47.6552 39.6217 49.5061 39.9073 49.8754C40.1021 50.1303 40.4032 50.3969 40.6578 50.7166C41.4805 51.7478 41.8445 52.3358 42.7487 53.1391C42.9388 53.5896 43.1314 54.0404 43.3263 54.491C43.7499 54.9452 44.2049 55.7835 44.4465 56.0724C44.6445 56.3097 44.8334 56.3913 45.0381 56.6392C45.2681 56.9168 45.5353 57.4146 45.9635 57.9126C46.6665 58.7289 46.9845 58.7132 47.4228 59.1865C47.8775 59.6769 48.4478 60.5573 49.0758 61.1413C49.1669 61.2036 49.2581 61.2657 49.3494 61.3277C49.3462 61.2288 49.3432 61.1299 49.3402 61.0311C49.6438 61.334 49.6695 61.5579 49.9289 61.8542C50.2342 62.2026 50.4831 62.2972 50.6911 62.5291C50.8616 62.7192 51.021 63.0409 51.2492 63.2811C51.5818 63.6316 51.6145 63.4578 51.8097 63.6304C51.8847 63.7022 53.2508 65.0392 53.3294 65.1136C53.9019 65.7 53.8125 65.884 54.2605 66.3629C55.5029 67.6865 56.9565 68.8598 58.2368 69.9303C58.8082 70.4087 59.3842 70.927 59.932 71.4312C58.7149 71.0498 60.4559 73.0211 60.208 71.8015C60.7744 72.4174 61.3606 72.6222 61.9527 73.1309C62.3349 73.4577 62.5499 73.7597 63.1293 74.1862C63.743 74.6368 64.4601 75.0092 64.9387 75.3665C65.2793 75.6205 65.5037 75.8713 65.5049 76.1427C66.8188 76.9107 67.8254 77.8054 68.5464 77.6918C68.8846 77.8763 69.5842 78.6692 69.9349 78.9367C70.2593 79.1956 72.9096 80.9812 73.3672 81.2515C73.8167 81.5284 74.5922 81.9919 75.0003 82.1773C75.51 82.4096 76.0928 82.1631 76.6564 83.1545C77.6895 83.6734 78.0294 83.8766 78.9409 84.4388C79.1063 84.5402 79.0848 84.6279 79.1848 84.6806C79.3909 84.7889 79.771 84.9144 80.1411 85.0955C80.7481 85.3925 81.0203 85.7337 81.0772 85.4473C81.5003 85.6069 81.9222 85.7627 82.3431 85.9149C82.4589 86.0316 82.5787 86.1499 82.6973 86.2673C82.94 86.3181 83.1822 86.3678 83.4238 86.4163C82.9955 86.6677 84.6231 87.1591 84.2256 86.7166C84.9792 87.1571 85.7354 87.5862 86.5008 88.006C86.2067 88.3894 88.2412 88.7938 88.1764 88.4904C88.2685 88.5282 88.3605 88.5658 88.4526 88.6032C89.215 89.0421 89.9906 89.2357 90.9572 89.679C91.9232 90.1184 91.8152 90.1232 92.0497 90.4325C92.2901 90.5036 92.5305 90.5736 92.771 90.6425C94.1961 90.5002 93.6609 91.4068 95.9449 91.6297C96.5281 92.1895 98.2921 92.4814 99.4585 92.6522C99.5941 92.6725 99.6133 92.6039 99.7946 92.6258C100.236 92.682 101.321 93.0257 101.334 92.7916C101.702 92.9428 102.068 93.0909 102.439 93.2371C102.761 93.2625 103.084 93.286 103.407 93.3079C103.419 93.2372 103.432 93.1665 103.444 93.0958C104.025 93.4626 105.04 93.5545 105.524 93.6969C105.62 93.7255 105.624 93.827 105.924 93.9053C106.274 93.9976 106.945 94.0764 107.369 94.1718C107.553 94.089 107.733 94.0049 107.914 93.9207C108.68 93.9723 108.91 94.2942 109.359 94.3762C109.443 94.394 110.913 94.5525 110.997 94.553C111.659 94.575 111.493 94.3213 113.376 94.551C113.713 94.5909 113.978 94.6991 114.28 94.7272C114.811 94.7803 116.457 94.6976 116.588 94.5238C117.222 94.7902 118.979 94.7811 119.489 94.861C119.644 94.8863 119.673 95.0307 120.154 95.0762C120.55 95.1141 121.536 95.024 122.033 95.0504C122.556 95.0797 122.749 95.2011 122.979 95.212C123.198 95.222 123.402 95.127 123.703 95.129C124.643 95.1368 125.503 95.2872 126.244 95.2811C127.327 95.2723 128.267 94.9642 129.165 94.8103C129.389 94.8222 129.612 94.8766 129.849 94.8692C129.918 94.8671 129.988 94.8649 130.058 94.8627C132.909 94.7762 136.088 94.6404 138.919 94.4363C140.274 94.3535 143.644 94.3355 142.677 93.7983C143.124 93.6421 146.532 93.419 147.161 93.3026C147.804 93.1992 148.288 92.9952 148.784 92.9022C150.289 92.6161 151.364 92.4857 153.152 91.9656C153.616 91.8297 154.081 91.5732 154.356 91.5058C154.686 91.4254 155.079 91.4623 155.51 91.3568C156.537 91.1101 158.418 90.5158 159.39 90.225C159.568 90.1731 159.665 90.2648 159.929 90.2177C160.957 90.0359 162.048 89.6355 161.73 89.3518C163.048 89.1125 164.125 88.496 165.256 88.0266C167.656 87.0652 171.963 85.1085 173.873 83.8813C175.074 83.1215 174.97 82.9967 176.859 82.0856C177.283 81.8784 177.7 81.6855 178.206 81.4297C179.399 80.8269 180.594 80.4511 181.253 79.594C182.552 78.8867 183.49 78.1881 184.588 77.838C184.655 77.7011 184.716 77.5677 184.781 77.4323C184.929 77.3305 185.077 77.2281 185.226 77.1251C185.314 77.1539 185.401 77.1826 185.489 77.2112C186.585 76.4929 187.76 75.3058 188.655 74.6703C189.01 74.4185 189.503 74.0745 190.072 73.6764C191.855 72.4528 194.235 70.5399 195.261 69.6984C195.976 69.1194 195.907 68.966 196.511 68.8411C196.647 68.6833 196.782 68.5247 196.916 68.3654C196.962 68.2246 197.006 68.0849 197.05 67.9449C197.902 67.1218 198.968 66.2023 199.749 65.3826C201.179 63.8959 203.094 61.4561 204.52 59.9492C204.88 59.5725 205.407 59.1651 205.73 58.7696C206.199 58.1938 206.126 57.9028 206.711 57.1664C207.723 55.9018 209.784 53.6716 210.677 52.4184C210.943 52.0477 210.996 51.8238 211.175 51.5634C211.921 50.4741 212.559 49.5943 213.174 48.4795C214.141 47.5006 214.319 47.7609 214.806 47.5856C215.174 47.4532 216.166 46.9338 216.407 46.9307C216.578 46.928 216.52 47.332 216.724 47.3047C215.896 48.7344 215.389 49.224 214.442 50.1917C213.024 52.2102 211.569 54.2039 210.068 56.1652C209.865 56.292 209.661 56.4183 209.457 56.5441C209.457 56.5439 209.457 56.5438 209.457 56.5437C208.799 57.2312 208.718 57.6787 208.438 58.1097C205.812 62.2793 199.03 69.2615 194.77 72.6403C194.141 73.1701 192.526 74.5466 191.317 75.3936C190.806 75.7563 190.387 76.0338 190.17 76.1386C189.982 76.2293 189.861 76.1572 189.68 76.2789C188.126 77.4786 186.562 78.65 184.965 79.7982C181.496 81.8539 178.013 84.1605 174.416 86.086C164.723 91.3605 154.035 94.6507 143.26 95.9223C141.179 96.1834 138.546 96.5354 136.492 96.6205C135.644 96.6558 135.258 96.4749 134.158 96.6952C134.143 96.6401 134.128 96.5849 134.113 96.5298C133.145 96.6528 132.512 96.8123 131.426 96.8717C131.123 96.8879 130.656 96.9099 130.13 96.9302C129.05 96.973 127.788 97.0013 127.229 96.9963C126.802 96.9931 126.959 96.886 126.563 96.8924C125.889 96.9049 124.441 97.0586 123.507 97.0513C122.675 97.0482 121.226 96.9022 120.588 96.9005C118.237 96.8994 115.671 96.9409 113.178 96.6671C112.485 96.592 111.621 96.366 111.404 96.3459C110.98 96.3079 110.84 96.4242 110.554 96.4083C109.114 96.333 106.889 95.8583 105.498 95.6087C100.943 94.8189 96.1628 93.6627 91.8175 92.1278C89.0595 91.191 84.5884 89.3498 82.2222 88.0838C81.7095 87.815 81.9076 87.75 81.4746 87.54C80.9946 87.306 80.6908 87.2631 80.4623 87.1579C78.8765 86.4461 75.4513 84.7013 74.0888 83.7831C73.8246 83.6085 73.6891 83.3989 73.5284 83.3055C73.4473 83.2581 73.2251 83.2176 72.9658 83.0737C70.6728 81.7971 69.0782 80.7461 66.9437 79.3287C65.8952 78.6306 64.8293 77.9211 63.7135 77.1695C60.4443 74.9718 57.2145 72.2968 54.4734 69.5728C53.6714 68.7763 53.2847 68.0676 53.172 67.9584C52.9247 67.7157 52.6589 67.6626 52.1414 67.1842C50.4141 65.5919 48.4168 63.1434 46.9171 61.5011C46.1729 60.6923 45.0575 59.6544 44.3412 58.841C43.7649 58.1939 42.5543 56.5499 42.254 56.2978C42.0704 56.1454 41.8758 56.1604 41.6883 55.9524ZM63.6771 74.741C63.3998 74.8671 64.8204 75.5994 64.4139 75.1449C64.3225 75.0446 63.7465 74.7089 63.6771 74.741ZM133.76 95.1497C133.741 95.0764 133.722 95.0032 133.703 94.9299C133.496 94.9724 133.288 95.0146 133.079 95.0564C133.2 95.0948 133.32 95.1331 133.441 95.1712C133.547 95.1641 133.654 95.157 133.76 95.1497ZM84.0654 61.0336C84.1288 61.0194 84.2096 61.1215 84.2798 61.1306C84.5886 61.1702 84.693 61.243 84.9721 61.2943C85.3802 61.3743 86.606 61.2768 86.5735 61.9468C86.5735 61.9468 86.5735 61.9468 86.5735 61.9468C86.5735 61.9534 86.5735 61.9601 86.5736 61.9669C86.5903 62.0958 86.4764 62.2357 86.4561 62.381C86.4337 62.5263 86.4413 63.4672 86.2848 63.5175C86.0624 63.5844 85.5233 63.3263 85.4154 63.3324C85.3352 63.3368 85.2198 63.4179 85.1258 63.4291C84.7904 63.4638 84.6279 63.3932 84.3071 63.6087C84.1844 63.4795 84.0875 63.3514 83.973 63.2221C83.8136 63.2697 83.5807 63.0933 83.4922 63.0963C83.4158 63.0987 83.3643 63.1922 83.2827 63.1912C83.1933 63.1908 83.0475 63.076 82.8922 63.0805C82.6261 63.0864 82.5562 63.334 82.3876 63.3531C82.2116 63.3726 81.9754 63.2158 81.7474 63.2853C81.7176 63.3107 81.6878 63.336 81.6578 63.3612C81.6722 63.4255 81.6865 63.4898 81.7008 63.5541C81.5886 63.5737 81.5475 63.4409 81.4533 63.4302C81.3396 63.4173 81.2695 63.5335 81.1913 63.5258C81.1272 63.5193 81.0487 63.4138 80.9636 63.4119C80.8392 63.4086 80.8527 63.5518 80.783 63.5717C80.749 63.579 80.2718 63.6102 80.2408 63.6079C80.0314 63.5921 80.0326 63.3978 79.8651 63.3631C79.4265 63.2704 78.9198 63.3702 78.4998 63.3792C78.3088 63.3829 78.1068 63.3468 77.9223 63.2924C78.2763 62.8381 77.6795 62.3746 77.8232 63.1734C77.6308 63.0379 77.4559 63.2259 77.2601 63.1644C77.135 63.1245 77.0519 63.005 76.8748 62.9837C76.5555 62.9459 76.1528 63.1966 76.137 62.6368C75.7402 62.6778 75.4494 62.4311 75.236 62.8912C75.1338 62.9057 74.9196 62.5789 74.8197 62.5231C74.7255 62.4715 73.9516 62.2129 73.8186 62.1823C73.6917 62.1536 73.4685 62.1074 73.3521 62.1306C73.2066 62.1591 73.0225 62.6398 72.8788 62.0146C72.5808 62.01 72.4896 61.9762 72.2385 61.8603C72.1932 61.8393 72.2038 61.7521 72.176 61.7469C72.1188 61.7363 72.0094 61.7819 71.905 61.7703C71.7333 61.7512 71.6705 61.5513 71.6368 61.8317C71.5152 61.8567 71.3951 61.8817 71.2766 61.9068C71.2483 61.846 71.22 61.7851 71.1918 61.7242C71.1216 61.7708 71.0511 61.8174 70.9804 61.8639C71.1289 61.4777 70.6653 61.6311 70.755 61.8874C70.5565 61.7619 70.3524 61.6345 70.157 61.5081C70.2807 61.0607 69.7008 61.3587 69.6899 61.6136C69.6654 61.6081 69.6409 61.6025 69.6164 61.597C69.4271 61.4311 69.2064 61.4869 68.9605 61.3486C68.7192 61.2112 68.753 61.1722 68.7203 60.9467C68.6566 60.945 68.5929 60.9434 68.529 60.9416C68.0787 61.4391 68.3583 60.466 67.7062 60.7753C67.6157 60.3774 67.1425 60.4639 66.8275 60.5018C66.7909 60.5063 66.7735 60.5754 66.7236 60.5859C66.6009 60.6106 66.3456 60.4533 66.3005 60.6789C66.2212 60.5907 66.1419 60.5024 66.0627 60.414C65.9745 60.4349 65.8861 60.4558 65.7975 60.4765C65.7802 60.5461 65.763 60.6158 65.7458 60.6855C65.6479 60.4084 65.376 60.4357 65.2673 60.347C65.2458 60.3292 65.2654 60.232 65.1961 60.186C65.1156 60.132 64.9462 60.1178 64.8494 60.0602C64.7808 60.1554 64.712 60.2507 64.643 60.3458C64.4399 60.3533 64.4488 60.0558 64.3445 60.0043C64.3258 59.9954 63.9572 59.9165 63.9357 59.9168C63.7616 59.9195 63.7424 60.1709 63.2967 59.991C63.2174 59.9587 63.1743 59.8578 63.1012 59.8334C62.9723 59.7907 62.5226 59.8623 62.4408 60.0245C62.3412 59.7627 61.8966 59.7266 61.7893 59.6267C61.7573 59.5963 61.7898 59.4573 61.683 59.3934C61.5965 59.3416 61.3214 59.3772 61.2074 59.3221C61.0869 59.2633 61.0762 59.1345 61.023 59.1092C60.9725 59.0853 60.8951 59.1625 60.823 59.1394C60.5986 59.0658 60.4411 58.8526 60.2635 58.7927C60.0075 58.7061 59.6876 58.903 59.4334 58.9532C59.3858 58.918 59.3527 58.8424 59.2969 58.8233C58.9413 58.7007 58.5646 58.5561 58.1896 58.4019C57.8363 58.2567 57.4901 58.1055 57.169 57.9593C56.8666 57.8225 56.1944 57.1625 56.1861 57.8498C56.0334 57.9156 55.3263 57.3733 55.1703 57.3091C55.018 57.2472 54.8554 57.3096 54.735 57.2653C54.3731 57.1318 54.1498 56.9555 53.6702 56.875C53.5468 56.8547 53.3747 56.9345 53.3084 56.9063C53.2287 56.8721 53.1918 56.7139 53.0916 56.6645C52.8514 56.5476 52.3631 56.3958 52.1369 56.277C52.0954 56.2549 52.1249 56.1406 52.0774 56.0813C51.896 55.8515 51.6138 55.7461 51.5183 56.111C51.2877 55.784 50.9276 55.8406 50.6406 55.7296C50.0165 55.4885 48.9569 54.9189 48.3759 54.8219C48.0011 54.7575 47.936 54.9126 47.5174 54.5558C47.4257 54.477 47.3376 54.3874 47.2218 54.2897C46.9517 54.0611 46.8132 53.65 46.422 53.8737C46.1219 53.6191 45.8251 53.548 45.7246 53.1407C45.6614 53.1945 45.5994 53.2489 45.5345 53.3019C45.4919 53.2825 45.4494 53.2632 45.407 53.2439C45.4269 53.1722 45.4469 53.1006 45.467 53.029C45.1765 52.8601 44.6858 52.9448 44.429 52.8084C44.0116 52.5897 43.0186 51.9242 42.6706 51.6163C42.4919 51.4574 42.4055 51.5879 42.4477 51.2436C42.3899 51.2369 42.3323 51.2301 42.2748 51.2234C42.2113 51.2683 42.1477 51.3132 42.0842 51.3581C41.8174 51.2108 41.568 50.9421 41.3146 50.796C40.8734 50.5433 40.0773 50.2928 39.7076 49.9141C39.6078 49.8149 39.543 49.6038 39.4345 49.5378C39.2789 49.4428 39.1084 49.6199 38.9016 49.4937C38.5564 49.2839 38.0579 48.6221 37.7257 48.4204C37.626 48.3601 37.5336 48.4053 37.4643 48.3693C37.1512 48.2035 36.9453 48.0498 36.5907 47.9641C36.4378 47.5676 36.6553 47.3565 36.7382 47.0441C36.8142 46.8185 36.927 46.243 37.0403 46.0785C37.1132 45.9583 37.2791 45.8606 37.3539 45.7241C37.7146 45.848 37.7774 46.0594 37.9118 46.4224C38.3955 46.7582 38.8959 47.0877 39.4027 47.4096C39.4014 47.509 39.401 47.6088 39.4015 47.7091C39.4014 47.7093 39.4013 47.7094 39.4012 47.7096C39.5478 47.9203 39.7435 47.7891 39.8734 47.8142C41.1257 48.0696 42.9415 49.562 44.0863 50.2358C44.3234 50.3794 45.1947 50.715 45.3038 50.9241C45.3324 50.979 45.2853 51.1001 45.3309 51.1302C45.793 51.2842 46.258 51.435 46.7171 51.5785C47.5197 52.2039 48.4961 52.4876 49.4207 52.8783C51.893 53.9219 54.4056 54.8395 56.864 55.7765C57.3452 55.9603 57.9823 56.0861 58.4354 56.3109C58.5934 56.3891 58.63 56.5586 58.8199 56.5807C58.8573 56.5849 58.9008 56.5833 58.9522 56.574C58.9368 56.6278 58.9213 56.6816 58.9058 56.7354C59.1553 56.7498 59.3412 56.6787 59.5988 56.7517C59.8159 56.814 60.3816 56.9914 60.5674 57.0732C60.6628 57.1152 60.594 57.2028 60.6862 57.2319C60.8445 57.2811 61.2239 57.2499 61.4396 57.317C61.6329 57.3774 61.9355 57.5961 62.0919 57.6251C62.6563 57.7316 63.3032 57.7352 63.8745 57.9457C64.032 58.0042 64.2024 58.1921 64.2538 58.2024C64.3554 58.2223 64.4205 58.1037 64.4918 58.1057C64.8551 58.1171 65.3394 58.4083 65.6698 58.5003C66.7567 58.8042 67.9105 59.0232 69.0034 59.291C69.6845 59.4598 70.8393 59.677 71.46 59.898C71.593 59.9458 71.5289 60.0801 71.6438 60.1024C71.7706 60.127 71.8593 60.0448 71.9218 60.0487C72.3546 60.0764 73.2836 60.145 73.6634 60.3106C73.7349 60.3424 73.7699 60.463 73.8146 60.4702C73.8372 60.4741 73.9011 60.4068 73.973 60.411C74.6225 60.45 75.0596 60.5657 75.6866 60.6881C76.8662 60.9186 78.2631 60.9602 79.5068 61.1769C79.7798 61.2245 79.9385 61.466 79.9766 61.4678C80.0578 61.472 80.1323 61.3288 80.3089 61.3098C80.8894 61.2477 81.6272 61.4774 82.1866 61.4474C82.4436 61.4316 82.8471 61.2714 83.0985 61.2469C83.3187 61.2293 83.7912 61.3351 83.899 61.2574C83.9601 61.2105 83.9965 61.0499 84.0654 61.0336ZM76.6995 62.833C76.7734 62.581 76.346 62.7391 76.4757 62.8982C76.5053 62.9341 76.6807 62.8985 76.6995 62.833ZM58.5158 58.0796C58.4952 58.151 58.4746 58.2224 58.454 58.2938C58.5142 58.2818 58.5744 58.2698 58.6344 58.2576C58.6207 58.2058 58.607 58.154 58.5933 58.1021C58.5675 58.0946 58.5417 58.0871 58.5158 58.0796ZM252.906 19.2027C252.911 19.2479 252.801 19.2741 252.782 19.3171C252.694 19.5173 252.612 19.5495 252.509 19.7228C252.375 19.9585 252.147 20.7904 251.522 20.5014C251.522 20.5014 251.522 20.5014 251.522 20.5014C251.516 20.4982 251.51 20.495 251.504 20.4917C251.389 20.4334 251.3 20.2988 251.173 20.2267C251.047 20.1529 250.204 19.7377 250.185 19.6549C250.166 19.5356 250.501 19.362 250.51 19.3059C250.518 19.2648 250.46 19.1791 250.464 19.1245C250.477 18.9491 250.569 18.8755 250.397 18.6544C250.534 18.6299 250.669 18.6083 250.805 18.5832C250.775 18.4889 250.968 18.4019 250.972 18.3538C250.977 18.3116 250.89 18.2623 250.897 18.2187C250.904 18.1709 251.026 18.1182 251.032 18.0285C251.042 17.8808 250.802 17.7967 250.791 17.704C250.779 17.605 250.941 17.5036 250.876 17.3698C250.851 17.3502 250.827 17.3306 250.802 17.3111C250.739 17.3097 250.675 17.3081 250.611 17.3063C250.593 17.245 250.725 17.2416 250.736 17.1925C250.75 17.1333 250.635 17.0819 250.642 17.0418C250.648 17.009 250.752 16.9792 250.753 16.934C250.754 16.8683 250.612 16.8612 250.591 16.8229C250.584 16.8066 250.54 16.5529 250.54 16.5378C250.547 16.4312 250.741 16.4404 250.766 16.3574C250.837 16.1256 250.699 15.8628 250.648 15.644C250.626 15.5442 250.64 15.4424 250.672 15.3468C251.165 15.5119 251.554 15.1627 250.778 15.2887C250.889 15.1793 250.68 15.1006 250.713 14.9964C250.735 14.9304 250.841 14.8815 250.835 14.7852C250.823 14.6117 250.505 14.4482 251.052 14.3593C250.94 14.1665 251.119 13.9609 250.627 13.947C250.592 13.9014 250.863 13.7349 250.894 13.6698C250.925 13.6094 250.986 13.1626 250.977 13.0906C250.971 13.0194 250.954 12.8941 250.9 12.8433C250.832 12.779 250.33 12.845 250.875 12.5829C250.793 12.4424 250.796 12.3851 250.824 12.2247C250.829 12.1965 250.913 12.1708 250.909 12.156C250.901 12.1255 250.824 12.091 250.801 12.039C250.764 11.9537 250.925 11.8496 250.658 11.9398C250.595 11.8947 250.532 11.8501 250.469 11.806C250.514 11.7693 250.56 11.7323 250.605 11.695C250.538 11.6811 250.472 11.6688 250.406 11.6573C250.805 11.566 250.504 11.4248 250.306 11.5707C250.349 11.4344 250.389 11.2952 250.426 11.1531C250.866 11.0057 250.381 10.8864 250.156 11.0042C250.152 10.9918 250.147 10.9793 250.143 10.9669C250.214 10.8127 250.079 10.751 250.098 10.585C250.115 10.4177 250.161 10.4113 250.337 10.2839C250.312 10.2576 250.287 10.2314 250.261 10.2052C249.656 10.2906 250.586 9.88521 250.041 9.7966C250.322 9.53662 250.037 9.40719 249.859 9.31699C249.839 9.30646 249.776 9.34066 249.745 9.32916C249.669 9.30095 249.669 9.11671 249.472 9.23634C249.502 9.15514 249.533 9.07553 249.563 8.99544C249.504 8.9789 249.446 8.96265 249.388 8.94669C249.326 8.98401 249.265 9.02134 249.204 9.05866C249.368 8.85715 249.213 8.78642 249.225 8.69668C249.228 8.67861 249.31 8.62308 249.309 8.57169C249.309 8.51159 249.232 8.44595 249.225 8.37918C249.12 8.42034 249.016 8.46192 248.912 8.5039C248.806 8.45087 249.024 8.25801 249.007 8.19321C249.005 8.18168 248.869 8.02326 248.857 8.01767C248.763 7.97138 248.578 8.13365 248.466 7.89257C248.447 7.85035 248.493 7.76955 248.471 7.7341C248.432 7.67102 248.141 7.612 247.99 7.70941C248.112 7.50189 247.884 7.3647 247.892 7.27321C247.894 7.24437 248.001 7.14996 247.982 7.08014C247.967 7.02328 247.791 6.99197 247.761 6.92807C247.73 6.85973 247.803 6.76142 247.788 6.73101C247.773 6.70236 247.682 6.74454 247.654 6.71243C247.569 6.6111 247.603 6.41636 247.536 6.33972C247.439 6.22672 247.139 6.32611 246.961 6.32473C246.953 6.28961 246.977 6.22498 246.954 6.20108C246.891 6.13328 246.827 6.06188 246.762 5.98798C246.539 5.73499 246.326 5.47303 246.129 5.22951C246.006 5.07778 245.906 4.47841 245.578 5.05167C245.46 5.09779 245.267 4.59684 245.196 4.53774C245.128 4.47872 245.001 4.52696 244.946 4.48633C244.783 4.36654 244.708 4.2047 244.442 4.13912C244.374 4.12249 244.238 4.19568 244.208 4.17294C244.172 4.14523 244.208 4.00776 244.164 3.96765C244.054 3.86946 243.803 3.75847 243.702 3.66896C243.683 3.65215 243.737 3.54813 243.726 3.49835C243.686 3.30578 243.533 3.23094 243.371 3.56874C243.322 3.29453 243.083 3.38281 242.939 3.3198C242.621 3.17341 242.089 2.83728 241.761 2.88409C241.551 2.91077 241.501 3.06936 241.301 2.8493C241.258 2.80132 241.211 2.74096 241.154 2.68327C241.019 2.54774 240.948 2.20799 240.727 2.53718C240.564 2.39703 240.413 2.43541 240.33 2.09521C240.299 2.16717 240.269 2.23928 240.239 2.31153C240.215 2.30921 240.192 2.30701 240.169 2.30492C240.174 2.23182 240.18 2.1587 240.184 2.08556C240.019 2.03693 239.769 2.3062 239.634 2.29052C239.413 2.25749 238.814 2.12131 238.59 2.0379C238.466 1.99071 238.471 2.14745 238.381 1.83117C238.355 1.85523 238.33 1.8794 238.305 1.9037C238.293 1.97508 238.282 2.04647 238.272 2.11788C238.124 2.13259 237.93 2.04523 237.787 2.06788C237.516 2.10863 237.183 2.37824 236.896 2.32955C236.826 2.31584 236.701 2.20194 236.638 2.22376C236.545 2.2559 236.604 2.48954 236.491 2.5337C236.306 2.60365 235.838 2.49707 235.669 2.60601C235.617 2.63825 235.633 2.73039 235.603 2.75656C235.475 2.86864 235.349 2.93142 235.295 3.12684C235.039 3.0144 234.88 2.7652 234.669 2.54503C234.508 2.37914 234.085 2.03595 233.927 1.90897C233.82 1.8158 233.784 1.61595 233.667 1.51286C233.861 1.21711 234.024 1.27968 234.328 1.34741C234.669 1.1344 235.023 0.95119 235.385 0.792049C235.451 0.855754 235.516 0.919893 235.58 0.984475C235.58 0.984645 235.58 0.984816 235.58 0.984986C235.755 1.01995 235.731 0.799154 235.793 0.72444C236.374 -0.0172097 238.055 0.0502233 238.884 0.141082C239.07 0.147008 239.68 0.068125 239.788 0.220222C239.817 0.25866 239.813 0.388107 239.846 0.397219C240.161 0.353308 240.468 0.322563 240.792 0.309255C241.37 0.630245 242.02 0.652986 242.632 0.859958C244.251 1.40593 245.74 2.2811 246.963 3.36747C247.195 3.57287 247.573 3.78369 247.746 4.03429C247.822 4.14149 247.716 4.32724 247.946 4.33464C247.908 4.37595 247.87 4.41725 247.833 4.45854C247.958 4.50335 248.086 4.49651 248.199 4.55343C248.225 4.56622 248.249 4.58217 248.273 4.60257C248.382 4.69634 248.646 4.95954 248.713 5.06391C248.748 5.11776 248.656 5.17147 248.696 5.21427C248.764 5.28514 249.019 5.35197 249.115 5.46093C249.202 5.55887 249.251 5.80128 249.326 5.86444C249.594 6.0858 249.991 6.29911 250.175 6.62852C250.226 6.7195 250.199 6.91407 250.221 6.93803C250.265 6.98639 250.384 6.9261 250.423 6.95233C250.624 7.08784 250.681 7.45395 250.796 7.64663C251.157 8.24973 251.574 8.89006 251.845 9.54743C252.023 9.96259 252.316 10.6591 252.344 11.08C252.351 11.1729 252.206 11.1937 252.229 11.2652C252.254 11.3444 252.36 11.359 252.378 11.3941C252.51 11.6296 252.755 12.1938 252.706 12.4596C252.698 12.5119 252.594 12.5693 252.6 12.5977C252.603 12.612 252.685 12.6295 252.702 12.6735C252.847 13.0575 252.848 13.3671 252.866 13.7589C252.902 14.5178 253.063 15.4044 252.923 16.2044C252.893 16.3804 252.658 16.4749 252.658 16.4985C252.657 16.5511 252.804 16.5977 252.828 16.7131C252.909 17.0918 252.674 17.5427 252.675 17.8989C252.679 18.0642 252.809 18.352 252.809 18.5204C252.807 18.6713 252.651 18.9502 252.711 19.0393C252.749 19.0898 252.9 19.1535 252.906 19.2027ZM250.956 14.6763C251.217 14.6847 250.989 14.4783 250.854 14.568C250.824 14.5878 250.888 14.6741 250.956 14.6763ZM246.885 5.48739C246.835 5.54193 246.785 5.59646 246.734 5.65097C246.777 5.64975 246.82 5.64873 246.863 5.64791C246.883 5.60425 246.902 5.56055 246.921 5.51681C246.909 5.50697 246.897 5.49717 246.885 5.48739ZM19.2117 0.325744C19.2596 0.324129 19.283 0.436711 19.3277 0.459212C19.5257 0.559442 19.5671 0.649168 19.7369 0.762466C19.9771 0.914549 20.8314 1.21128 20.5039 1.81775C20.5039 1.81777 20.5039 1.81778 20.5039 1.8178C20.5004 1.82344 20.4969 1.82913 20.4933 1.83486C20.4284 1.94572 20.2861 2.02496 20.2058 2.14705C20.1236 2.26801 19.661 3.08621 19.5723 3.0977C19.446 3.10579 19.2807 2.75615 19.2204 2.74126C19.1781 2.72969 19.0822 2.77993 19.0298 2.77333C18.8436 2.74468 18.7753 2.64897 18.5337 2.80336C18.5114 2.66328 18.5002 2.52813 18.4771 2.38913C18.3742 2.41137 18.2975 2.21347 18.2447 2.20504C18.2002 2.19765 18.1447 2.2811 18.0989 2.27074C18.0476 2.25974 17.9998 2.1345 17.907 2.1225C17.7511 2.10153 17.6524 2.33636 17.5544 2.3419C17.458 2.34919 17.3506 2.17855 17.2079 2.23513C17.1861 2.25838 17.1645 2.28172 17.1439 2.30532C17.1395 2.36885 17.1346 2.43231 17.1305 2.49595C17.0662 2.5104 17.0725 2.37962 17.0195 2.36494C16.9573 2.34773 16.8984 2.45972 16.8562 2.44994C16.8217 2.44183 16.7941 2.33594 16.7463 2.33241C16.6791 2.32737 16.6661 2.46894 16.6264 2.48803C16.6113 2.49471 16.3392 2.52429 16.3236 2.52364C16.2107 2.51055 16.2341 2.31868 16.1464 2.28838C15.8999 2.20522 15.629 2.3326 15.3923 2.37367C15.2901 2.39227 15.1858 2.37449 15.0846 2.33877C15.2764 1.8523 14.9183 1.4506 15.0265 2.23045C14.9125 2.11563 14.8285 2.32265 14.7217 2.28591C14.6525 2.26212 14.604 2.15436 14.5016 2.15802C14.3184 2.16513 14.1451 2.47839 14.0639 1.93028C13.8519 2.03825 13.654 1.85546 13.6235 2.34766C13.5745 2.38201 13.4036 2.10867 13.3368 2.07734C13.2785 2.04446 12.8091 1.98152 12.7334 1.99023C12.66 1.99566 12.5308 2.01237 12.4778 2.06694C12.4088 2.13515 12.4688 2.63821 12.2007 2.09375C12.0546 2.17694 11.9963 2.17418 11.8308 2.1469C11.8009 2.14207 11.7749 2.05828 11.7591 2.06249C11.7264 2.07135 11.6884 2.14905 11.6326 2.17326C11.541 2.21301 11.437 2.05204 11.5279 2.31885C11.4811 2.38225 11.4349 2.44603 11.3893 2.5102C11.3517 2.46512 11.3137 2.42021 11.2755 2.37549C11.2612 2.44248 11.2474 2.50948 11.2341 2.57649C11.1427 2.17657 10.988 2.48436 11.1407 2.67916C10.9966 2.64009 10.856 2.60187 10.709 2.56822C10.5584 2.12874 10.43 2.62134 10.5517 2.8446C10.5384 2.84967 10.5251 2.85477 10.5118 2.8599C10.3493 2.79422 10.2888 2.92998 10.1171 2.91715C9.94476 2.90522 9.9382 2.8592 9.80413 2.68666C9.7759 2.71355 9.74773 2.7406 9.71963 2.76781C9.80791 3.37589 9.38613 2.45313 9.29831 3.00593C9.03164 2.73131 8.88628 3.03246 8.79933 3.21369C8.78872 3.23495 8.82465 3.29651 8.81317 3.32887C8.785 3.40666 8.59526 3.41515 8.72082 3.60809C8.63742 3.58133 8.55322 3.5555 8.46824 3.53061C8.45012 3.5916 8.4329 3.65233 8.41774 3.712C8.45699 3.77209 8.49624 3.83219 8.53548 3.89229C8.326 3.73635 8.25548 3.89636 8.16302 3.88876C8.1444 3.88711 8.08608 3.80697 8.03323 3.81049C7.97113 3.81418 7.90595 3.89534 7.83558 3.90744C7.87863 4.01138 7.92214 4.11508 7.96609 4.21854C7.90852 4.33322 7.71015 4.11997 7.6431 4.14148C7.6313 4.14486 7.4709 4.2916 7.46536 4.3041C7.41871 4.40216 7.5916 4.57803 7.34149 4.70951C7.29695 4.73297 7.21086 4.69287 7.17562 4.71719C7.11169 4.76071 7.05672 5.05938 7.15953 5.20723C6.94349 5.09641 6.81083 5.3341 6.71139 5.33708C6.68139 5.3373 6.58063 5.23602 6.50942 5.25956C6.45152 5.27846 6.42313 5.45965 6.35831 5.49436C6.28898 5.53078 6.18681 5.46271 6.15599 5.48027C6.12695 5.49702 6.17203 5.58763 6.13972 5.61792C6.03915 5.71001 5.84295 5.69047 5.75896 5.76511C5.75786 5.76609 5.75678 5.76709 5.75571 5.7681C5.6368 5.88092 5.74318 6.18241 5.74595 6.36385C5.71027 6.37443 5.6438 6.35527 5.62018 6.37954C5.33303 6.67042 4.97187 7.0037 4.66667 7.2877C4.5186 7.42352 3.91581 7.58125 4.51409 7.86414C4.56751 7.97897 4.06975 8.22757 4.01609 8.30425C3.96095 8.37902 4.01808 8.50362 3.98088 8.56396C3.86889 8.74633 3.71069 8.84119 3.66606 9.11775C3.65477 9.18963 3.7392 9.31969 3.71878 9.35267C3.69351 9.39291 3.55095 9.37502 3.51304 9.4267C3.42239 9.55111 3.33503 9.81611 3.25342 9.93273C3.23776 9.95464 3.12841 9.91204 3.07881 9.93087C2.88487 10.0044 2.82753 10.163 3.18041 10.2888C2.91103 10.3708 3.02176 10.6061 2.96969 10.77C2.85621 11.1092 2.57172 11.7082 2.64891 12.055C2.69695 12.2699 2.86143 12.2945 2.6594 12.5445C2.61503 12.5998 2.56019 12.653 2.50833 12.7212C2.38732 12.8756 2.05316 13.0064 2.40311 13.196C2.27957 13.381 2.33036 13.5492 1.99904 13.6726C2.07358 13.6976 2.14821 13.7221 2.22292 13.7462C2.22271 13.7711 2.22259 13.796 2.22257 13.8208C2.14926 13.8228 2.07594 13.8251 2.00262 13.8274C1.96887 14.0083 2.25797 14.2561 2.25316 14.4011C2.23892 14.6549 2.14524 15.3081 2.0743 15.5637C2.03418 15.6996 2.19056 15.689 1.87911 15.7977C1.90449 15.8246 1.92995 15.8511 1.95549 15.8774C2.02745 15.8874 2.09935 15.8966 2.17134 15.9063C2.19446 16.0749 2.11433 16.2808 2.14293 16.4413C2.19367 16.7342 2.47265 17.1061 2.42708 17.4228C2.41456 17.5004 2.29895 17.6261 2.32158 17.6982C2.35378 17.8004 2.59148 17.756 2.63361 17.8756C2.70817 18.0942 2.58482 18.5763 2.69217 18.7784C2.72143 18.8337 2.8155 18.8265 2.84226 18.8652C2.95229 19.0191 3.00651 19.1556 3.20767 19.2513C3.07884 19.5096 2.81507 19.6442 2.5741 19.8314C2.39961 19.9867 2.00927 20.3647 1.86266 20.5046C1.75706 20.5997 1.5533 20.6085 1.44105 20.7201C1.17586 20.5047 1.24974 20.3442 1.34224 20.0412C1.15989 19.68 0.996018 19.3019 0.85454 18.9302C0.920734 18.8663 0.987463 18.8033 1.05548 18.7437C1.05565 18.7436 1.05583 18.7435 1.056 18.7435C1.09952 18.573 0.874686 18.5787 0.801859 18.5123C0.089233 17.8992 0.133253 16.2107 0.162531 15.3542C0.158407 15.1647 0.0349859 14.5516 0.177151 14.4185C0.213155 14.3858 0.342517 14.3795 0.348902 14.3449C0.279024 14.0325 0.221668 13.7072 0.177046 13.3822C0.441178 12.7537 0.398814 12.064 0.539744 11.4157C0.917112 9.66269 1.66791 7.9926 2.73438 6.60448C2.93438 6.34248 3.13509 5.93299 3.38982 5.72844C3.49826 5.64009 3.69156 5.73289 3.69411 5.49489C3.73742 5.5303 3.78071 5.56573 3.82399 5.60117C3.877 5.43862 3.85161 5.27627 3.95776 5.1413C4.04701 5.02674 4.31145 4.73684 4.42107 4.65724C4.47703 4.61564 4.53332 4.70733 4.57803 4.66147C4.58877 4.65032 4.59928 4.63539 4.60974 4.61767C4.67319 4.50981 4.73501 4.29991 4.82819 4.21081C4.92657 4.11605 5.17359 4.05019 5.23662 3.96935C5.47042 3.67151 5.66883 3.26492 6.01306 3.05053C6.11065 2.98945 6.30779 3.00751 6.33285 2.98345C6.38184 2.93563 6.31791 2.81892 6.34424 2.77756C6.47666 2.56824 6.86616 2.47935 7.05986 2.3552C7.67798 1.95456 8.34971 1.49488 9.03458 1.19502C9.47013 0.997431 10.1942 0.68161 10.648 0.64099C10.7449 0.631612 10.7654 0.776607 10.8399 0.752709C10.9223 0.726477 10.9384 0.619827 10.975 0.600456C11.2277 0.461895 11.817 0.211537 12.1072 0.258068C12.1615 0.26652 12.2195 0.370246 12.2491 0.364094C12.264 0.361193 12.2836 0.278894 12.3296 0.26233C12.7417 0.116259 13.0578 0.118347 13.4832 0.105219C14.2853 0.0799765 15.2292 -0.0533257 16.0637 0.12467C16.2453 0.162844 16.3412 0.402734 16.3655 0.403851C16.4211 0.407357 16.4786 0.263661 16.596 0.244678C17.0006 0.184154 17.4655 0.446523 17.8374 0.467408C18.0161 0.475205 18.3148 0.362192 18.4962 0.374871C18.6462 0.384888 18.94 0.563868 19.0318 0.508869C19.0866 0.474752 19.1595 0.328297 19.2117 0.325744ZM14.391 2.0342C14.4069 1.77354 14.1889 1.99573 14.2771 2.1327C14.2966 2.1634 14.3867 2.10165 14.391 2.0342ZM4.90217 6.49213C4.9593 6.53955 5.01643 6.58698 5.07352 6.63445C5.07096 6.59066 5.06864 6.54674 5.06655 6.50268C5.02147 6.48619 4.97634 6.4698 4.93115 6.45352C4.92146 6.46639 4.91179 6.47926 4.90217 6.49213Z" fill="black"/>
</svg>
