<svg width="191" height="186" viewBox="0 0 191 186" fill="none" xmlns="http://www.w3.org/2000/svg">
<path d="M109.979 127.016C109.962 127.171 109.915 127.353 109.86 127.547C109.789 127.816 109.698 128.078 109.625 128.329C108.99 130.224 108.428 130.809 107.274 132.018C106.409 132.929 104.468 134.298 102.843 135.238C101.148 136.193 100.331 137.004 100.083 136.85C100.083 136.85 100.083 136.85 100.083 136.85C100.078 136.847 100.072 136.843 100.067 136.838C99.9479 136.765 100.123 136.293 100.081 136.137C100.032 135.989 99.2662 135.364 99.9196 134.728C100.877 133.824 103.344 132.655 103.802 132.279C104.132 132.041 104.481 131.68 104.86 131.348C106.049 130.274 106.659 129.638 107.003 128.343C107.265 127.988 107.488 127.595 107.666 127.163C107.707 127.057 107.747 126.952 107.787 126.848C107.867 126.054 108.184 124.877 108.218 124.395C108.249 124.005 108.173 123.761 108.194 123.354C108.215 122.897 108.352 122.193 108.3 121.368C108.192 120.02 107.87 119.833 107.671 119.089C107.523 118.566 107.334 117.846 107.038 117.1C106.892 116.725 106.749 116.364 106.591 116.045C106.514 115.928 106.437 115.813 106.36 115.7C106.339 115.813 106.317 115.926 106.295 116.039C106.065 115.551 106.096 115.295 105.891 114.878C105.645 114.396 105.398 114.251 105.208 113.999C105.059 113.806 104.907 113.514 104.67 113.329C104.65 113.314 104.631 113.299 104.612 113.284C104.099 112.902 104.126 113.1 103.844 112.919C103.719 112.79 101.79 111.616 101.696 111.66C101.058 111.394 100.933 111.259 100.558 111.139C100.435 111.109 100.295 111.08 100.126 111.052C98.3202 110.755 96.4989 110.377 94.816 109.95C94.1473 109.779 93.5257 109.559 92.9412 109.314C91.9541 108.899 90.9969 108.349 90.1345 107.74C91.0315 108.001 90.5969 107.452 90.1568 107.103C89.7863 106.808 89.3793 106.648 89.6718 107.295C88.8055 106.546 88.0559 106.214 87.2579 105.53C86.7444 105.087 86.4515 104.708 85.7067 104.109C85.5819 104.009 85.4547 103.91 85.3251 103.812C84.0808 102.882 82.7044 101.964 82.7093 101.275C81.7173 100.445 80.9341 99.4998 80.3525 98.7148C80.0136 98.2579 79.7416 97.9481 79.445 97.8098C79.1639 97.3804 78.7498 96.1655 78.4516 95.7214C78.2911 95.4486 77.174 93.8981 76.1139 93.6522C75.4115 93.4558 74.8084 93.3244 74.5865 93.28C73.933 93.1444 72.7728 92.9678 72.2086 92.9538C71.4933 92.9346 70.9904 93.3815 69.768 92.7609C68.3212 92.804 67.8089 92.8095 66.5121 92.9643C66.2817 92.9978 66.2342 92.9201 66.1014 92.951C65.9489 92.9875 65.7429 93.0616 65.5196 93.154C65.3205 93.2347 65.112 93.3205 64.8878 93.4033C64.0771 93.7046 63.5456 93.7332 63.7418 93.9555C63.2279 94.2142 62.7246 94.4869 62.2133 94.772C62.0055 94.807 61.795 94.8441 61.5861 94.8805C61.3247 95.0663 61.0602 95.254 60.7892 95.4398C60.9933 94.9268 58.9189 96.0196 59.7085 95.9591C58.5362 96.3399 56.9347 96.4628 55.7008 95.8685C55.7359 95.8298 55.7332 95.7876 55.7018 95.7434C55.5886 95.5597 54.9906 95.3672 54.416 95.155C53.8426 94.955 53.2939 94.6794 53.3188 94.8456C53.1908 94.7421 53.0659 94.6307 52.9462 94.5111C52.7949 94.3333 52.6541 94.1484 52.5262 93.9551C51.9349 93.0541 51.4645 92.1325 51.0778 91.0209C50.6186 89.711 50.7075 89.8303 50.7302 89.3605C50.5846 89.0744 50.4339 88.7919 50.2772 88.5135C50.2771 88.5134 50.277 88.5133 50.2768 88.5132C50.3232 88.6956 50.2026 88.622 50.0961 88.6244C49.9831 88.6102 49.8718 88.5875 49.7652 88.5559C49.5537 88.494 49.3672 88.3973 49.1406 88.2934C48.6884 88.0865 48.0568 87.8554 46.5664 87.9084C45.6714 87.4327 43.3363 87.3624 41.7618 87.0905C41.6242 87.0676 41.5788 87.1 41.4616 87.1012C41.427 87.1027 41.3853 87.1012 41.33 87.0937C40.811 87.0164 39.3394 86.6984 39.3444 86.9244C38.833 86.7644 38.307 86.589 37.7879 86.353C37.3352 86.2506 36.8669 86.1042 36.4052 85.8478C36.3676 85.909 36.3301 85.9703 36.2927 86.0316C35.8399 85.5854 35.2501 84.8904 35.0251 84.1472C34.8872 83.7269 34.7506 83.3207 34.6882 83.0363C34.6607 82.9076 34.7437 82.8477 34.6516 82.4419C34.543 81.9689 34.2838 81.0954 34.1981 80.5147C34.0443 80.3143 33.8932 80.1093 33.7458 79.8988C33.5133 78.8445 33.783 78.4271 33.7868 77.7937C33.7885 77.7351 33.7699 77.1822 33.8393 76.6082C33.8976 76.0359 34.0891 75.45 34.1123 75.392C34.3703 74.7307 34.2348 74.5317 34.9918 73.7185C35.2834 73.4349 35.7281 73.0817 36.4119 72.659C36.6826 72.4914 36.9347 72.3842 37.1763 72.264C37.307 72.196 37.4378 72.1324 37.5685 72.0665C38.3081 71.6053 40.534 70.9794 40.7071 70.8143C41.4663 70.8793 43.1547 70.7971 44.2317 70.9932C44.6295 71.0571 44.9093 71.1781 45.0783 71.2638C45.31 71.3927 45.3374 71.5431 45.8993 71.9362C46.3647 72.2715 47.4229 72.8828 47.8913 73.0533C48.393 73.2655 48.5642 73.3897 48.8123 73.4266C48.8207 73.4275 48.829 73.4284 48.8374 73.429C49.1132 73.4504 49.3793 73.3802 49.7514 73.4033C50.9373 73.477 52.0665 73.6484 52.7317 73.388C52.8481 73.3415 52.9392 73.2821 52.9957 73.223C53.9 72.3892 54.6213 71.563 55.3239 70.8393C55.5572 70.6718 55.8101 70.5404 56.0371 70.3457C57.9997 68.6926 59.8201 66.5877 61.235 64.2654C61.8748 63.2322 62.5043 62.2024 63.243 61.2281C63.7411 60.5699 64.7883 59.421 66.0656 58.936C67.4762 58.4191 68.4246 58.1665 67.7105 57.9915C68.1239 57.788 70.2359 57.2705 71.6159 56.5673C72.1641 56.309 72.5917 55.9961 72.7738 55.8497C73.3747 55.3601 73.7487 54.8035 74.2594 54.3243C75.2731 53.3502 76.5554 52.4665 78.2133 52.338C78.8462 52.281 79.5298 52.2144 80.3116 52.1187C80.9396 52.0418 81.5925 51.8451 81.9446 51.8069C82.2575 51.7736 82.6066 51.8056 82.9168 51.7832C83.1041 51.7583 83.2849 51.7431 83.447 51.7245C84.9608 51.587 87.4117 51.3556 88.6255 51.0539C88.8468 51.0056 88.9529 51.1014 89.2756 51.0491C90.5594 50.8701 91.6972 50.1185 91.2817 49.932C91.4372 49.8625 91.5828 49.7825 91.717 49.6939C92.7001 49.053 93.0989 48.5455 93.0238 48.1576C93.0152 47.7405 93.0092 47.327 93.0139 46.9147C93.0003 45.5796 93.178 43.6374 92.6334 42.4162C92.1191 40.9692 89.4835 39.4495 90.2624 36.201C90.5864 35.3508 91.0805 34.8122 91.4263 34.4161C92.633 33.0889 92.6811 33.056 93.5521 31.8026C93.7202 31.5191 93.9021 31.267 94.1047 31.0012C94.5051 30.4791 94.9013 30.023 95.3411 29.4549C96.3587 28.1815 97.3537 26.8629 96.9992 25.9295C97.0036 25.8928 97.0068 25.8571 97.009 25.8223C97.1022 23.9059 96.9918 22.6892 96.6826 21.8081C96.5535 21.7671 96.4268 21.7457 96.3062 21.7418C96.2061 21.6567 96.0947 21.5847 95.9662 21.5231C95.9609 21.4577 95.9513 21.3912 95.9372 21.3241C95.9283 21.3022 95.9194 21.2803 95.9106 21.2584C94.3634 20.5599 92.3266 20.1616 91.0389 19.9677C90.8279 19.9313 90.5846 19.8937 90.3147 19.8612C87.6194 19.4962 82.402 19.2608 80.4174 19.4069C79.866 19.4307 79.5668 19.4917 79.3345 19.519C79.0569 19.5526 78.8626 19.5424 78.4751 19.4246C78.2098 19.4842 77.9452 19.5443 77.6813 19.6055C77.5244 19.6995 77.368 19.7939 77.2127 19.8888C75.6903 20.1187 73.9014 20.3558 72.5171 20.7556C72.329 20.8089 72.1357 20.8669 71.9365 20.93C68.948 21.6316 65.3577 21.706 62.7496 21.4973C62.0518 21.4339 61.192 21.2284 60.5085 21.1588C60.1979 21.1276 59.9562 21.1229 59.7357 21.1277C59.1916 21.1273 58.726 21.1382 57.8878 20.8964C56.7564 20.5578 55.3199 20.0664 53.8072 19.9967C52.4358 19.9195 51.1154 19.8772 50.2108 19.914C49.6235 19.9376 49.3484 20.0399 48.9485 20.0702C47.2523 20.2048 45.9534 20.3514 44.4271 20.9009C44.3925 20.905 44.3585 20.9089 44.325 20.9126C42.6713 21.0992 42.7192 20.7957 42.1214 20.6486C41.6615 20.5418 40.2651 20.3541 40.1135 20.1543C39.9904 20.034 40.3485 19.7897 40.1723 19.6652C41.6496 19.236 42.6297 18.9883 43.8082 18.8461C44.1057 18.8087 44.4322 18.7669 44.8029 18.7286C47.86 18.0615 50.8579 18.1249 53.8293 18.1236C54.0957 18.1261 54.3604 18.1364 54.6251 18.1549C54.9315 18.261 55.2309 18.3782 55.5222 18.5055C55.5222 18.5057 55.5222 18.5058 55.5222 18.506C56.7793 18.8023 57.3428 18.7765 58.0054 18.9105C58.6518 19.0478 59.329 19.2238 59.9732 19.2749C63.1061 19.5022 67.6244 19.6611 71.3487 19.0086C74.0039 18.2183 76.7084 17.8867 79.0739 17.6009C80.641 17.4158 82.0734 17.3925 83.3284 17.3898C84.743 17.3515 89.0776 17.4822 90.5474 17.7756C90.6768 17.7978 90.7839 17.8206 90.8667 17.8423C91.1431 17.9165 91.1999 18.056 91.4917 18.1131C93.3009 18.3826 95.02 18.9937 96.6569 19.6359C97.6123 19.987 98.406 20.8796 98.7436 21.7811C99.2104 23.2209 99.0928 24.5703 99.101 25.7951C98.9019 28.947 96.7195 30.9199 95.5765 32.9245C94.7918 34.4521 93.3285 35.4792 92.5912 36.4176C92.4453 36.6093 92.3369 36.7955 92.2653 36.9838C92.0717 37.3944 92.3853 38.1837 92.8988 38.9428C93.3999 39.7288 94.0605 40.4374 94.5966 41.545C95.5578 43.9956 95.1214 46.0943 95.1753 48.2011C95.1614 49.8754 93.7533 50.8061 93.0624 51.3725C89.9934 53.6706 86.2372 53.5239 83.375 53.9303C81.5615 54.2514 80.0209 54.2869 78.3912 54.4445C76.4316 54.4591 75.2081 56.9986 72.6037 58.4094C71.3711 59.0766 70.0285 59.5765 68.7379 59.9581C68.0721 60.1611 67.3767 60.3578 66.7862 60.6177C65.2793 61.2614 64.1152 63.5547 63.0582 65.1691C63.0291 65.2152 63.0002 65.2601 62.9716 65.304C62.3972 66.1677 61.9907 66.4904 61.2579 67.7313C61.2036 67.7104 61.1495 67.6894 61.0954 67.6683C60.3541 68.7489 59.9003 69.481 58.8633 70.5416C58.0138 71.4728 55.4522 73.5056 54.6476 74.1169C54.2756 74.4079 54.3011 74.2807 54.0511 74.4665C53.9959 74.5101 53.9292 74.5605 53.8514 74.6135C52.6124 75.4402 50.6143 75.3616 49.3889 75.3076C49.1802 75.294 48.9464 75.273 48.6997 75.2475C47.2918 75.1521 45.9653 74.1572 45.4207 73.7964C44.8394 73.4108 44.2732 73.0696 43.9301 73.0562C42.0633 72.8706 39.7102 73.1862 38.2706 74.005C38.0295 74.1554 37.7926 74.3015 37.5624 74.4461C37.1256 74.7184 36.6263 75.0068 36.2888 75.2449C36.1317 75.3432 36.0215 75.46 35.9824 75.5198C35.7958 75.8263 35.8848 75.9972 35.8222 76.2507C35.4582 77.5852 35.8578 80.4432 36.3798 82.1119C36.5175 82.5771 36.6711 83.0478 36.8345 83.5202C37.1383 84.7629 39.5525 84.912 41.8926 85.4086C43.3375 85.7684 44.89 85.9595 46.4474 86.1429C47.2302 86.2351 48.012 86.3199 48.8183 86.4371C49.2217 86.4971 49.628 86.5625 50.0659 86.6664C50.2811 86.7187 50.5119 86.7801 50.7719 86.8826C51.0251 87.0179 51.3673 87.0284 51.8037 87.7291C51.8914 87.9013 51.9752 88.071 52.0578 88.2436C52.748 89.6023 53.2757 91.4514 54.2025 92.7392C54.5981 93.3086 55.3963 93.7217 56.3285 94.0692C57.6502 94.6457 59.1327 93.9187 60.3964 93.3985C61.0783 93.1087 60.9609 93.3196 61.5351 93.0577C62.1726 92.7683 62.4949 92.5264 62.7973 92.392C63.3655 92.1402 64.121 91.8265 64.9927 91.5274C67.593 90.6492 70.8145 90.8763 72.3925 91.1165C72.8058 91.1811 73.0888 91.3326 73.3355 91.3663C73.4594 91.3837 73.7514 91.3466 74.144 91.4029C75.001 91.526 75.7948 91.6776 76.5562 91.8596C79.4897 92.8215 80.3915 95.0938 81.6787 97.1758C81.7787 97.3469 81.8779 97.5145 81.9758 97.6688C83.0296 99.2854 84.8475 100.718 86.6516 102.166C88.1534 103.355 89.6302 104.602 91.1589 105.65C92.5031 106.561 93.9867 107.336 95.45 107.781C96.1234 107.982 96.7896 108.172 97.4495 108.344C98.8221 108.702 99.7425 109.072 99.9413 109.104C100.227 109.148 100.454 109.116 100.826 109.109C101.06 109.111 101.344 109.136 101.699 109.223C103.287 109.612 104.69 110.719 105.923 111.685C107.695 113.115 108.139 115.115 108.736 116.412C108.782 116.521 108.829 116.629 108.874 116.736C109.504 118.068 110.126 120.218 110.156 121.716C110.257 122.928 109.885 125.652 109.875 126.16C109.879 126.482 110.02 126.638 109.979 127.016ZM84.99 103.369C85.3094 103.299 83.5355 102.116 84.0603 102.731C84.1789 102.873 84.9076 103.39 84.99 103.369ZM59.7664 67.1048C59.6962 67.0742 59.6262 67.0433 59.5562 67.0123C59.4186 67.239 59.2742 67.4673 59.1265 67.6922C59.2584 67.6039 59.386 67.5186 59.516 67.428C59.6018 67.3192 59.6833 67.2139 59.7664 67.1048Z" fill="#030E12"/>
<path d="M93.6031 143.96C93.7357 143.809 94.0027 143.672 94.1637 143.492C94.8222 142.731 95.0743 142.429 95.5585 141.581C95.6071 141.493 95.6603 141.39 95.7169 141.275L95.7077 141.295C96.1077 140.405 96.8944 138.901 97.252 137.977L97.258 137.956C97.9119 136.327 98.772 135.945 98.9741 136.077C98.9741 136.077 98.9741 136.077 98.9741 136.077C98.9793 136.081 98.9841 136.085 98.9888 136.091C99.0755 136.186 98.9265 136.596 99.0057 136.734C99.089 136.868 99.8347 137.422 99.5943 137.858C99.5407 137.957 99.4735 138.069 99.4145 138.177C99.3541 138.29 99.3121 138.373 99.2457 138.556L99.2502 138.541C98.9019 139.531 98.3333 140.362 98.2181 140.651C98.096 140.929 98.0153 141.301 97.8696 141.654C97.7933 141.838 97.7219 142.008 97.6549 142.167L97.6487 142.18C97.2517 143.054 96.9322 143.615 96.4717 144.567C96.0741 144.892 95.656 145.185 95.2258 145.437C94.8187 145.934 93.9604 146.385 93.6554 146.593C93.6366 146.606 93.6186 146.619 93.6013 146.633C93.3855 146.798 93.2768 146.962 93.0226 147.115C92.7148 147.302 92.1868 147.461 91.6536 147.761C90.7864 148.258 90.7867 148.565 90.3572 148.903C90.0931 149.117 89.7233 149.366 89.3994 149.687C89.1581 149.928 88.9248 150.179 88.7434 150.434C88.6982 150.526 88.6546 150.617 88.6115 150.708C88.7048 150.697 88.7972 150.687 88.8905 150.677C88.6553 150.987 88.451 151.027 88.2297 151.296C87.9726 151.613 87.9549 151.848 87.8092 152.061C87.6907 152.234 87.4575 152.424 87.3397 152.663C87.1736 153.01 87.3434 152.995 87.2892 153.186C87.2781 153.224 87.1549 153.583 87.0951 153.953C87.0299 154.321 87.0242 154.706 87.0225 154.747C87.0035 155.133 86.9426 155.31 86.8922 155.517C86.8633 155.664 86.8397 155.824 86.846 156.067C86.8906 157.805 87.1118 159.585 87.2101 161.194C87.2541 161.913 87.2567 162.665 87.2338 163.384C86.7265 162.259 86.3666 164.762 87.1323 163.82C87.0282 164.62 87.2374 165.187 87.1946 165.949C87.1655 166.445 87.0542 166.778 87.0357 167.487C87.011 168.729 87.1892 170.192 86.5579 170.527C86.5171 170.817 86.506 171.075 86.293 171.526C85.8854 172.475 85.1512 173.483 84.8015 174.151C84.612 174.302 84.2234 174.479 83.7913 174.547C83.357 174.596 82.8855 174.596 82.6261 174.628C82.2073 174.757 79.0137 174.934 78.4708 174.806C77.9386 174.779 76.9936 174.633 76.498 174.499C76.0587 174.372 75.5199 174.541 74.928 173.801C74.8326 173.642 74.7488 173.423 74.7046 173.122C73.9534 172.235 73.7053 171.839 73.3412 170.754C73.2852 170.566 73.3503 170.51 73.3285 170.41C73.3273 170.403 73.3257 170.397 73.3236 170.39C73.2538 170.167 73.0862 169.805 72.9825 169.418C72.8114 168.778 72.9154 168.375 72.6552 168.507C72.5146 168.094 72.3791 167.682 72.2467 167.269C72.2697 167.11 72.2934 166.952 72.3171 166.793C72.2143 166.579 72.1121 166.365 72.0104 166.15C72.46 166.339 71.9261 164.797 71.7924 165.354C71.7238 164.52 71.6633 163.687 71.6096 162.854C71.8756 162.875 71.7669 162.309 71.5844 161.84C71.4398 161.468 71.2487 161.155 71.1496 161.243C71.1355 161.148 71.1217 161.054 71.1078 160.96C71.1061 160.115 70.9005 159.37 70.8554 158.351C70.8125 157.332 70.8715 157.422 71.0471 157.091C71.0075 156.855 70.9687 156.62 70.9305 156.385C70.2168 155.201 71.2392 155.319 70.5956 153.233C70.8986 152.52 70.567 150.861 70.3749 149.757C70.3524 149.628 70.281 149.63 70.2465 149.46C70.2059 149.257 70.1884 148.897 70.1556 148.585C70.1207 148.253 70.0715 147.978 69.9547 148.004C69.9986 147.623 70.046 147.243 70.0952 146.866C70.0393 146.562 69.9847 146.259 69.9304 145.955C69.8587 145.96 69.7871 145.964 69.7154 145.969C69.9349 145.344 69.8014 144.391 69.8341 143.919C69.841 143.825 69.9392 143.8 69.9495 143.508C69.9624 143.166 69.89 142.538 69.8847 142.134C69.7618 141.988 69.638 141.843 69.5133 141.7C69.3809 141.001 69.6322 140.719 69.5943 140.299C69.5964 140.222 69.3325 138.876 69.3012 138.809C69.1114 138.234 68.9604 138.443 68.5044 136.79C68.4209 136.508 68.416 136.254 68.3298 136C68.3269 135.991 68.3239 135.982 68.3207 135.974C68.1565 135.5 67.3993 134.167 67.1849 134.128C67.1575 133.477 66.4046 132.012 66.2566 131.548C66.213 131.407 66.3293 131.317 66.165 130.897C66.0327 130.556 65.5211 129.761 65.3305 129.343C65.1293 128.896 65.1554 128.688 65.0616 128.489C64.973 128.302 64.7991 128.179 64.6663 127.931C64.4049 127.442 64.2024 126.955 63.9959 126.527C63.8817 126.289 63.7543 126.057 63.615 125.849C63.0561 125.019 62.291 124.457 61.6909 123.832C61.5826 123.648 61.5114 123.442 61.3823 123.258C60.6165 122.166 59.8186 120.98 59.0864 119.731C58.3809 118.523 57.4057 117.359 56.5782 116.099C56.1348 115.423 55.2501 113.764 55.588 112.461C55.709 111.895 55.749 111.588 55.384 111.866C55.3988 111.579 55.9223 110.554 56.4989 109.8C57.0726 109.03 57.5309 108.333 57.6358 108.08C57.7237 107.889 57.7782 107.705 57.8173 107.529C57.88 107.248 57.9105 106.982 57.9726 106.725C58.2497 105.46 58.4698 104.434 58.1602 102.95C58.0712 102.572 57.8237 102.269 57.7561 102.126C57.6939 101.985 57.6877 101.821 57.636 101.71C57.591 101.648 57.54 101.585 57.4824 101.526C56.8876 100.866 55.4104 99.949 54.5927 99.5113C54.446 99.4285 54.4496 99.2978 54.2472 99.1536C53.4675 98.5944 52.4589 98.1773 52.4872 98.596C51.8636 98.1852 51.2038 97.9372 50.5395 97.7197C50.071 97.565 49.6124 97.4127 49.1712 97.2329C47.4783 96.5516 44.8414 95.2855 42.84 94.9144C42.2785 94.8132 41.5696 94.8797 41.0062 94.9434C39.6437 95.0837 39.6479 95.3319 37.491 95.0356C37.0135 94.9583 36.543 94.8544 35.9797 94.7157C35.0707 94.4911 34.285 94.1173 33.5372 93.9106C33.2233 93.8248 32.9064 93.7869 32.5852 93.8203C31.2887 93.3638 30.0242 93.0962 29.111 92.2051C28.9491 92.2005 28.7843 92.1891 28.6167 92.1695C28.4401 92.0544 28.2665 91.9287 28.0995 91.793C28.094 91.6938 28.0914 91.5956 28.0912 91.4979C27.8395 91.2691 27.5807 91.0127 27.3383 90.7295C26.6517 89.9481 25.8368 89.1601 25.3546 88.5126C24.6439 87.5621 23.2266 85.5529 22.1061 83.9446C21.6604 83.2933 21.1222 82.8118 20.7476 82.4971C20.1199 81.9849 19.9821 82.1013 19.7392 81.5688C19.5637 81.487 19.3861 81.4058 19.207 81.3242C19.0654 81.3212 18.924 81.3184 18.7821 81.3153C18.6619 81.2436 18.54 81.1688 18.4152 81.0903C17.6247 80.5887 16.5885 80.0187 15.7207 79.4364C15.0885 79.0167 14.3072 78.4217 13.7141 77.5525C12.9097 76.3913 11.6864 75.24 10.9528 73.9924C10.7162 73.5889 10.5086 73.0165 10.3777 72.4626C10.3524 72.3579 10.3268 72.2319 10.3103 72.1542C10.1611 71.361 9.91912 71.2459 9.82422 70.3153C9.67102 68.7375 9.82619 65.852 9.75854 64.3925C9.73787 63.9594 9.64223 63.7594 9.62372 63.4603C9.54582 62.2052 9.52987 61.1737 9.37168 59.9717C9.5827 58.6734 9.88408 58.779 10.18 58.3801C10.4032 58.0712 10.9245 57.1396 11.1238 57.0154C11.2632 56.9253 11.4429 57.2618 11.5963 57.1349C11.7234 58.6656 11.5997 59.3139 11.4055 60.5666C11.4583 62.8733 11.5347 65.1817 11.6611 67.4785C11.5882 67.6908 11.516 67.9054 11.4443 68.119C11.4442 68.119 11.444 68.119 11.4438 68.119C11.3987 69.0053 11.6426 69.3672 11.7287 69.8319C11.8549 70.4743 11.9754 71.3542 12.1576 71.9253C12.5839 73.0902 14.2267 74.5214 15.457 76.4195C16.1963 77.6456 17.8624 78.3538 19.4712 79.3429C21.0033 80.2969 22.6534 81.3241 23.6063 82.6337C23.634 82.6699 23.664 82.7094 23.696 82.7523C24.429 83.7339 26.474 86.3288 26.801 86.9812C26.8879 87.1568 26.817 87.2778 26.9354 87.4454C27.5381 88.1843 28.1429 88.9214 28.7507 89.6531C29.2254 90.2194 29.8512 90.6076 30.5879 90.8884C31.5923 91.4015 32.8389 91.6896 34.0978 92.081C36.49 92.8518 38.8665 92.9212 41.4415 92.7229C42.0059 92.7038 42.6149 92.6946 43.269 92.8224C46.2238 93.4602 48.7513 94.7732 51.3085 95.7369C54.0399 96.819 56.9005 97.8901 59.2084 100.188C61.2023 103.089 60.4494 105.656 59.7718 108.211C59.1954 109.926 57.9951 111.205 57.5288 112.355C57.4557 112.531 57.3954 112.711 57.3509 112.899C57.0906 113.677 58.7046 115.586 59.6425 116.916C60.0849 117.557 60.1473 117.935 60.7627 118.717C60.7949 118.758 60.829 118.8 60.8653 118.843C60.8232 118.881 60.7811 118.92 60.7391 118.958C61.2681 119.688 61.6896 120.098 62.2707 120.928C62.7544 121.628 64.0932 123.473 64.5251 124.124C64.7479 124.46 64.5762 124.396 64.7913 124.707C64.9463 124.932 65.1952 125.248 65.4645 125.63C65.8241 126.139 66.1997 126.719 66.4441 127.177C66.8299 127.891 67.324 129.157 67.6039 129.707C68.4939 131.446 69.4824 133.301 70.2358 135.285C70.3416 135.566 70.4381 135.849 70.5253 136.133C70.73 136.785 70.8178 137.665 70.8683 137.869C70.972 138.269 71.1252 138.361 71.1988 138.631C71.5875 140.006 71.6474 142.201 71.7046 143.535C71.7895 145.181 71.826 146.833 71.9464 148.459C72.1483 151.2 72.395 153.952 72.6779 156.587C72.8241 157.956 73.0588 159.783 73.3349 161.56C73.5968 163.256 73.877 164.916 74.0615 166.109C74.1436 166.637 73.9746 166.525 74.0639 166.965C74.164 167.453 74.316 167.693 74.3733 167.918C74.5076 168.434 74.6961 169.186 74.9363 169.908C75.229 170.794 75.8906 171.674 76.5304 172.414C76.581 172.496 76.8475 172.654 77.0648 172.742C77.2675 172.829 77.4227 172.977 77.5711 173.006C77.6481 173.02 77.8295 172.975 78.0768 172.995C79.9259 173.103 81.5007 172.914 83.1618 172.469C83.3542 172.415 83.5303 172.318 83.7144 172.141C84.0435 171.829 84.2852 171.336 84.6328 170.644C85.2129 167.447 84.8676 162.422 84.8172 158.434C84.7928 157.385 84.9793 156.659 84.9697 156.509C84.9525 156.242 84.8393 156.055 84.7593 155.636C84.7419 155.537 84.7275 155.428 84.7187 155.301C84.3228 152.695 86.6934 149.844 88.0566 148.426C88.0717 148.409 88.0867 148.392 88.1017 148.375C88.8603 147.477 90.1677 146.489 91.0466 145.996C91.4391 145.767 92.1098 145.437 92.5886 145.117C92.9957 144.849 93.3101 144.583 93.3918 144.464C93.5034 144.302 93.4593 144.125 93.6031 143.96ZM86.8812 168.238C86.6353 168.074 86.7513 169.647 86.9292 169.069C86.9719 168.936 86.9481 168.279 86.8812 168.238ZM59.6848 119.912C59.6292 119.963 59.5737 120.014 59.5182 120.065C59.6517 120.221 59.786 120.376 59.9211 120.529C59.8973 120.409 59.874 120.29 59.8512 120.17C59.7955 120.084 59.74 119.998 59.6848 119.912Z" fill="#030E12"/>
<path d="M176.024 62.1113C176.106 62.0472 176.286 62.0558 176.405 61.9899C176.906 61.7097 177.137 61.6221 177.686 61.3271C177.919 61.2045 178.28 60.9831 178.772 60.7834L178.86 60.7501C179.694 60.4987 180.888 59.9311 181.11 60.3717C181.11 60.3717 181.11 60.3717 181.11 60.3717C181.113 60.3776 181.116 60.3837 181.118 60.39C181.168 60.509 181.04 60.7311 181.077 60.8755C181.113 61.02 181.559 61.8492 181.302 62.036C180.933 62.3076 179.792 62.5423 179.544 62.6215C179.528 62.6278 179.512 62.6348 179.495 62.6425L179.547 62.623C179.437 62.6899 179.33 62.8199 179.193 62.9097C178.698 63.2393 178.388 63.3887 177.988 63.9174C177.709 63.9492 177.424 63.9805 177.136 63.9995C176.866 64.2197 176.305 64.2908 176.103 64.362C175.937 64.4253 175.861 64.5486 175.672 64.5973C175.467 64.6493 175.138 64.6101 174.765 64.6152C174.752 64.6155 174.739 64.6159 174.726 64.6165C174.19 64.6431 174.093 64.899 173.759 64.9318C173.411 64.9664 172.859 64.8225 172.388 64.8725C172.327 64.8955 172.265 64.9181 172.204 64.9402C172.241 65.0067 172.277 65.073 172.315 65.1392C172.072 65.1474 171.982 65.008 171.762 64.9772C171.506 64.9397 171.354 65.0371 171.178 65.0044C171.035 64.9775 170.863 64.8425 170.68 64.8056C170.416 64.7512 170.437 64.9006 170.288 64.8891C170.225 64.8949 169.168 64.641 169.117 64.6128C168.684 64.4579 168.722 64.2624 168.396 64.108C167.505 63.6799 166.556 63.3548 165.753 62.9602C165.538 62.8541 165.343 62.742 165.139 62.6109C164.989 62.5151 164.847 62.415 164.711 62.313C165.504 62.2332 164.556 61.1633 164.564 62.0915C164.255 61.7568 163.883 61.7536 163.573 61.4981C163.374 61.3339 163.29 61.1441 162.994 60.9525C162.462 60.6037 161.789 60.5936 161.877 60.0289C161.228 59.8208 160.707 59.4844 160.37 59.9092C160.209 59.9002 159.828 59.5439 159.627 59.4867C159.526 59.453 159.018 59.3587 158.53 59.3283C158.123 59.303 157.769 59.2838 157.648 59.2831C157.382 59.2811 156.921 59.2838 156.7 59.3323C156.428 59.3923 156.24 59.9023 155.729 59.3276C155.153 59.3944 154.949 59.3851 154.408 59.3391C154.31 59.3308 154.296 59.2437 154.239 59.2462C154.125 59.2512 153.926 59.3252 153.719 59.3433C153.381 59.373 153.17 59.2004 153.225 59.4795C153.005 59.5388 152.779 59.5995 152.559 59.6605C152.479 59.6111 152.395 59.562 152.312 59.513C152.195 59.5801 152.08 59.6473 151.965 59.7148C152.076 59.2974 151.249 59.6001 151.541 59.813C151.098 59.7622 150.661 59.7149 150.217 59.6727C150.234 59.2038 149.257 59.7163 149.372 59.9589C149.322 59.9639 149.273 59.969 149.223 59.9742C148.776 59.9004 148.391 60.0481 147.853 60.0357C147.314 60.0243 147.357 59.9742 147.167 59.7853C147.044 59.815 146.92 59.8451 146.798 59.8752C146.23 60.5505 146.195 59.5296 145.143 60.1521C144.726 59.8469 143.873 60.1853 143.307 60.3964C143.241 60.4209 143.252 60.4913 143.165 60.5287C142.95 60.6194 142.369 60.6278 142.428 60.8509C142.248 60.8231 142.066 60.7958 141.881 60.7691C141.855 60.7653 141.83 60.7615 141.804 60.7577C141.649 60.8273 141.497 60.8962 141.342 60.9655C141.355 61.0361 141.368 61.1067 141.381 61.1773C141.016 60.9923 140.517 61.1716 140.256 61.1547C140.204 61.1513 140.177 61.0555 140.016 61.0541C139.829 61.0519 139.492 61.1345 139.268 61.137C139.199 61.2584 139.131 61.3795 139.061 61.5006C138.675 61.6173 138.495 61.3493 138.263 61.358C138.219 61.3614 137.462 61.4763 137.419 61.4856C137.086 61.5692 137.213 61.8157 136.21 61.8437C136.033 61.8471 135.882 61.7711 135.721 61.7762C135.441 61.7908 134.569 61.9959 134.49 62.168C134.137 61.9492 133.153 61.9623 132.858 61.834C132.77 61.798 132.778 61.6585 132.512 61.5706C132.302 61.5055 131.693 61.4451 131.412 61.2888C131.267 61.2126 131.179 61.1266 131.118 61.0549C131.082 60.9966 131.057 60.9467 131.013 60.9197C130.93 60.8691 130.808 60.918 130.686 60.8644C130.305 60.6962 129.962 60.4225 129.609 60.3091C129.097 60.1451 128.544 60.2848 128.009 60.2178C127.895 60.1544 127.798 60.0492 127.668 59.9908C126.944 59.7091 125.789 58.8295 125.698 57.6044C125.602 56.7682 125.555 55.9055 125.587 55.0896C125.574 54.3419 126.234 52.599 125.525 52.9743C125.488 52.8254 125.644 52.2203 125.872 51.6629C126.045 51.2576 126.204 50.8457 126.241 50.703C126.319 50.395 126.26 50.1208 126.313 49.872C126.476 49.1156 126.652 48.5916 126.828 47.5774C126.875 47.3153 126.836 46.9926 126.893 46.8361C126.962 46.6481 127.163 46.4938 127.275 46.2582C127.516 45.6889 128.137 44.6327 128.598 44.2081C128.679 44.1277 128.79 44.1802 128.927 44.095C128.956 44.0771 128.985 44.0589 129.014 44.0405C129.512 43.7185 129.993 43.366 129.699 43.1377C130.485 42.851 131.043 42.3981 131.659 42.137C132.511 41.7818 133.713 41.3954 134.675 40.9134C135.281 40.6184 135.822 40.3927 136.191 40.1984C136.848 39.8505 136.801 39.7083 137.764 39.4828C137.973 39.4314 138.179 39.3889 138.41 39.3158C138.807 39.1922 139.219 39.143 139.407 38.8905C139.467 38.8087 139.497 38.7045 139.483 38.5762C139.888 38.2609 140.048 37.7732 140.548 37.4258C140.502 37.3387 140.456 37.2519 140.41 37.1649C140.442 37.0835 140.474 37.0013 140.507 36.9172C140.585 36.9189 140.663 36.9206 140.741 36.922C141 36.3326 141.077 35.3721 141.418 34.8014C141.671 34.3574 142.23 33.5777 142.985 32.9853C143.674 32.4418 144.412 31.8966 144.83 31.6373C145.25 31.3766 145.183 31.2348 145.601 31.3268C145.677 31.2441 145.755 31.1615 145.833 31.0796C145.85 30.9821 145.869 30.8844 145.888 30.7864C146.425 30.417 147.155 30.1224 147.712 29.8558C147.886 29.7714 148.074 29.6783 148.273 29.5825C149.36 29.0836 150.578 28.76 151.49 28.7063C151.766 28.6921 152.123 28.7836 152.382 28.7446C152.763 28.6879 152.823 28.4363 153.306 28.3704C154.142 28.254 155.718 28.3822 156.499 28.3045C156.733 28.2804 156.834 28.1834 156.995 28.1625C157.67 28.0745 158.227 28.0499 158.873 27.8839C159.585 28.0866 159.53 28.3893 159.758 28.6832C159.921 28.9048 160.434 29.4241 160.492 29.6238C160.538 29.7632 160.366 29.943 160.431 30.0963C159.639 30.2253 159.298 30.1064 158.625 29.9202C157.409 29.9874 156.184 30.0878 154.97 30.2183C154.851 30.146 154.732 30.0741 154.612 30.0025C154.612 30.0024 154.612 30.0022 154.612 30.002C154.133 29.9559 153.959 30.1944 153.715 30.2732C152.537 30.6732 150.579 30.9123 149.077 31.4467C147.526 32.0453 146.129 33.02 145.123 33.8423C144.955 33.978 144.662 34.2472 144.336 34.544C143.873 34.9559 143.487 35.5452 143.302 35.6937C143.224 35.7528 143.1 35.7097 143.044 35.7944C142.661 36.6148 142.448 37.5338 142.066 38.5371C141.714 39.137 141.295 39.7919 140.695 40.3211C139.404 41.4278 137.937 41.8482 136.695 42.3604C136.308 42.5125 135.935 42.6701 135.58 42.8437C133.652 43.8342 131.513 44.247 130.373 45.4549C128.751 46.9574 128.727 49.6096 127.925 52.2718C127.834 52.575 127.76 52.8828 127.7 53.1951C127.512 54.1239 127.59 55.3419 127.62 56.3052C127.631 56.6838 127.465 56.8794 127.636 57.3321C127.645 57.3473 127.655 57.362 127.667 57.3758C127.613 57.3891 127.558 57.4028 127.504 57.417C127.643 57.6772 127.786 57.6639 128.039 57.8493C128.212 58.0177 129.259 58.3819 129.659 58.5147C129.858 58.5869 129.752 58.6633 129.943 58.7216C130.267 58.8187 131.047 58.9118 131.549 59.143C131.689 59.2058 131.855 59.2987 132.026 59.4106C132.227 59.5646 132.523 59.7199 132.706 59.7543C133.67 59.9449 134.872 59.762 136.058 59.7238C136.389 59.7139 136.827 59.8064 136.933 59.7911C137.136 59.7617 137.181 59.6239 137.317 59.5912C137.998 59.4285 139.113 59.4222 139.804 59.315C140.385 59.2261 140.977 59.1246 141.573 59.0174C143.297 58.7079 145.054 58.3746 146.763 58.1483C148.214 57.9445 150.655 57.6676 152.011 57.6853C152.302 57.6872 152.238 57.8359 152.48 57.8206C152.748 57.8039 152.894 57.6982 153.017 57.6834C153.889 57.5746 155.823 57.4049 156.646 57.4867C156.803 57.5018 156.92 57.6119 157.015 57.6093C157.065 57.6081 157.168 57.5286 157.316 57.5174C157.742 57.4857 158.12 57.4682 158.5 57.4588C159.35 57.4421 160.156 57.5209 161.107 57.7764C163.112 58.2759 164.809 59.7033 166.347 60.6098C166.967 60.9802 167.586 61.333 168.186 61.6579C168.659 61.9145 168.903 62.2628 168.976 62.293C169.13 62.3544 169.288 62.261 169.608 62.3472C170.669 62.6529 172.011 63.1044 173.065 63.0393C173.544 63.0228 174.213 62.84 174.768 62.7836C174.793 62.7794 174.817 62.7754 174.84 62.7717C175.092 62.7612 175.799 62.5975 175.911 62.4313C175.973 62.3451 175.936 62.1817 176.024 62.1113ZM162.75 60.6468C162.948 60.4588 162.193 60.2636 162.364 60.526C162.401 60.5823 162.698 60.6927 162.75 60.6468ZM126.176 57.8684C126.107 57.8979 126.039 57.9283 125.97 57.9596C126.043 58.0981 126.13 58.2326 126.228 58.3547C126.228 58.2577 126.235 58.1635 126.248 58.0726C126.22 58.0045 126.196 57.9371 126.176 57.8684Z" fill="#030E12"/>
<path d="M161.41 146.775C161.514 146.9 161.572 147.148 161.692 147.31C162.201 147.985 162.384 148.268 162.935 148.856C163.058 148.986 163.226 149.147 163.422 149.324L163.512 149.411C164.191 150.192 165.383 151.107 166.031 151.671L165.973 151.641C165.984 151.652 165.994 151.662 165.981 151.663C165.973 151.663 165.964 151.661 165.909 151.646C165.875 151.639 165.845 151.625 165.707 151.613C165.66 151.612 165.492 151.59 165.254 151.683C165.094 151.744 164.901 151.884 164.786 152.061C164.671 152.233 164.63 152.404 164.618 152.524C164.606 152.912 164.665 152.898 164.668 152.944C164.68 152.972 164.681 152.97 164.679 152.96C164.674 152.939 164.655 152.883 164.637 152.792C164.62 152.7 164.599 152.563 164.633 152.372C164.664 152.185 164.779 151.965 164.908 151.837C165.173 151.583 165.348 151.572 165.445 151.547C165.553 151.528 165.616 151.53 165.668 151.533C165.773 151.541 165.83 151.56 165.883 151.578C166.071 151.655 166.119 151.744 166.11 151.828C166.11 151.828 166.11 151.828 166.11 151.829C166.108 151.835 166.107 151.842 166.105 151.848C166.083 151.91 165.978 151.959 165.845 152.02C165.781 152.052 165.707 152.085 165.625 152.136C165.549 152.179 165.42 152.296 165.417 152.388C165.407 152.522 165.627 152.594 165.821 152.521C165.871 152.505 165.919 152.482 165.97 152.47C165.996 152.465 166.023 152.46 166.056 152.479C166.073 152.493 166.093 152.501 166.115 152.569C166.124 152.606 166.141 152.639 166.124 152.749C166.112 152.848 166.024 153.009 165.895 153.086C165.662 153.213 165.59 153.173 165.542 153.188C165.485 153.192 165.466 153.197 165.438 153.202C165.389 153.211 165.356 153.222 165.328 153.234C165.267 153.255 165.221 153.277 165.17 153.289L165.127 153.267C165.045 153.294 164.956 153.294 164.869 153.254C164.185 152.972 162.974 151.708 162.716 151.444C162.522 151.274 162.234 151.11 161.995 150.878C161.986 150.869 161.978 150.86 161.969 150.852L162.028 150.91C161.228 150.256 160.886 149.833 160.082 149.251C159.922 148.872 159.779 148.486 159.659 148.096C159.315 147.711 159.08 146.938 158.957 146.649C158.85 146.413 158.705 146.3 158.619 146.029C158.574 145.885 158.547 145.693 158.532 145.471C158.513 145.213 158.519 144.961 158.492 144.687C158.417 143.844 158.167 143.714 158.117 143.215C158.067 142.702 158.183 141.901 158.073 141.254C158.042 141.172 158.012 141.092 157.981 141.012C157.92 141.073 157.86 141.132 157.799 141.193C157.759 140.868 157.882 140.723 157.873 140.422C157.862 140.07 157.733 139.896 157.723 139.66C157.714 139.466 157.799 139.199 157.78 138.949C157.751 138.584 157.614 138.673 157.576 138.479C157.565 138.399 157.381 136.973 157.367 136.896C157.303 136.288 157.489 136.216 157.447 135.731C157.409 135.301 157.339 134.873 157.247 134.461C157.051 133.587 156.743 132.74 156.464 131.943C156.28 131.418 156.111 130.858 155.96 130.313C156.715 131.003 156.444 129.001 155.95 129.954C155.849 129.321 155.502 128.968 155.331 128.391C155.221 128.017 155.229 127.725 155.035 127.203C154.853 126.718 154.585 126.238 154.429 125.822C154.271 125.401 154.237 125.042 154.449 124.832C154.007 123.659 154.043 122.595 153.49 122.243C153.408 121.936 153.584 121.107 153.583 120.762C153.566 120.43 153.457 117.953 153.435 117.556C153.408 117.155 153.356 116.456 153.283 116.126C153.192 115.71 152.665 115.466 153.175 114.669C153.045 113.887 153.015 113.567 152.965 112.918C152.961 112.865 152.956 112.804 152.949 112.741C152.936 112.607 153.018 112.57 153.001 112.493C152.966 112.328 152.837 112.064 152.749 111.776C152.603 111.302 152.683 110.972 152.433 111.113C152.287 110.816 152.132 110.523 151.97 110.236C151.98 110.111 151.987 109.983 151.994 109.856C151.872 109.715 151.749 109.577 151.624 109.443C152.087 109.463 151.338 108.442 151.301 108.909C151.101 108.309 150.868 107.719 150.595 107.148C151.044 106.954 149.828 105.988 149.706 106.269C149.662 106.216 149.618 106.162 149.573 106.11C149.503 105.982 149.421 105.866 149.332 105.758C149.011 105.373 148.647 105.045 148.269 104.599C147.767 104.024 147.843 104.052 147.798 103.736C147.649 103.633 147.497 103.534 147.345 103.441C146.254 103.433 146.932 102.585 145.222 102.34C144.871 101.794 143.522 101.587 142.643 101.526C142.541 101.518 142.525 101.587 142.386 101.581C142.268 101.576 142.096 101.543 141.911 101.512C141.552 101.453 141.184 101.382 141.171 101.533C140.878 101.398 140.594 101.259 140.312 101.115C140.059 101.09 139.804 101.062 139.551 101.032C139.532 101.101 139.513 101.17 139.494 101.239C139.074 100.863 138.295 100.713 137.944 100.536C137.875 100.5 137.89 100.402 137.671 100.3C137.416 100.182 136.914 100.043 136.61 99.9071C136.453 99.9694 136.296 100.032 136.138 100.094C135.559 99.9594 135.457 99.6189 135.136 99.4872C135.078 99.462 133.996 99.1269 133.937 99.1166C133.448 99.0167 133.507 99.2752 132.161 98.837C131.921 98.761 131.746 98.6269 131.527 98.5687C131.449 98.5479 131.338 98.5275 131.21 98.5107C130.654 98.4388 129.792 98.34 129.668 98.4479C129.222 98.0891 127.861 97.6581 127.505 97.4016C127.397 97.328 127.431 97.1904 127.097 96.9855C126.826 96.8247 126.053 96.5067 125.724 96.2442C125.664 96.1982 125.613 96.1539 125.569 96.1117C125.385 95.9281 125.332 95.7885 125.214 95.6959C125.08 95.5904 124.895 95.5774 124.702 95.4356C124.098 94.9908 123.647 94.4173 123.221 93.9477C122.61 93.2829 121.898 92.6248 121.603 91.7152C121.581 91.4866 121.619 91.2575 121.613 91.0271C121.612 90.9865 121.612 90.9457 121.612 90.9046C121.639 88.7655 121.426 86.3102 121.633 83.9814C121.683 83.4314 121.901 82.467 122.193 81.7231C122.47 80.9836 122.807 80.4545 122.284 80.6556C122.339 80.457 122.84 79.7056 123.674 79.2562C124.449 78.8366 125.324 78.473 125.573 78.3461C126.025 78.116 126.329 77.8344 126.679 77.6575C127.337 77.3256 127.881 77.0915 128.479 76.7761C128.775 76.6194 129.089 76.3978 129.418 76.0694C129.645 75.8437 129.79 75.5029 129.919 75.3669C130.074 75.2033 130.339 75.1031 130.532 74.8681C130.822 74.5184 131.204 73.9174 131.459 73.3569C131.649 72.948 131.846 72.5797 132.004 72.3152C132.084 72.1843 132.211 72.1957 132.352 72.0287C132.899 71.3775 133.427 70.6218 133.028 70.539C133.665 69.929 134.092 69.2452 134.579 68.6076C134.664 68.4911 134.756 68.36 134.855 68.2236C135.395 67.5037 136.224 66.137 137.577 65.1277C138.923 64.0836 140.638 63.7647 141.639 63.6836C141.685 63.6791 141.73 63.6748 141.773 63.6708C142.771 63.5674 142.806 63.4088 144.389 63.5722C144.756 63.6114 145.116 63.6635 145.562 63.718C146.598 63.8456 147.539 64.2187 148.38 63.935C149.55 64.1577 150.545 64.2771 151.333 64.839C151.458 64.7955 151.581 64.753 151.707 64.7124C151.851 64.7555 151.994 64.8008 152.133 64.8465C152.153 64.9302 152.172 65.0143 152.191 65.0979C152.382 65.1687 152.583 65.2325 152.786 65.2886C153.723 65.5555 154.681 65.869 155.265 66.1622C156.446 66.8918 159.599 67.9756 160.907 68.1696C161.578 68.3129 161.633 68.1564 161.991 68.5162C162.151 68.5092 162.304 68.5003 162.459 68.4905C162.561 68.4282 162.664 68.3655 162.767 68.3023C163.164 68.3295 163.6 68.3749 164.046 68.4145C164.583 68.4617 165.106 68.5091 165.579 68.5205C167.154 68.5615 169.52 68.39 171.098 68.4961C171.495 68.5239 171.99 68.661 172.378 68.651C172.942 68.636 173.073 68.3927 173.788 68.3647C174.314 68.3438 175.047 68.3639 175.798 68.3777C176.797 68.3967 177.839 68.4229 178.506 68.3739C178.855 68.3484 179.013 68.2501 179.254 68.2274C180.263 68.1317 181.095 68.0953 182.063 67.9135C183.123 68.0989 183.044 68.4029 183.377 68.6917C183.633 68.9087 184.391 69.4196 184.488 69.6207C184.559 69.7599 184.293 69.9403 184.395 70.0934C183.194 70.2323 182.663 70.1291 181.646 69.9579C179.787 70.055 177.921 70.1732 176.052 70.2854C176.001 70.2639 175.95 70.2423 175.9 70.2207C175.778 70.168 175.654 70.1152 175.527 70.0623C175.527 70.0621 175.527 70.062 175.527 70.0618C174.803 70.0024 174.505 70.229 174.116 70.2928C171.657 70.7012 167.612 70.6587 163.977 70.4381C162.065 70.331 160.256 70.058 158.848 69.7183C157.939 69.5831 155.05 68.5991 154.592 68.1466C154.465 68.0437 154.484 67.908 154.337 67.827C153.593 67.4956 152.884 67.1626 152.185 66.9562C151.527 66.7538 150.921 66.5805 150.295 66.4675C147.693 65.6796 144.665 65.8338 141.79 65.8774C141.628 65.8812 141.477 65.8899 141.321 65.9044C139.02 66.0454 137.822 67.7821 136.213 70.0229C135.097 71.3403 134.116 72.7693 133.41 74.2818C132.546 76.0631 131.307 77.6168 129.465 78.6457C127.852 79.5023 126.244 80.2195 124.813 81.0996C124.587 81.2383 124.403 81.4121 124.245 81.6349C123.577 82.5122 123.596 84.5209 123.569 86.0061C123.557 86.6373 123.36 86.911 123.548 87.7518C123.492 87.7629 123.437 87.7741 123.381 87.7853C123.478 88.5241 123.627 88.9947 123.66 89.8407C123.669 90.0876 123.68 90.4748 123.681 90.9062C123.666 91.4705 123.953 92.0587 124.131 92.3243C124.267 92.5326 124.128 92.5211 124.284 92.7118C124.548 93.0471 125.385 93.57 125.949 93.9643C126.157 94.1159 126.424 94.3284 126.701 94.5582C127.027 94.8371 127.392 95.0971 127.628 95.216C128.821 95.8199 130.259 96.1979 131.68 96.5142C132.036 96.5935 132.387 96.6855 132.73 96.7894C133.249 96.945 133.865 97.2761 134.025 97.3223C134.337 97.4117 134.469 97.3163 134.682 97.3671C135.766 97.6252 137.322 98.3351 138.32 98.6711C139.611 99.1055 140.935 99.5168 142.234 99.7515C144.418 100.144 146.754 100.801 148.62 102.25C149.341 102.793 150.121 103.576 150.834 104.349C152.197 105.804 153.125 107.64 153.59 108.894C153.748 109.326 153.567 109.267 153.706 109.622C153.858 110.016 154.024 110.204 154.095 110.389C154.294 110.917 154.572 111.701 154.751 112.618C154.991 113.882 155.112 115.211 155.121 115.951C155.123 116.19 155.026 116.371 155.038 116.512C155.045 116.583 155.135 116.738 155.163 116.961C155.406 118.926 155.476 120.354 155.762 122.214C155.916 123.169 156.134 124.15 156.477 125.062C157.488 127.781 158.691 130.636 159.258 133.582C159.292 133.758 159.312 133.926 159.323 134.082C159.368 134.699 159.276 135.114 159.292 135.212C159.332 135.478 159.505 135.631 159.6 136.17C159.916 137.965 159.844 140.38 159.967 142.063C160.03 142.89 160.246 144.046 160.347 144.78C160.363 144.896 160.38 145.047 160.398 145.149C160.463 145.647 160.836 146.438 161.002 146.568C161.122 146.67 161.295 146.64 161.41 146.775ZM154.947 126.602C155.23 126.618 154.604 125.552 154.633 126.029C154.638 126.134 154.873 126.596 154.947 126.602ZM121.993 88.0502C121.919 88.0644 121.845 88.0785 121.772 88.0927C121.809 88.2518 121.846 88.4109 121.883 88.5693C121.924 88.4776 121.965 88.3867 122.006 88.2945C122.002 88.2129 121.997 88.1315 121.993 88.0502Z" fill="#030E12"/>
<path d="M186.406 64.9294C186.647 65.5967 186.855 66.5737 187.089 67.3717C188.049 70.7287 188.286 71.9949 188.909 75.0898C190.119 79.6361 191.064 93.4938 190.18 93.5C190.18 93.5 190.18 93.5 190.18 93.5C190.174 93.5 190.167 93.4987 190.16 93.496C190.033 93.4465 189.885 92.2738 189.735 92.1038C189.584 91.9342 188.657 92.0724 188.554 90.4438C188.458 88.0847 188.14 82.3913 187.91 81.1415C187.783 80.2871 187.537 79.2479 187.331 78.1589C186.65 74.6665 186.281 72.823 185.215 69.7928C184.988 68.5229 184.736 67.2627 184.453 66C183.886 64.4155 183.16 61.9793 182.769 61.0297C182.454 60.2523 182.18 59.8343 181.838 59.033C181.454 58.1374 180.948 56.7116 180.164 55.1136C178.863 52.4993 178.375 52.1667 177.514 50.6508C176.615 49.0799 175.292 46.5874 173.939 44.7073C173.757 44.4805 173.573 44.2547 173.389 44.0299C173.452 44.2371 173.515 44.4443 173.577 44.6516C172.91 43.702 172.734 43.2188 172.121 42.3436C171.397 41.3167 170.916 40.8749 170.411 40.1996C169.996 39.6469 169.501 38.8437 168.936 38.1457C168.11 37.1303 168.178 37.4443 167.711 36.9183C167.551 36.6841 164.063 32.8517 163.835 32.6648C162.301 31.059 162.296 30.7905 161.039 29.5339C157.537 26.0632 153.51 22.9707 149.755 20.4069C148.079 19.2583 146.313 18.0881 144.598 17.0081C147.596 18.2514 141.713 14.2556 143.596 16.2837C141.71 15.0465 140.194 14.4576 138.313 13.4582C137.091 12.8167 136.272 12.2913 134.475 11.4791C131.271 10.0238 127.568 9.00644 126.793 8.16255C122.867 6.89533 119.441 5.82038 117.886 5.94818C116.859 5.72052 114.245 4.86176 113.084 4.61632C112.003 4.27308 103.412 3.03877 101.987 3.04198C100.562 2.93154 98.0943 2.83028 96.8922 2.86303C96.4047 2.87326 95.9637 2.93481 95.5 2.99414C94.5303 3.12005 93.473 3.22658 91.6581 2.89619C88.5527 3.08478 87.457 3.15826 84.5678 3.39998C84.0453 3.44743 83.9762 3.36819 83.672 3.40516C83.0443 3.48201 81.9956 3.68467 80.8833 3.86369C79.0514 4.1593 77.9851 4.18172 78.2375 4.41926C77.0519 4.6835 75.8637 4.97201 74.6857 5.28254C74.2572 5.32218 73.829 5.3647 73.4011 5.4101C72.7817 5.61768 72.1674 5.83083 71.5495 6.05189C72.1827 5.44766 67.8209 6.90073 69.3209 6.72708C67.0379 7.2904 64.7611 7.94413 62.5161 8.68158C62.6499 8.1011 57.662 10.529 58.2053 10.6077C57.9567 10.7133 57.7087 10.82 57.4613 10.9277C55.251 11.7638 53.3258 12.7868 50.7483 14.0657C48.1731 15.369 48.4023 15.2222 47.5322 15.4725C46.9525 15.825 46.3721 16.1864 45.7986 16.5523C43.1085 18.9563 43.0122 17.6828 38.335 21.6646C36.5387 22.5282 32.9106 25.7411 30.6801 28.0292C30.4183 28.2932 30.4623 28.3491 30.1199 28.7059C29.2729 29.5667 27.0516 31.7099 27.2979 31.7982C26.5142 32.5219 25.7414 33.261 24.9814 34.0135C24.432 34.6927 23.8929 35.379 23.3638 36.0726C23.4215 36.1155 23.4793 36.1583 23.537 36.2012C22.2137 37.378 20.5886 39.6126 19.7426 40.6761C19.5731 40.8873 19.4565 40.874 18.942 41.5419C18.3382 42.3213 17.3217 43.8489 16.6575 44.8168C16.4997 45.2588 16.3458 45.7013 16.1955 46.1444C15.1355 47.9457 14.5235 48.4365 13.8885 49.4939C13.7545 49.6752 11.8583 53.2444 11.785 53.4532C11.0516 55.0818 11.4014 54.6896 9.31245 59.3894C8.95088 60.2301 8.59616 60.8869 8.2938 61.66C7.72971 63.0135 6.51523 67.2646 6.61088 67.6471C5.8435 69.2638 4.76503 73.8839 4.4455 75.2496C4.34125 75.6576 4.17587 75.7189 3.90165 76.9875C3.67147 78.0161 3.34834 80.7129 3.16918 82.0313C2.96904 83.4328 2.80161 83.9318 2.72803 84.5598C2.6608 85.1544 2.70564 85.7127 2.64089 86.5273C2.43808 89.0822 2.21288 91.3694 2.20759 93.4069C2.20751 93.438 2.20748 93.469 2.2075 93.5C2.21061 96.4025 2.62368 98.9279 2.95892 101.317C2.99348 101.92 2.98946 102.51 3.05792 103.145C3.86312 110.956 5.99675 119.61 8.95228 126.92C10.1761 130.369 14.1787 138.578 13.6015 136.118C14.2051 137.232 18.9395 145.149 20.0957 146.495C21.1418 147.907 22.0984 148.925 22.9749 149.988C25.6422 153.177 27.5597 155.417 31.3165 158.816C32.2913 159.689 33.433 160.513 34.017 161.018C34.7202 161.627 35.4022 162.375 36.3392 163.141C38.5463 164.991 42.9577 168.069 45.3043 169.523C45.7298 169.794 45.8184 169.987 46.4178 170.394C48.7459 171.986 51.5621 173.44 51.2403 172.849C54.3225 174.718 57.4524 175.932 60.5523 177.148C67.0499 179.931 79.6263 182.93 85.7924 183.19C89.6489 183.425 89.5553 183.324 95.2492 183.556C95.3328 183.558 95.4163 183.561 95.5 183.563C96.688 183.594 97.8842 183.615 99.3136 183.595C102.909 183.545 106.248 183.513 108.911 182.76C112.888 182.291 115.988 181.558 118.941 181.146C119.264 180.985 119.585 180.824 119.904 180.66C120.378 180.533 120.851 180.402 121.322 180.267C121.489 180.296 121.656 180.324 121.823 180.352C125.223 179.417 129.33 177.624 132.058 176.468C136.761 174.764 147.998 168.481 151.739 165.543C153.785 164.077 153.78 163.859 155.107 163.208C155.531 162.836 155.951 162.46 156.368 162.08C156.592 161.799 156.814 161.518 157.035 161.235C159.48 159.138 162.312 156.558 164.401 154.302C168.28 150.247 173.184 143.393 176.089 138.587C176.836 137.393 177.822 135.924 178.461 134.698C179.385 132.909 179.396 132.37 180.459 130.058C182.352 126.104 185.273 118.434 186.145 114.355C186.427 113.153 186.462 112.569 186.629 111.732C187.314 108.236 187.755 105.326 187.948 101.908C188.494 98.2789 188.721 98.5849 189.086 97.465C189.362 96.6163 189.935 93.9377 190.124 93.5467C190.264 93.2757 190.44 94.2878 190.595 93.9088C190.665 98.4259 190.374 100.322 189.77 103.926C189.007 110.628 187.485 117.244 185.242 123.606C184.958 124.157 184.669 124.703 184.375 125.245C184.375 125.245 184.375 125.245 184.375 125.245C183.364 127.628 183.122 128.706 182.606 130.007C178.377 142.922 160.639 163.461 147.651 170.661C145.057 172.502 135.936 177.368 133.826 177.973C133.294 178.162 133.099 178.104 132.544 178.329C127.64 180.445 122.552 182.151 117.349 183.423C110.262 184.918 102.88 185.782 95.5 185.822C91.6519 185.844 87.8385 185.647 84.063 185.216C54.1728 181.985 26.5309 163.871 12.1154 137.93C9.27889 132.965 6.284 126.311 4.68193 120.936C4.0133 118.702 3.92557 117.704 3.04042 114.774C3.08719 114.73 3.13399 114.685 3.18083 114.641C2.4999 112.051 2.03273 110.408 1.54576 107.434C1.08138 104.957 0.487322 98.26 0.512634 96.0382C0.495413 94.8787 0.60807 95.3091 0.595058 94.2267C0.593157 94.0113 0.589866 93.7672 0.586271 93.5C0.546977 91.4637 0.562874 88.1254 0.764601 85.8687C0.93635 83.5686 1.57776 79.716 1.88428 77.9625C2.90703 71.6506 4.66379 64.8383 7.35876 58.5525C8.09192 56.8148 9.24843 54.6716 9.50518 54.1435C10.0011 53.1052 10.0417 52.7386 10.3801 52.0402C12.0711 48.4753 15.4376 43.3138 17.737 40.2199C25.0911 30.021 35.1021 20.851 45.8909 14.4932C52.5942 10.2714 64.8653 5.3103 72.0332 3.84431C73.5625 3.49494 73.1885 3.7328 74.4742 3.44345C75.9031 3.13026 76.6653 2.88674 77.3321 2.7516C81.5346 1.80737 90.516 0.822454 95.5 0.984032C96.0066 0.990026 96.4703 1.00138 96.8825 1.01627C97.7358 1.04751 98.3489 1.17852 98.8565 1.19507C99.1137 1.20393 99.6955 1.14669 100.503 1.17951C107.646 1.51684 112.831 2.35332 119.623 4.06541C132.639 7.32271 146.928 14.3127 157.618 23.5631C159.955 25.5573 161.32 27.1855 161.634 27.4765C162.32 28.1264 162.868 28.4323 164.241 29.775C168.846 34.2125 174.007 41.1492 177.177 46.3249C178.784 48.8559 180.909 52.4102 182.189 55.0818C183.271 57.1938 185.247 62.4232 185.635 63.3953C185.894 63.9805 186.145 64.2075 186.406 64.9294ZM132.593 10.5196C133.078 10.4221 128.985 9.00905 130.44 9.74107C130.769 9.89935 132.469 10.5358 132.593 10.5196ZM4.36942 113.592C4.43273 113.536 4.49611 113.481 4.55952 113.425C4.40173 112.878 4.24898 112.328 4.10147 111.776C4.12369 112.099 4.14779 112.422 4.17359 112.745C4.23752 113.028 4.30279 113.31 4.36942 113.592Z" fill="#030E12"/>
</svg>
